<?xml version="1.0" encoding="utf-8"?>
<!-- Generator: Adobe Illustrator 19.2.1, SVG Export Plug-In . SVG Version: 6.00 Build 0)  -->
<!DOCTYPE svg PUBLIC "-//W3C//DTD SVG 1.1//EN" "http://www.w3.org/Graphics/SVG/1.1/DTD/svg11.dtd">
<svg version="1.1" id="Layer_1" xmlns="http://www.w3.org/2000/svg" xmlns:xlink="http://www.w3.org/1999/xlink" x="0px" y="0px"
	 viewBox="0 0 169 61.4" style="enable-background:new 0 0 169 61.4;" xml:space="preserve">
<metadata><?xpacket begin="﻿" id="W5M0MpCehiHzreSzNTczkc9d"?>
<x:xmpmeta xmlns:x="adobe:ns:meta/" x:xmptk="Adobe XMP Core 5.6-c111 79.158366, 2015/09/25-01:12:00        ">
   <rdf:RDF xmlns:rdf="http://www.w3.org/1999/02/22-rdf-syntax-ns#">
      <rdf:Description rdf:about=""/>
   </rdf:RDF>
</x:xmpmeta>
                                                                                                    
                                                                                                    
                                                                                                    
                                                                                                    
                                                                                                    
                                                                                                    
                                                                                                    
                                                                                                    
                                                                                                    
                                                                                                    
                                                                                                    
                                                                                                    
                                                                                                    
                                                                                                    
                                                                                                    
                                                                                                    
                                                                                                    
                                                                                                    
                                                                                                    
                                                                                                    
                           
<?xpacket end="w"?></metadata>
<style type="text/css">
	.st0{fill:#01CCFF;}
</style>
<g>
	<path class="st0" d="M9.9,38.3c-0.1-0.9-0.1-1.5,0.1-1.9c0.1-0.3,0.3-0.6,0.6-0.9c0.3-0.3,0.6-0.6,0.9-1c0.3-0.4,0.6-0.7,0.9-1
		c0.3-0.3,0.5-0.5,0.8-0.8c0.3-0.3,0.5-0.6,0.8-0.9c0.3-0.3,0.6-0.8,1-1.3c0.5-0.7,0.9-1.4,1.4-2.1c0.4-0.6,0.7-1,0.8-1.1
		c0.8-0.7,1.4-1.5,1.8-2.3c0.4-0.8,0.7-1.8,0.8-2.8l-0.2-0.6c0-0.1,0-0.4-0.1-0.9c0-0.5-0.1-0.7-0.1-0.9c0-0.2,0-0.4,0.2-0.6
		c0.2-0.2,0.4-0.3,0.6-0.4c0.3-0.1,0.4,0,0.6,0.1c0.1,0.2,0.2,0.3,0.4,0.5c0.1,0.2,0.2,0.5,0.3,1.1c0.1,0.5,0.1,0.9,0.2,1.1
		c0,0.1,0.1,0.3,0.1,0.6c0,0.3,0,0.6,0,0.9s0,0.6,0,0.9c0,0.3-0.1,0.5-0.1,0.6c-0.2,0.8-0.4,1.5-0.6,2c-0.2,0.6-0.3,1.1-0.5,1.6
		s-0.4,1.1-0.7,1.6c-0.3,0.5-0.6,1.2-1,2l-1.4,2c-0.1,0.2-0.3,0.3-0.4,0.5c-0.2,0.1-0.3,0.3-0.5,0.4c-0.1,0.1-0.2,0.3-0.4,0.5
		c-0.1,0.2-0.2,0.3-0.4,0.5c-0.2,0.2-0.4,0.4-0.5,0.5c-0.1,0.1-0.2,0.2-0.3,0.3c-0.1,0.1-0.2,0.2-0.3,0.4c-0.1,0.2-0.3,0.4-0.5,0.7
		c-0.1,0.2-0.2,0.3-0.3,0.5c-0.1,0.2-0.2,0.3-0.4,0.5c-0.4,0.4-0.6,0.7-0.6,0.9c0,0.2,0.1,0.6,0.2,1.1c0.1,0.3,0.2,0.7,0.2,1
		c0,0.3,0.3,0.6,0.7,0.7c0.2,0.1,0.4,0.1,0.6,0.1c0.2,0,0.4,0,0.6,0c0.3,0.1,0.5,0.1,0.7,0.1c0.2,0,0.4-0.1,0.6-0.2
		c0,0,0.2-0.1,0.4-0.2c0.2-0.2,0.4-0.3,0.6-0.5c0.2-0.2,0.4-0.3,0.6-0.5c0.2-0.2,0.3-0.3,0.3-0.3c0.3-0.3,0.5-0.6,0.7-1
		c0.1-0.2,0.2-0.4,0.3-0.6c0.1-0.2,0.2-0.4,0.4-0.5c0.2-0.2,0.3-0.4,0.4-0.5c0-0.1,0.1-0.3,0.3-0.6c0.1-0.2,0.2-0.3,0.3-0.5
		c0.1-0.2,0.3-0.2,0.6-0.3c0.3,0,0.5,0.1,0.6,0.3c0.2,0.2,0.3,0.4,0.4,0.6c0.1,0.2,0.1,0.5,0.2,0.7c0,0.3,0,0.5,0,0.6
		c0,0.4,0.1,0.7,0.1,0.9c0,0.2,0,0.4,0,0.6c0,0.2-0.1,0.3-0.2,0.5c-0.1,0.2-0.2,0.4-0.4,0.8c-0.2,0.3-0.5,0.6-0.7,1
		c-0.3,0.4-0.5,0.7-0.8,0.9c-0.3,0.2-0.6,0.4-1.1,0.7c-0.5,0.2-0.9,0.4-1.2,0.4c-0.6,0.1-1.1,0.1-1.6,0c-0.4-0.1-1-0.2-1.6-0.4
		c-0.6-0.1-1.1-0.2-1.5-0.4c-0.4-0.1-0.8-0.2-1.1-0.4c-0.3-0.2-0.7-0.4-0.9-0.6c-0.3-0.3-0.6-0.7-0.8-1.2c-0.3-0.6-0.6-1.2-0.6-1.8
		S10,39,9.9,38.3z M19.3,16.4c-0.1-0.1-0.1-0.2-0.1-0.4c-0.1-0.4-0.2-0.7-0.3-0.9c0-0.2,0-0.4,0-0.6c0.1-0.2,0.2-0.4,0.4-0.6
		c0.2-0.2,0.5-0.5,0.8-1c0.1-0.1,0.3-0.2,0.5-0.2c0.4-0.1,0.7-0.1,0.8-0.2c0.1,0,0.2,0,0.4,0.1l0.7,0.6c0.4,0.4,0.5,0.8,0.4,1.3
		c-0.2,0.5-0.3,0.9-0.4,1.4L22,16.7c-0.5,0.5-0.9,0.7-1.2,0.8c-0.3,0.1-0.5,0.1-0.6,0C19.7,17.3,19.4,17,19.3,16.4z"/>
	<path class="st0" d="M41.2,11.8c0.1,0.3,0.1,0.5-0.1,0.5c-0.2,0-0.5,0.2-1.1,0.7c-0.2,0.2-0.4,0.2-0.5,0.2c-0.1,0-0.3,0-0.4,0.1
		c0,0.3,0.1,0.6,0,1c0,0.3,0,0.7,0,1c0,0.3,0.1,0.6,0,1c0,0.3-0.1,0.7-0.1,1c0,0.4-0.1,0.9-0.1,1.4c0,0.5-0.1,1-0.2,1.4
		c0,0.3,0,0.7,0,1c0.1,0.3,0.1,0.6,0,1c-0.1,0.6-0.2,1.1-0.3,1.7c-0.1,0.6-0.2,1.1-0.3,1.7c0,0.6-0.1,1.2-0.1,1.7c0,0.5,0,1.1,0,1.5
		c0,0.1,0,0.2,0,0.3l-0.1,2c-0.1,0.5-0.2,1-0.2,1.5c-0.1,0.5-0.1,1-0.2,1.5c-0.1,0.6-0.2,1.1-0.3,1.6c-0.1,0.5-0.2,1.1-0.3,1.6
		c-0.2,1.2-0.5,2.3-0.8,3.2c-0.1,0.3-0.2,0.6-0.2,1c0,0.4-0.1,0.7-0.2,1c-0.2,0.5-0.5,1-0.8,1.3c-0.3,0.3-0.6,0.7-0.9,1.2
		c-0.5,0.6-1,1.2-1.6,1.7c-0.6,0.5-1.3,0.9-2.1,1.3c-0.2,0-0.4,0.1-0.7,0c-0.2,0-0.5-0.1-0.7-0.1c-1.1-0.2-2.1-0.8-2.9-1.6
		c-0.3-0.3-0.6-0.7-0.9-0.9c-0.3-0.3-0.6-0.6-0.8-1c-0.2-0.4-0.3-0.8-0.3-1.3c0-0.5-0.1-1-0.3-1.4c0-0.5,0.1-0.9,0.1-1.3
		c0-0.4,0.1-0.8,0.2-1.1c0.2-1,0.4-1.7,0.7-2.3c0.4-0.8,0.9-1.4,1.4-1.9c0.3-0.3,0.5-0.6,0.8-0.8c0.3-0.3,0.5-0.5,0.8-0.8
		c0.3-0.3,0.6-0.5,0.9-0.7c0.3-0.2,0.6-0.5,0.9-0.8c0,0,0.2-0.1,0.4-0.3c0.2-0.1,0.4-0.2,0.5-0.1c0.1,0,0.2,0.2,0.3,0.3
		c0.1,0.1,0.2,0.1,0.2,0.1s0.1,0,0.2,0.1c0.1,0.2,0.1,0.3,0.1,0.3c0,0-0.1,0.1-0.1,0.3c-0.1,0.2-0.2,0.3-0.3,0.3
		c-0.1,0-0.2,0.2-0.5,0.6c-0.3,0.2-0.5,0.5-0.8,0.8c-0.3,0.4-0.6,0.8-0.8,1.4c-0.4,0.6-0.7,1.3-1,2.1c-0.2,0.6-0.3,1.1-0.3,1.6
		c0,0.4,0.1,0.8,0.3,1.2c0.1,0.3,0.1,0.6,0.1,0.9c0,0.4,0,0.7,0.1,0.9c0.1,0.2,0.1,0.3,0.1,0.4c0,0.1,0,0.2,0.1,0.4
		c0.1,0.1,0.2,0.2,0.3,0.3c0,0,0.1,0.2,0.2,0.4c0.6,1.5,1.4,1.2,2.4-0.9c0.3-0.3,0.6-0.9,1-1.7c0.3-0.8,0.7-1.8,1-2.8
		c0.2-0.7,0.4-1.4,0.6-2.1c0.2-0.7,0.3-1.3,0.4-1.9c0.1-0.6,0.1-1.1,0.1-1.5c0-0.4,0-0.7-0.1-0.9l0.6-6.4c0.1-0.2,0.1-0.5,0.1-0.7
		c0-0.3,0-0.5,0-0.7c0.1-0.6,0.2-1.4,0.2-2.1c0-0.8,0.1-1.5,0.2-2.1l0.4-2.7c0-0.4,0.1-0.7,0.1-0.9c0-0.2,0-0.3,0-0.4
		c0-0.1,0-0.2,0.1-0.4c0.1-0.2,0.2-0.5,0.3-1c-0.2,0.1-0.4,0.2-0.5,0.3c-0.1,0.1-0.2,0.2-0.5,0.3c-0.2,0.1-0.3,0.2-0.4,0.2
		c0,0-0.2,0.1-0.4,0.4c-0.2,0.3-0.4,0.5-0.7,0.6c-0.5,0.3-0.8,0.4-0.9,0.5c-0.1,0.1-0.3,0.3-0.7,0.6c-0.2,0.2-0.4,0.4-0.8,0.6
		c-0.3,0.2-0.6,0.3-0.9,0.3c-0.5-0.1-0.7-0.2-0.8-0.5c-0.1-0.2-0.2-0.5-0.4-0.8c-0.1-0.3-0.1-0.4-0.1-0.5c0,0,0.1-0.2,0.3-0.5
		c0-0.1,0.2-0.4,0.5-0.7c0.3-0.3,0.5-0.6,0.6-0.8c0.3-0.3,0.7-0.5,0.9-0.7c0.3-0.2,0.5-0.5,0.8-0.7c0.3-0.2,0.6-0.5,0.9-0.7
		c0.3-0.2,0.8-0.5,1.2-0.7c0.5-0.2,0.8-0.3,1-0.4c0.2-0.1,0.5-0.3,0.8-0.5c0.4-0.3,1-0.5,1.7-0.6c0.7-0.1,1.3-0.2,1.8-0.1
		c0.3,0.1,0.5,0.2,0.5,0.3c0,0.1,0.2,0.2,0.5,0.3c0.3,0.1,0.5,0.1,0.6,0.1c0.1,0,0.1,0,0.1,0c0,0,0,0.1,0,0.1c0,0.1,0,0.2,0.2,0.4
		c0.1,0.2,0.1,0.4,0.1,0.4C41.2,11.4,41.2,11.6,41.2,11.8z"/>
	<path class="st0" d="M59.8,26.5c0,0,0,0.1-0.1,0.3c-0.2,0.3-0.4,0.8-0.7,1.5c-0.3,0.7-0.5,1.2-0.7,1.5c-0.3,0.5-0.5,1-0.7,1.6
		c-0.2,0.5-0.4,1-0.7,1.5c-0.2,0.5-0.4,1.1-0.5,1.7c-0.1,0.7-0.2,1.2-0.4,1.6c-0.3,0.6-0.4,1-0.4,1.3c0,0.3-0.1,0.6-0.2,0.9
		c-0.3,0.3-0.5,0.6-0.6,0.8c-0.1,0.3-0.3,0.5-0.4,0.7c-0.1,0.2-0.3,0.3-0.5,0.4c-0.2,0.1-0.4,0.1-0.7,0c-0.5-0.1-0.8-0.1-0.9-0.2
		c-0.2,0-0.3,0-0.4,0l-0.1-0.1c0,0-0.1-0.1-0.1-0.1c0,0-0.1,0-0.2-0.1c-0.1,0-0.2-0.1-0.2-0.2c0-0.1-0.1-0.2-0.2-0.3l-1.4-1.4
		l0.1-3.1c0-0.1,0-0.3,0.1-0.5c0-0.9,0.1-1.6,0.2-2.3c0-0.6,0.1-1.2,0.1-1.7c0-0.5,0.1-0.8,0.1-0.9c0-0.1,0-0.3,0.1-0.5
		c0,0-0.1,0.1-0.1,0.1c-0.3,0.5-0.6,1-0.8,1.6c-0.2,0.5-0.5,1-0.7,1.5c-0.1,0.3-0.2,0.4-0.2,0.5c0,0,0,0.1-0.1,0.1c0,0,0,0-0.1,0.1
		c0,0-0.1,0.2-0.2,0.3c-0.3,0.6-0.5,1.1-0.8,1.5c-0.3,0.4-0.5,0.8-0.7,1.2c-0.5,0.6-0.9,1.1-1,1.5c-0.2,0.4-0.6,0.6-1.2,0.4
		c-0.4-0.1-0.7-0.1-0.9-0.2c-0.2,0-0.3-0.1-0.3-0.1l-0.1-0.1c-0.1,0-0.1-0.1-0.2,0c0,0-0.1,0-0.2,0c-0.1,0-0.3-0.2-0.5-0.5l-1.2-1.4
		l0.1-3.1c0-0.1,0-0.3,0.1-0.5l0.3-2.3c0.1-0.6,0.2-1.2,0.2-1.7c0-0.5,0.1-0.8,0.1-0.9c0-0.2,0-0.2-0.1,0c-0.1,0.2-0.1,0.2-0.1,0
		c0,0,0.1-0.1,0.1-0.1v-0.2v-0.2c0-0.3,0.1-0.5,0.1-0.7c0-0.1,0-0.3,0-0.5c0-0.1,0.1-0.4,0.1-1c0-0.6,0.1-1,0.2-1.3
		c0.1-0.2,0.1-0.3,0.1-0.3l0.2-0.3l0.3-0.4c0.1-0.2,0.3-0.3,0.5-0.3l1.2,0.1c0.1,0.2,0.2,0.2,0.5,0.2c0.2,0,0.4,0,0.5,0.1
		c0.2,0.1,0.3,0.1,0.4,0.1c0.1,0,0.2,0.2,0.3,0.5c0,0-0.1,0.1-0.1,0.4c0,0.3-0.1,0.5-0.1,0.8c0,0.3-0.1,0.6-0.1,0.9
		c0,0.3,0,0.4,0,0.5c0,0.2-0.1,0.5-0.1,0.8c0,0.3,0,0.6-0.1,0.8c-0.1,0.3-0.1,0.6-0.1,0.7c0,0.1,0,0.4,0,0.8c0,0.2-0.1,0.4-0.2,0.6
		c-0.1,0.2-0.1,0.4-0.1,0.6c0,0.5-0.1,0.9-0.1,1.3c0,0.4,0,0.8,0,1.2c0,0.5,0,0.8,0,0.9s0,0.3,0.1,0.5c0.3-0.2,0.5-0.3,0.5-0.4
		c0-0.1,0.1-0.2,0.4-0.4l0.7-1.1c0.1,0,0.2-0.2,0.2-0.3c0.1-0.2,0.1-0.3,0.2-0.3l0.5-0.8c0,0,0.1-0.2,0.3-0.3
		c0.1-0.1,0.2-0.3,0.3-0.5c0.1-0.2,0.2-0.4,0.4-0.7l0.2-0.4l0.3-0.5c0.2-0.3,0.3-0.4,0.3-0.4c0,0,0.1-0.1,0.2-0.4
		c0.1-0.2,0.3-0.4,0.4-0.7c0.1-0.2,0.2-0.5,0.3-0.7l0.4-0.6c0-0.3,0.1-0.6,0.2-1c0-0.2,0.1-0.3,0.1-0.4c0,0,0.1-0.2,0.3-0.4l0.4-0.5
		c0.1-0.1,0.2-0.2,0.2-0.3c0.1-0.1,0.1-0.1,0.2-0.1l1,0.5c0.2,0.3,0.5,0.5,0.8,0.7c0.3,0.2,0.6,0.6,0.7,1.3c-0.1,0-0.2,0.2-0.3,0.5
		c-0.1,0.3-0.2,0.7-0.2,1.2c0,0.5-0.1,0.9-0.1,1.3c0,0.4-0.1,0.7-0.1,0.8c-0.1,0.3-0.1,0.7-0.1,1c0,0.3,0,0.7-0.1,1.1
		c0,0.2-0.1,0.4-0.2,0.6c-0.1,0.2-0.1,0.4-0.1,0.6c0,0.4-0.1,1-0.2,1.8c-0.1,0.8-0.1,1.3-0.1,1.7v0.1l0.1,0.3c0,0,0-0.1,0.1-0.3
		l0.4-0.6c0.1,0,0.2-0.3,0.4-0.8c0.2-0.5,0.3-0.8,0.4-0.9l0.4-0.8c0,0,0.1-0.2,0.3-0.5c0.1-0.3,0.3-0.8,0.6-1.3
		c0.2-0.3,0.3-0.5,0.5-0.8c0.1-0.3,0.3-0.6,0.5-0.8c0.1-0.3,0.3-0.7,0.6-1.3c0.3-0.6,0.5-1.1,0.6-1.3c0.1-0.1,0.2-0.3,0.2-0.4
		c0.1-0.2,0.1-0.3,0.2-0.4l0.1-0.1c0.1,0,0.2,0,0.3,0.1L59,26l0.1,0.1l0.3,0.1l0.1,0.1C59.7,26.4,59.8,26.4,59.8,26.5z"/>
	<path class="st0" d="M74.7,25.7c0,0,0.2,0.1,0.5,0.1c0.3,0,0.4,0.1,0.4,0.3c0,0.1-0.1,0.2-0.2,0.4c-0.1,0.2-0.2,0.3-0.3,0.4
		c0,0.1-0.1,0.4-0.4,1c-0.3,0.5-0.5,1.2-0.8,1.8c-0.3,0.7-0.7,1.5-1.2,2.6c-0.2,0.3-0.4,0.6-0.5,0.9c-0.1,0.3-0.2,0.6-0.5,0.9
		c-0.3,0.4-0.7,0.8-1,1.2c-0.3,0.4-0.6,0.8-0.9,1.1c-0.8,0.9-1.2,1.4-1.4,1.6c-0.3,1.6-0.5,3-0.7,4.3c-0.2,1.2-0.5,2.3-0.7,3.3
		c-0.2,1-0.4,1.9-0.7,2.6c-0.2,0.8-0.5,1.5-0.8,2.2c0,0.2-0.2,0.4-0.5,0.6c-0.3,0.3-0.6,0.5-1.1,0.7c-0.4,0.2-0.9,0.4-1.4,0.6
		c-0.5,0.2-1,0.2-1.4,0.2c-0.9-0.1-1.7-0.3-2.4-0.7c-0.7-0.4-1.1-0.8-1.1-1.4c0-0.5,0-1,0-1.7c0-0.6,0.1-1.2,0.3-1.7
		c0-0.2,0.2-0.5,0.4-0.9c0.2-0.5,0.4-0.9,0.6-1.4c0.2-0.5,0.4-0.9,0.6-1.4c0.2-0.4,0.3-0.7,0.4-0.9l1-1.4c0.2-0.2,0.3-0.4,0.5-0.6
		c0.2-0.2,0.3-0.3,0.5-0.5c0.4-0.4,0.9-0.8,1.5-1.2c0.3-0.2,0.4-0.3,0.5-0.3c0.1,0,0.2-0.2,0.4-0.4c0.1-0.1,0.3-0.2,0.5-0.3
		c0.2-0.1,0.3-0.2,0.4-0.3c0.1-0.8,0.2-1.5,0.3-2.1c0.1-0.6,0.2-1.1,0.3-1.6c0.1-0.5,0.2-0.8,0.2-1l0.1-0.1l0.1-2.6
		c0-0.1,0.1-0.2,0-0.2c0-0.1,0-0.1,0-0.2c-0.3,0.4-0.5,0.8-0.8,1.3c-0.3,0.5-0.6,0.9-0.9,1.4c-0.3,0.4-0.6,0.8-0.8,1.2
		c-0.2,0.3-0.3,0.6-0.4,0.7c-0.5,0.7-0.9,1.2-1.2,1.7c-0.3,0.4-0.7,1-1.2,1.7c-0.2,0.1-0.4,0.2-0.7,0.3c-0.2,0.1-0.5,0.2-0.8,0.1
		c-0.4-0.1-0.7-0.2-0.9-0.2c-0.2,0-0.4-0.2-0.6-0.6c-0.4-0.6-0.7-1.1-1-1.6c-0.3-0.5-0.4-1-0.5-1.7c0-0.6-0.1-1.1-0.1-1.6
		c0-0.5,0.1-1,0.2-1.4c0.2-0.5,0.4-1,0.6-1.7c0.2-0.6,0.5-1.3,0.8-1.9c0.3-0.7,0.6-1.3,0.9-1.8c0.3-0.6,0.7-1,1-1.4
		c0.3-0.3,0.7-0.7,1-0.9c0.3-0.3,0.7-0.6,1.1-0.9c0.5-0.4,1-0.7,1.4-0.7c0.4-0.1,1,0,1.8,0.2c0.4,0.1,1,0.2,1.8,0.4
		c0.7,0.2,1.2,0.5,1.5,0.8c0.2,0.2,0.3,0.5,0.5,0.8c0.1,0.3,0,0.4-0.5,0.4c-0.6-0.3-1.1-0.3-1.5-0.3c-0.3,0.1-0.9,0.2-1.8,0.4
		c-0.4,0.1-0.7,0.4-0.9,0.8c0,0.1-0.2,0.3-0.4,0.5c-0.2,0.3-0.4,0.4-0.5,0.5c-0.2,0.2-0.5,0.6-0.9,1.4c-0.4,0.8-0.8,1.6-1.3,2.5
		c-0.4,0.9-0.8,1.8-1.1,2.6c-0.3,0.8-0.4,1.3-0.4,1.6c1.1-0.8,2-1.6,2.8-2.6c0.7-1,1.5-2,2.4-3.1c0.2-0.2,0.4-0.6,0.7-1.1
		c0.3-0.5,0.6-0.9,0.8-1c0-0.1,0.1-0.1,0.1-0.2c0,0,0.1-0.1,0.1-0.1c0,0,0.1-0.1,0.1-0.1c0.2-0.1,0.4-0.2,0.6-0.2c0.2,0,0.4,0,0.6,0
		c0.3,0,0.6-0.1,0.9-0.2c0.3-0.1,0.5,0,0.8,0.4c0,0,0.1,0.2,0.2,0.5c0,0.1,0.1,0.1,0.1,0c0-0.1,0,0,0,0.3v0.3c0,0.2-0.1,0.4,0,0.6
		c0,0.2,0,0.5,0,0.7c0,0.2,0,0.4-0.1,0.6c0,0.2-0.1,0.4-0.1,0.7c0,0.2-0.1,0.5-0.1,0.7c0,0.3-0.1,0.5-0.1,0.7c0,0.2-0.1,0.3,0,0.5
		c0,0.2,0,0.4,0,0.6c0,0.2-0.1,0.3-0.1,0.5c0,0.2-0.1,0.3-0.1,0.5c-0.1,0.5-0.1,0.8-0.1,1.1c0,0.3,0,0.5-0.1,0.7
		c0.2-0.1,0.4-0.3,0.6-0.7c0.2-0.4,0.4-0.6,0.6-0.7c0,0,0.1-0.1,0.1-0.1c0,0,0.1,0,0.1-0.1c0.2-0.1,0.4-0.5,0.7-1
		c0.1-0.2,0.2-0.4,0.4-0.6c0.2-0.2,0.3-0.4,0.4-0.6c0.1-0.2,0.2-0.4,0.3-0.6c0.1-0.2,0.2-0.4,0.3-0.6c0.2-0.4,0.3-0.7,0.5-1.1
		c0.2-0.4,0.3-0.7,0.5-1c0.2-0.3,0.3-0.5,0.3-0.7c0-0.2,0.1-0.4,0.3-0.5c0,0,0.1-0.1,0.2-0.3c0.1-0.1,0.2-0.2,0.2-0.3
		C74.5,25.7,74.6,25.6,74.7,25.7z M64,43.8c0.1-0.3,0.2-0.7,0.3-1.4c0.1-0.6,0.1-1.1,0.1-1.4c-0.3,0.1-0.6,0.3-0.9,0.5
		c-0.3,0.3-0.6,0.6-0.9,0.9c-0.1,0.1-0.2,0.3-0.4,0.4c-0.2,0.1-0.3,0.3-0.4,0.5c-0.2,0.4-0.4,0.8-0.5,1.1c-0.1,0.2-0.2,0.6-0.2,1.3
		c-0.1,0.6-0.1,1-0.2,1.3c-0.1,0.2-0.2,0.4-0.3,0.6c-0.1,0.2-0.1,0.3-0.1,0.6c0,0.1,0.1,0.3,0.1,0.4s0,0.3,0.1,0.5
		c0.1,0.4,0.2,0.7,0.2,0.9c0.1,0.2,0.3,0.2,0.6,0c0.7-0.3,1.1-0.7,1.2-1.1c0.1-0.4,0.3-1,0.6-1.8c0-0.1,0.1-0.3,0.1-0.6
		c0-0.3,0.1-0.6,0.2-0.9s0.1-0.6,0.2-0.9C63.9,44.2,63.9,44,64,43.8z"/>
	<path class="st0" d="M90.8,26.2v0.1l-0.3,0.5c-0.2,0.5-0.4,1.1-0.5,1.9c-0.1,0.3-0.2,0.7-0.2,0.9c-0.1,0.3-0.1,0.5-0.2,0.7
		c-0.1,0.2-0.2,0.6-0.3,1c-0.1,0.5-0.3,1-0.5,1.6c-0.1,0.4-0.2,0.8-0.3,1.2c-0.1,0.4-0.2,0.8-0.3,1.2c-0.2,0.5-0.3,1-0.5,1.4
		c-0.1,0.4-0.2,0.6-0.3,0.8c0,0.1-0.1,0.2-0.3,0.4c-0.2,0.2-0.3,0.4-0.5,0.6c-0.2,0.2-0.4,0.4-0.6,0.6c-0.2,0.2-0.3,0.3-0.4,0.4
		c-0.1,0.1-0.4,0.1-0.9,0c-0.5-0.1-0.8-0.2-1-0.3c-0.4-0.1-0.7-0.2-0.8-0.2c-0.1,0-0.3-0.2-0.5-0.6c-0.2-0.3-0.4-0.6-0.5-0.7
		c-0.1-0.2-0.2-0.4-0.3-0.6c-0.2-0.3-0.2-0.7-0.2-1.1c0-0.4,0.1-0.9,0.2-1.3c0-0.2,0-0.4,0-0.7c0-0.2-0.1-0.5-0.1-0.7
		c0-0.2,0-0.4,0.1-0.6s0.1-0.4,0.1-0.6c0-0.3,0.1-0.7,0.1-1c0-0.3,0.1-0.6,0.1-0.8c0-0.2,0-0.4,0-0.6c0-0.2,0.1-0.3,0.1-0.5
		c-0.1,0.1-0.3,0.3-0.5,0.5c-0.2,0.3-0.4,0.6-0.6,0.9c-0.2,0.3-0.5,0.6-0.6,0.9c-0.2,0.3-0.3,0.5-0.4,0.6c-0.5,0.7-0.8,1.2-1.1,1.7
		c-0.3,0.4-0.6,1-1.1,1.7c-0.2,0.1-0.4,0.2-0.7,0.3c-0.2,0.1-0.5,0.2-0.8,0.1c-0.4-0.1-0.7-0.2-0.9-0.2c-0.2,0-0.4-0.2-0.7-0.6
		c-0.4-0.6-0.8-1.1-1.1-1.6c-0.3-0.5-0.5-1-0.6-1.7c-0.1-0.5-0.2-1-0.2-1.5c0-0.5,0-1,0.1-1.5c0.3-1,0.5-1.8,0.8-2.7
		c0.3-0.8,0.7-1.6,1.4-2.3c0.3-0.4,0.6-0.7,0.9-1c0.3-0.3,0.6-0.6,1-0.9c0.5-0.4,1-0.7,1.4-0.8c0.4-0.1,1,0,1.8,0.2
		c0.4,0.1,1,0.3,1.7,0.5c0.8,0.2,1.3,0.5,1.6,0.8c0.2,0.2,0.3,0.5,0.5,0.8c0.1,0.3,0,0.4-0.5,0.4c-0.7-0.3-1.2-0.3-1.5-0.3
		c-0.3,0.1-0.9,0.2-1.7,0.4c-0.2,0.1-0.4,0.2-0.6,0.3c-0.2,0.1-0.3,0.3-0.4,0.5c0,0.1-0.1,0.3-0.3,0.5c-0.2,0.3-0.4,0.4-0.5,0.5
		c-0.1,0.2-0.3,0.5-0.6,1.1c-0.3,0.6-0.6,1.2-0.8,1.9c-0.3,0.7-0.5,1.3-0.7,1.9c-0.2,0.6-0.2,1-0.2,1.3c0.5-0.4,1-0.8,1.4-1.1
		c0.4-0.3,0.7-0.7,1-1.1c0.3-0.4,0.6-0.8,0.9-1.2c0.3-0.4,0.6-0.9,1-1.4c0.2-0.2,0.4-0.4,0.6-0.6c0.2-0.2,0.4-0.4,0.6-0.6
		c0.3-0.3,0.6-0.5,0.8-0.4c0.2,0.1,0.5,0.2,1.1,0.3c0.4,0.1,0.6,0.2,0.8,0.2c0.1,0.1,0.2,0.1,0.3,0.2c0.1,0.1,0.1,0.2,0.2,0.4
		c0.1,0.2,0.3,0.3,0.5,0.5c0.3,0.2,0.5,0.5,0.5,0.8c0,0.3,0.1,0.6,0.1,0.9c-0.1,0.1-0.1,0.2-0.1,0.5c0,0.2,0,0.5-0.1,0.7
		c-0.1,0.3-0.1,0.7-0.2,1.1c0,0.4-0.1,0.8-0.2,1.2c-0.1,0.4-0.2,0.8-0.2,1.2c0,0.4-0.1,0.8-0.2,1.1c0,0.3-0.1,0.7-0.1,1
		c0,0.3,0,0.6-0.1,0.8c0.1-0.1,0.3-0.3,0.6-0.7c0.2-0.4,0.5-0.9,0.7-1.5c0.1-0.2,0.2-0.5,0.3-0.7c0.1-0.3,0.2-0.5,0.3-0.8
		c0.1-0.3,0.3-0.5,0.4-0.8c0.1-0.3,0.2-0.5,0.3-0.8c0.1-0.3,0.2-0.5,0.4-0.7c0.2-0.2,0.3-0.5,0.4-0.7c0.1-0.2,0.2-0.4,0.3-0.7
		c0.1-0.2,0.2-0.5,0.3-0.7c0.2-0.3,0.3-0.6,0.4-0.8c0.1-0.2,0.1-0.4,0.2-0.5c0.1-0.3,0.2-0.6,0.3-0.8c0.1-0.2,0.1-0.4,0.2-0.6
		c0,0,0-0.1,0-0.1c0,0,0,0,0-0.1h0.1c0.1,0,0.2,0,0.2,0.1l0.1-0.1l0.1,0.1c0.1,0,0.2,0,0.4,0.1h0.1L90.8,26.2L90.8,26.2z"/>
	<path class="st0" d="M116.2,26c0,0,0,0.1,0,0.2c0,0.1,0,0.2,0,0.3c-0.1,0.2-0.1,0.3-0.1,0.5c-0.1,0.3-0.2,0.7-0.4,1
		c-0.2,0.3-0.3,0.7-0.4,1c-0.1,0.3-0.2,0.5-0.4,0.8c-0.2,0.3-0.2,0.6-0.3,0.8c0,0.2-0.1,0.3-0.2,0.5c-0.1,0.2-0.1,0.3-0.2,0.5
		l-0.8,3.4c0,0.1-0.1,0.3-0.2,0.7c-0.2,0.4-0.3,0.8-0.5,1.3c-0.2,0.5-0.3,0.9-0.5,1.3c-0.2,0.4-0.3,0.7-0.3,0.8
		c-0.1,0.3-0.2,0.5-0.3,0.8c-0.1,0.3-0.2,0.5-0.3,0.7c-0.2,0.3-0.3,0.6-0.3,0.8c0,0.2-0.2,0.4-0.5,0.7c-0.2,0.2-0.3,0.5-0.5,0.8
		c-0.2,0.3-0.4,0.6-0.6,0.6c-0.2,0.1-0.5,0-0.9-0.2c-0.4-0.2-0.7-0.3-1-0.4c-0.2,0-0.5-0.2-0.9-0.6c-0.4-0.4-0.6-0.6-0.7-0.7
		c-0.1-0.1-0.1-0.3-0.1-0.5c0-0.3,0-0.5-0.2-0.7c-0.1-0.3-0.2-0.5-0.1-0.7c0.1-0.2,0.1-0.4,0.1-0.7c0-0.1-0.1-0.4-0.1-0.8v-0.7
		c0-0.1,0.1-0.3,0.1-0.6c0-0.1,0-0.2,0-0.3c0-0.1,0-0.2,0-0.3c0-0.3,0-0.5,0.1-0.8c0.1-0.3,0.1-0.6,0.2-0.9c0-0.1,0-0.3,0-0.4
		c0-0.1,0-0.3,0-0.4c0,0,0-0.2,0.1-0.5c0.1-0.3,0.1-0.6,0.2-0.9c0.1-0.3,0.1-0.6,0.2-0.9c0.1-0.3,0.1-0.4,0.1-0.5
		c0-0.1,0.1-0.3,0-0.4c0-0.1,0-0.3,0-0.5c0-0.1,0.1-0.2,0.1-0.4c0-0.2,0.1-0.3,0.1-0.4c0-0.1,0-0.3,0-0.4c0-0.1-0.1-0.3-0.1-0.4
		c0-0.1,0.1-0.2,0.1-0.3c0-0.1,0-0.2,0.1-0.3c0-0.1,0.1-0.3,0.1-0.4s0-0.3,0.1-0.4c0-0.1,0.1-0.2,0.1-0.3c0-0.1,0-0.2,0.1-0.3
		c0-0.2,0-0.3-0.1-0.5c-0.1-0.1-0.2-0.2-0.1-0.3c-0.2,0.1-0.3,0.2-0.5,0.3c-0.2,0.1-0.3,0.2-0.4,0.3c-0.2,0.1-0.3,0.2-0.5,0.3
		c-0.1,0.1-0.3,0.2-0.4,0.3c-0.2,0.2-0.4,0.4-0.6,0.6c-0.2,0.2-0.3,0.4-0.5,0.7c-0.1,0.1-0.2,0.2-0.3,0.2c-0.1,0.1-0.2,0.1-0.3,0.2
		c-0.1,0.1-0.2,0.2-0.2,0.4c0,0.1-0.1,0.2-0.2,0.4c-0.1,0.2-0.3,0.4-0.4,0.6c-0.2,0.2-0.3,0.5-0.5,0.8c-0.1,0.2-0.3,0.5-0.5,1.1
		c-0.2,0.6-0.4,1.1-0.6,1.5c-0.1,0.3-0.2,0.7-0.2,1c0,0.3-0.1,0.6-0.1,0.8c0,0.1,0,0.3-0.1,0.6c0,0.3-0.1,0.5-0.1,0.7l-0.1,0.3
		l-0.3,0.1l-0.2,0.1l-0.4,0.1l-0.3-0.1h-0.3c-0.3,0.1-0.5,0.2-0.6,0.2c-0.1,0-0.3,0-0.6,0L97.6,38c-0.2-0.1-0.3-0.2-0.3-0.3
		c0-0.1,0-0.2,0-0.5v-0.7c0-0.1,0-0.2,0-0.3c0-0.1,0-0.2,0-0.3c0-0.1,0-0.2,0-0.3c0-0.1,0-0.2,0-0.3c0-0.3,0.1-0.7,0.2-1.3
		c0.1-0.6,0.2-1.1,0.2-1.4c0.1-0.3,0.1-0.6,0.1-0.8c0,0,0-0.2,0.1-0.5c0.1-0.3,0.1-0.6,0.2-0.9c0.1-0.3,0.1-0.6,0.2-0.9
		c0.1-0.3,0.1-0.4,0.1-0.5c0-0.2,0.1-0.3,0-0.4c0-0.1,0-0.2,0-0.4c0-0.1,0-0.2,0.1-0.4c0-0.2,0.1-0.3,0.1-0.4c0-0.1,0-0.3,0-0.4
		s-0.1-0.3,0-0.4c0-0.1,0-0.3,0.1-0.6c0-0.3,0-0.5,0.1-0.8c0-0.1,0-0.2,0-0.3c0-0.1,0-0.2,0-0.3c0-0.2,0-0.3-0.1-0.5
		c-0.1-0.1-0.2-0.2-0.2-0.3c-0.2,0.1-0.3,0.2-0.5,0.3c-0.1,0.1-0.3,0.2-0.4,0.3c-0.2,0.1-0.3,0.2-0.5,0.3c-0.1,0.1-0.3,0.2-0.4,0.3
		c-0.3,0.2-0.5,0.4-0.6,0.7c-0.1,0.2-0.3,0.4-0.5,0.6c-0.1,0.1-0.2,0.2-0.3,0.2c-0.1,0.1-0.2,0.1-0.3,0.2c-0.1,0.2-0.3,0.5-0.5,0.7
		c-0.1,0.2-0.2,0.4-0.4,0.6c-0.2,0.2-0.3,0.5-0.6,0.7c-0.1,0.1-0.2,0.3-0.3,0.6c-0.1,0.3-0.2,0.6-0.3,0.9c-0.1,0.3-0.2,0.6-0.4,0.9
		c-0.1,0.3-0.2,0.5-0.3,0.6c-0.1,0.3-0.3,0.7-0.4,1.3c-0.1,0.2-0.1,0.5-0.2,0.7c0,0.3-0.1,0.5-0.1,0.7c0,0.1-0.1,0.2-0.1,0.4
		c0,0.1-0.1,0.2-0.1,0.4c0,0.1,0,0.3,0,0.4c0,0.1,0.1,0.2,0.1,0.3c0,0.3-0.1,0.7-0.2,1.2c-0.1,0.5-0.1,0.8-0.1,1
		c0,0.1-0.1,0.1-0.2,0c-0.1-0.1-0.2-0.1-0.3,0c-0.1,0.1-0.2,0.1-0.3,0c0-0.1-0.2-0.1-0.3-0.1c-0.3,0-0.6,0-0.9,0
		c-0.1,0-0.2-0.1-0.3-0.1c-0.1,0-0.2,0-0.3-0.1c-0.2-0.1-0.3-0.1-0.5-0.2c-0.1,0-0.2-0.2-0.3-0.4c-0.1-0.1-0.1-0.4-0.1-0.7
		c0-0.3,0-0.6,0-0.8c0-0.3,0-0.6,0.1-0.8c0-0.3,0.1-0.5,0.1-0.8c0-0.3,0.1-0.5,0.1-0.8c0-0.4,0.1-0.8,0.1-1.2c0-0.4,0.1-0.8,0.1-1.3
		c0-0.1,0-0.3,0-0.7c0-0.3,0.1-0.6,0.1-1v-0.4c0-0.5,0.1-0.9,0.2-1.3v-0.2v-0.1v-0.2c0-0.1,0-0.2,0.1-0.3c0.1-0.2,0.1-0.3,0.1-0.5
		c0-0.5,0-0.9,0.1-1.2c0-0.3,0.1-0.6,0.2-1c0.1-0.3,0.1-0.7,0.2-1.1s0.1-0.9,0.2-1.4v-0.3c0-0.1,0.1-0.2,0.2-0.2
		c0.2-0.1,0.3-0.1,0.5-0.2c0.2-0.1,0.4-0.1,0.6-0.1c0.2,0,0.3,0,0.4,0c0.3,0,0.4,0,0.3,0.1c0,0.1,0,0.1,0.3,0c0,0,0.1,0,0.2,0
		c0.1,0,0.2,0,0.2,0c0.2,0,0.3,0,0.4,0.2c0,0.2,0.1,0.2,0.4,0.2c0.3,0,0.3,0.2,0.3,0.6v0.3c0,0.3-0.1,0.5-0.1,0.7s0,0.4,0,0.7
		l-0.1,0.6c0,0.1,0,0.2,0,0.3c0,0.1,0,0.2,0,0.3c-0.1,0.3-0.1,0.6-0.1,0.7c0,0.2,0,0.4-0.1,0.9v-0.1c0.1-0.1,0.1-0.2,0.2-0.3
		c0-0.1,0.1-0.3,0.2-0.4c0.1-0.1,0.2-0.2,0.2-0.3s0.1-0.3,0.2-0.4c0.1-0.1,0.3-0.3,0.5-0.6c0.1-0.2,0.2-0.3,0.4-0.4
		c0.1,0,0.2-0.2,0.4-0.4c0.1-0.1,0.2-0.2,0.2-0.3c0.1-0.1,0.1-0.2,0.2-0.3c0.2-0.2,0.3-0.3,0.5-0.4c0.2-0.1,0.3-0.2,0.5-0.4
		c0.1-0.1,0.2-0.2,0.3-0.3c0.1-0.1,0.2-0.2,0.3-0.3c0.2-0.2,0.4-0.3,0.6-0.5c0.5-0.3,0.8-0.5,0.9-0.7c0.1-0.2,0.5-0.2,1.1,0
		c0.1,0,0.3,0.1,0.6,0.1c0.3,0,0.5,0.1,0.8,0.2c0.3,0.1,0.5,0.1,0.7,0.2c0.2,0.1,0.3,0.2,0.4,0.3c0.1,0.3,0.2,0.5,0.3,0.7
		c0.1,0.2,0.1,0.3,0.2,0.4c0,0.1,0,0.2,0,0.4c0,0.1-0.1,0.3-0.1,0.6l-0.2,0.8c0,0.1-0.1,0.2,0,0.4c0,0.1,0,0.2,0,0.4
		c0,0.1,0,0.2,0,0.3c0,0.1,0,0.3,0,0.4c0,0.2,0,0.5-0.1,0.8c0,0.2-0.1,0.3-0.1,0.5c0,0.2,0,0.3-0.1,0.5c0.1-0.1,0.2-0.2,0.2-0.3
		c0.2-0.3,0.3-0.5,0.5-0.6c0.1-0.2,0.2-0.3,0.3-0.4c0.1,0,0.2-0.2,0.3-0.4c0.1-0.1,0.2-0.2,0.3-0.3c0.1-0.1,0.2-0.2,0.3-0.3
		c0.1-0.2,0.3-0.4,0.5-0.5c0.2-0.1,0.3-0.2,0.5-0.4c0.2-0.1,0.4-0.3,0.6-0.6c0.1-0.1,0.2-0.2,0.4-0.3c0.1-0.1,0.2-0.2,0.3-0.3
		c0.5-0.3,0.8-0.5,0.9-0.7c0.1-0.2,0.5-0.2,1.1,0c0.1,0,0.3,0.1,0.6,0.1c0.3,0,0.5,0.1,0.8,0.2c0.3,0.1,0.5,0.1,0.7,0.2
		c0.2,0.1,0.3,0.2,0.4,0.3c0.1,0.3,0.2,0.5,0.3,0.7c0.1,0.2,0.1,0.3,0.2,0.4c0,0.1,0,0.2,0,0.4c0,0.1-0.1,0.3-0.2,0.6l-0.2,0.8
		c0,0.1,0,0.2,0,0.4c0,0.1,0,0.2,0,0.4c0,0.1-0.1,0.2,0,0.4c0,0.1,0,0.2,0,0.4c0,0.1-0.1,0.3-0.1,0.4c0,0.2-0.1,0.3-0.1,0.4
		c0,0.2-0.1,0.4-0.1,0.6c0,0.2,0,0.4-0.1,0.6c0,0.2-0.1,0.4-0.1,0.7c0,0.2-0.1,0.5-0.1,0.7c0,0,0,0.2-0.1,0.5
		c-0.1,0.3-0.1,0.6-0.2,0.9c0,0.3-0.1,0.6-0.2,0.9c-0.1,0.3-0.1,0.4-0.1,0.5c0,0.1,0,0.2,0,0.3c0,0.1,0,0.2,0,0.4
		c-0.1,0.3-0.2,0.7-0.3,1.1c-0.1,0.4-0.2,0.8-0.3,1.1c0,0.1,0,0.3,0,0.4c0,0.1,0,0.2,0,0.3c0,0.1-0.1,0.3-0.1,0.4
		c0,0.2,0,0.3-0.1,0.4c0,0.2-0.1,0.3-0.1,0.5c0,0.2,0,0.3-0.1,0.5c0,0.2,0,0.2,0,0.1c0-0.1,0-0.1,0,0.1c-0.1,0.3-0.1,0.5,0.1,0.5
		c0.1,0,0.1,0,0.1-0.1c0-0.1,0-0.2,0.2-0.3c0.2-0.1,0.3-0.2,0.3-0.3c0-0.1,0.1-0.3,0.2-0.4c0-0.1,0.1-0.1,0.1-0.2c0,0,0-0.1,0.1-0.2
		c0.1-0.1,0.1-0.2,0.1-0.3c0-0.1,0-0.1,0.1-0.2c0.1-0.2,0.2-0.4,0.3-0.5c0.1-0.1,0.1-0.3,0.2-0.5c0.1-0.2,0.2-0.4,0.3-0.6
		c0.1-0.2,0.2-0.4,0.3-0.6c0.1-0.3,0.2-0.5,0.3-0.8c0.1-0.3,0.2-0.6,0.3-0.8c0-0.1,0.1-0.3,0.2-0.6c0.1-0.3,0.2-0.6,0.3-1
		c0.1-0.3,0.2-0.7,0.3-1c0.1-0.3,0.2-0.5,0.2-0.6c0.1-0.3,0.2-0.7,0.4-0.9c0.2-0.3,0.3-0.6,0.4-0.9c0.1-0.2,0.2-0.5,0.3-0.7
		c0.1-0.3,0.2-0.5,0.3-0.6c0.1-0.2,0.2-0.4,0.2-0.6c0.1-0.2,0.1-0.4,0.2-0.6c0.1-0.2,0.2-0.4,0.3-0.6c0.1-0.2,0.1-0.4,0.2-0.5
		c0,0,0.1-0.1,0.2-0.1c0.1,0,0.2-0.1,0.2-0.1c0,0,0.1,0.1,0.1,0.1c0,0,0.1,0,0.1,0c0,0,0.1,0,0.1,0l0.3,0.1
		C116.2,25.9,116.2,25.9,116.2,26z"/>
	<path class="st0" d="M131.1,26.1c0,0,0,0.1-0.1,0.2c0,0.1-0.1,0.2-0.1,0.3c0,0.1-0.1,0.2-0.1,0.3c-0.1,0.2-0.2,0.5-0.2,0.8
		c-0.1,0.3-0.2,0.6-0.4,1c-0.1,0.2-0.2,0.5-0.4,0.7c-0.2,0.3-0.3,0.5-0.4,0.8c-0.2,0.3-0.3,0.5-0.5,0.8c-0.2,0.3-0.3,0.5-0.5,0.8
		c-0.1,0.2-0.2,0.4-0.3,0.6c-0.1,0.2-0.2,0.3-0.3,0.5c-0.1,0.2-0.3,0.3-0.4,0.5c-0.1,0.2-0.3,0.3-0.4,0.4c-0.3,0.3-0.6,0.5-0.9,0.6
		c-0.2,0-0.4,0.1-0.6,0.3c-0.2,0.2-0.4,0.2-0.5,0.3c-0.1,0.1-0.3,0.3-0.5,0.6c-0.3,0.3-0.6,0.7-0.9,1c-0.3,0.3-0.7,0.6-1,0.9
		c-0.3,0.3-0.6,0.4-0.8,0.4c-0.5,0.1-0.8,0.2-1,0.2c-0.2,0.1-0.4,0.1-0.6,0.1c-0.2,0-0.4,0-0.7,0c-0.3,0-0.6,0-0.9-0.1
		c-0.2,0-0.5-0.1-0.8-0.2c-0.3-0.1-0.6-0.1-0.9-0.2c-0.3-0.1-0.6-0.2-0.8-0.4c-0.2-0.2-0.4-0.3-0.6-0.6c-0.1-0.2-0.3-0.5-0.4-1
		c-0.2-0.4-0.3-0.8-0.6-1.1c0-0.1-0.1-0.3-0.2-0.5c-0.1-0.3-0.1-0.4-0.1-0.5c0-0.2-0.1-0.5-0.1-0.9c0-0.4,0-0.8,0-1.3s0-0.9,0-1.3
		c0-0.4,0.1-0.7,0.1-0.9c0-0.2,0.1-0.4,0.1-0.6c0-0.2,0-0.4,0-0.6c0-0.1,0-0.2,0.1-0.2s0.1-0.1,0.1-0.2c0-0.1,0-0.1,0-0.1
		c0,0,0,0,0-0.1c0.1-0.4,0.2-0.8,0.3-1c0.1-0.2,0.2-0.6,0.5-0.9c0.1-0.2,0.2-0.4,0.3-0.4s0.2-0.2,0.3-0.4c0-0.2,0.1-0.3,0.3-0.5
		c0.2-0.3,0.5-0.5,0.7-0.7c0.2-0.1,0.4-0.2,0.6-0.3c0.2-0.1,0.4-0.2,0.6-0.4c0.2-0.1,0.3-0.1,0.4-0.1c0.1,0,0.3,0,0.6,0.1
		c0.5,0,0.8,0.1,1.1,0.1c0.2,0,0.6,0.1,1.1,0.2c0.3,0.1,0.5,0.1,0.4,0.1c-0.1,0,0,0,0.2,0.1l0.1,0.1c0.1,0,0.2,0,0.4,0
		c0.1,0,0.2-0.1,0.3-0.1c0.4-0.2,0.7-0.2,1-0.2c0.3,0,0.6,0.1,0.8,0.3c0.2,0.2,0.4,0.4,0.6,0.6c0.1,0.1,0.2,0.2,0.3,0.4
		c0,0.1,0.1,0.2,0.2,0.2c0.3,0.2,0.5,0.6,0.7,1.1c0.1,0.2,0.2,0.5,0.2,0.7c0,0.3,0.1,0.5,0.2,0.8c0,0.2,0.1,0.4,0.1,0.6
		c0,0.2,0,0.4,0,0.7c0,0.1,0,0.3,0,0.6c0,0.3-0.1,0.7-0.1,1.1c0,0.4-0.1,0.9-0.3,1.6c-0.1,0.2-0.2,0.4-0.3,0.5
		c0,0.1-0.1,0.2-0.2,0.5c0.2-0.1,0.3-0.2,0.4-0.4c0.1-0.2,0.3-0.4,0.5-0.6c0.1-0.2,0.3-0.3,0.4-0.5c0.1-0.1,0.3-0.3,0.5-0.5
		c0.1-0.1,0.2-0.3,0.3-0.4c0.1-0.1,0.2-0.3,0.3-0.5c0.1-0.2,0.2-0.4,0.3-0.6c0.1-0.2,0.2-0.4,0.3-0.6c0.1-0.2,0.2-0.3,0.3-0.5
		c0.1-0.2,0.2-0.3,0.3-0.4c0.1-0.2,0.1-0.3,0.2-0.5c0-0.2,0.1-0.3,0.2-0.4c0-0.1,0.1-0.2,0.1-0.3c0-0.1,0.1-0.2,0.1-0.3
		c0.1-0.1,0.1-0.2,0.1-0.2c0,0,0.1,0,0.2,0c0.2,0,0.3-0.1,0.3,0c0,0,0.1,0.1,0.3,0.2L131.1,26.1z M121.8,34.1
		c0.1-0.1,0.2-0.2,0.2-0.3c0-0.1,0.1-0.2,0.2-0.3c-0.2-0.2-0.4-0.5-0.6-1c-0.2-0.5-0.3-1-0.5-1.5c-0.2-0.5-0.3-1.1-0.3-1.7
		c0-0.6,0-1.1,0.1-1.4v-0.1c0-0.4,0.1-1,0.1-1.8c0-0.7,0.2-1.4,0.6-2c-0.1,0-0.2,0.1-0.2,0.2c0,0.1-0.1,0.1-0.1,0
		c-0.4,0-0.9,0.1-1.3,0.4c-0.4,0.3-0.7,0.6-0.9,0.9c-0.2,0.1-0.3,0.2-0.4,0.4c0,0.1,0,0.2,0,0.3c0,0.1,0,0.2-0.1,0.3
		c0,0.1-0.2,0.2-0.5,0.4c0,0.1,0,0.3-0.1,0.6c-0.1,0.3-0.1,0.6-0.1,1c0,0.4-0.1,0.8-0.2,1.3c-0.1,0.5-0.1,1-0.1,1.5
		c0,0.6,0,1.1,0,1.7c0,0.5,0,0.9,0.1,1.1c0.1,0.1,0.2,0.2,0.2,0.3c0,0.1,0,0.2,0.1,0.3c0,0,0.1,0.1,0.2,0.1c0.1,0,0.2,0.2,0.3,0.5
		c0.1,0.2,0.2,0.3,0.4,0.3c0.1,0,0.4-0.1,0.7-0.1l0.8-0.1l0.8-0.6c0.1-0.1,0.2-0.2,0.3-0.3C121.5,34.3,121.7,34.2,121.8,34.1z
		 M124.6,27.4c0-0.1,0.1-0.3,0.1-0.4l-0.3-1.6c0,0,0-0.1-0.1-0.2c-0.1,0-0.1,0-0.2-0.2c0-0.2-0.1-0.4-0.1-0.5
		c-0.2,0-0.4,0.1-0.7,0.2c-0.1,0.2-0.3,0.6-0.4,1.2c-0.1,0.6-0.2,1.1-0.2,1.8v0.1c0,0.2,0,0.5,0.1,0.9c0.1,0.4,0.2,0.8,0.4,1.3
		c0.1,0.3,0.2,0.6,0.2,0.8c0,0.3,0.1,0.5,0.2,0.7c0,0,0.1-0.1,0.1-0.1c0-0.1,0.1-0.3,0.2-0.6c0.1-0.3,0.2-0.6,0.3-0.9
		c0.1-0.3,0.2-0.6,0.2-0.9c0.1-0.3,0.1-0.5,0.1-0.6L124.6,27.4z"/>
	<path class="st0" d="M142.6,26.2c0.1,0.1,0.2,0.2,0.1,0.2c0,0-0.1,0.2-0.2,0.3c0,0.1-0.1,0.2-0.1,0.3c0,0.1,0,0.2-0.1,0.4
		c-0.1,0.1-0.1,0.2-0.1,0.4c0,0.2,0,0.3-0.1,0.4c-0.1,0.2-0.2,0.4-0.3,0.6c-0.1,0.2-0.2,0.4-0.3,0.5c-0.3,0.5-0.5,0.8-0.6,0.8
		c-0.1,0-0.3,0.2-0.5,0.5c-0.3,0.3-0.5,0.5-0.6,0.6c-0.3,0.3-0.5,0.5-0.6,0.6c0,0.2-0.1,0.3-0.2,0.4c-0.3,0.1-0.5,0.2-0.6,0.3
		c-0.1,0.1-0.3,0.2-0.4,0.3c0,0-0.1,0.1-0.1,0.1c0,0,0.2,0.3,0.4,0.7c0.2,0.5,0.3,0.7,0.3,0.7c0.2,0.4,0.3,0.8,0.3,1.1
		c0,0.5-0.1,0.9-0.2,1.4c-0.2,0.5-0.2,0.7-0.1,0.8c-0.4,1.2-1,2-1.6,2.5c-0.7,0.5-1.1,0.8-1.4,0.9c-0.2,0.1-0.4,0.2-0.8,0.3
		c-0.4,0.1-0.6,0.1-0.8,0.1c-0.1,0-0.3,0-0.5,0.1c-0.2,0.1-0.4,0.2-0.7,0.2c-0.3,0-0.6,0-1,0c-0.4,0-0.8-0.2-1.4-0.4
		c-0.1,0-0.3-0.3-0.7-0.6s-0.6-0.6-0.7-0.7c-0.2-0.3-0.3-0.6-0.4-0.8c-0.1-0.3-0.1-0.6-0.1-0.9c0.1-0.7,0.4-1.3,0.8-2
		c0.5-0.8,1.1-1.6,1.9-2.2c0.8-0.6,1.5-1.1,2.3-1.4c-0.1-0.2-0.3-0.5-0.6-0.8c-0.3-0.3-0.5-0.8-0.8-1.2c-0.1-0.2-0.2-0.4-0.3-0.6
		c-0.1-0.2-0.2-0.4-0.3-0.6c-0.2-0.3-0.4-0.7-0.6-1c-0.2-0.3-0.3-0.6-0.5-0.9c-0.2-0.3-0.4-0.7-0.5-0.9c-0.1-0.3-0.2-0.5-0.3-0.6
		c0-0.2,0-0.5,0-0.7c0-0.3,0.1-0.6,0.1-0.9c0-0.1,0-0.2,0-0.3c0-0.1,0-0.2,0-0.3c0-0.1,0.1-0.2,0.1-0.3s0-0.3,0.1-0.4
		c0.1-0.2,0.2-0.4,0.3-0.6c0.1-0.2,0.2-0.4,0.3-0.6c0.2-0.4,0.4-0.8,0.7-1.1c0.2-0.3,0.6-0.5,1.1-0.7c0.4-0.1,1-0.2,1.6-0.2
		c0.5,0,1.1,0.1,1.8,0.2c0.7,0.1,1.3,0.2,1.8,0.4c0.2,0.1,0.5,0.3,0.7,0.6c0.3,0.3,0.5,0.5,0.6,0.7c0,0.2,0.1,0.3,0.2,0.4
		c0.1,0.1,0.1,0.2,0,0.5c0,0.3-0.1,0.7-0.3,1.2c0,0.1-0.1,0.2-0.1,0.5c0,0.2-0.1,0.4-0.3,0.7c-0.1,0.1-0.2,0.2-0.3,0.3
		c-0.1,0.1-0.2,0.2-0.3,0.3c-0.3,0.3-0.7,0.5-1.2,0.5c-0.2,0-0.3,0-0.5,0s-0.2,0.1-0.3,0c-0.2-0.1-0.3-0.2-0.4-0.5
		c0-0.1,0-0.1-0.1-0.2c-0.1,0,0-0.2,0.2-0.4c0.1-0.1,0.2-0.2,0.4-0.3c0.2-0.1,0.3-0.3,0.4-0.5c0.1-0.3,0.1-0.5,0.2-0.8
		c0-0.3,0-0.5,0-0.7c0-0.2-0.1-0.4-0.4-0.6c-0.2-0.2-0.4-0.4-0.6-0.5c-0.2-0.1-0.4-0.1-0.6,0c-0.1,0.1-0.2,0.1-0.3,0.1
		c-0.1,0-0.2,0-0.3,0c-0.3,0.1-0.5,0.3-0.6,0.5c-0.2,0.3-0.4,0.6-0.5,0.9c-0.1,0.3-0.2,0.7-0.2,1c0,0.4,0,0.8,0.1,1.1
		c0.1,0.3,0.2,0.6,0.4,0.9c0.1,0.2,0.2,0.3,0.4,0.5c0.2,0.2,0.3,0.3,0.4,0.5c0.2,0.3,0.4,0.6,0.6,0.8c0.2,0.2,0.4,0.5,0.6,0.7
		c0.2,0.2,0.5,0.6,0.8,1.1c0.2,0.3,0.4,0.7,0.6,1c0.1,0.1,0.1,0.2,0.1,0.2l0.1,0.1l0.1,0.1l0.1-0.1h0.1c0.1,0,0.2-0.1,0.2-0.1
		c0,0,0.1-0.1,0.2-0.1c0.2-0.1,0.4-0.3,0.6-0.4c0.3-0.2,0.5-0.3,0.7-0.6c0.1-0.1,0.3-0.2,0.4-0.4c0.2-0.1,0.3-0.2,0.4-0.4
		c0.2-0.2,0.3-0.4,0.5-0.6c0.1-0.2,0.3-0.4,0.4-0.6c0.1-0.1,0.1-0.2,0.2-0.4c0-0.1,0.1-0.2,0.2-0.3l0.4-0.8c0-0.1,0-0.2,0.1-0.3
		c0.1-0.3,0.3-0.3,0.5-0.3l0.1,0.2l0.2,0.1L142.6,26.2L142.6,26.2z M134.8,36.7c0-0.1,0-0.2,0-0.5c0-0.2,0-0.5,0-0.7
		c0-0.3,0-0.5-0.1-0.7c0-0.2-0.1-0.3-0.2-0.3c-0.1,0-0.2,0.1-0.4,0.3c-0.2,0.2-0.4,0.4-0.6,0.6c-0.2,0.2-0.4,0.4-0.6,0.6
		c-0.2,0.2-0.3,0.3-0.3,0.4c0,0-0.1,0.1-0.3,0.3c-0.1,0.2-0.3,0.3-0.4,0.6c-0.3,0.4-0.5,0.8-0.6,1.2c-0.1,0.3-0.1,0.5,0,0.7
		c0.1,0.2,0.4,0.4,0.7,0.5c0.2,0,0.4,0,0.5-0.1c0.1-0.1,0.3-0.2,0.6-0.4c0.2-0.1,0.4-0.2,0.6-0.3c0.2-0.1,0.3-0.3,0.5-0.4
		c0.2-0.1,0.3-0.3,0.4-0.5s0.1-0.4,0.2-0.6C134.7,37.1,134.8,36.9,134.8,36.7z"/>
	<path class="st0" d="M149.7,37.4c0.1,0.1,0.1,0.2,0.1,0.4c0.1,0.4,0.2,0.7,0.3,0.9c0,0.2,0,0.4,0,0.6c-0.1,0.2-0.2,0.4-0.4,0.6
		c-0.2,0.2-0.5,0.5-0.8,1c-0.1,0.1-0.3,0.2-0.5,0.2c-0.4,0.1-0.7,0.1-0.8,0.2c-0.1,0-0.2,0-0.4-0.1l-0.7-0.6
		c-0.4-0.4-0.5-0.8-0.4-1.3c0.2-0.5,0.3-0.9,0.4-1.4c0,0,0.1-0.2,0.3-0.4c0.1-0.2,0.2-0.3,0.3-0.4c0.5-0.5,0.9-0.7,1.2-0.8
		c0.3-0.1,0.5-0.1,0.7,0C149.2,36.5,149.5,36.8,149.7,37.4z M159.1,15.5c0.1,0.9,0.1,1.5-0.1,1.9c-0.1,0.3-0.3,0.6-0.6,0.9
		c-0.3,0.3-0.6,0.6-0.9,1c-0.3,0.4-0.7,0.7-0.9,1c-0.3,0.3-0.5,0.5-0.8,0.8c-0.3,0.3-0.5,0.6-0.8,0.9c-0.3,0.3-0.6,0.8-1,1.3
		c-0.5,0.7-0.9,1.4-1.4,2.1c-0.4,0.7-0.7,1-0.8,1.1c-0.8,0.7-1.4,1.5-1.8,2.3c-0.4,0.8-0.7,1.8-0.8,2.8c0,0.1,0.1,0.2,0.1,0.3
		c0,0.1,0.1,0.2,0.1,0.3c0,0.1,0,0.4,0.1,0.9c0,0.5,0.1,0.7,0.1,0.9c0,0.2,0,0.4-0.2,0.6c-0.2,0.2-0.4,0.3-0.7,0.4
		c-0.3,0.1-0.4,0-0.6-0.1c-0.1-0.2-0.2-0.3-0.4-0.5c-0.1-0.2-0.2-0.5-0.3-1.1c-0.1-0.5-0.1-0.9-0.2-1.1c0-0.1-0.1-0.3-0.1-0.6
		c0-0.3,0-0.6,0-0.9c0-0.3,0-0.6,0-0.9c0-0.3,0.1-0.5,0.1-0.6c0.2-0.8,0.3-1.5,0.5-2c0.2-0.6,0.4-1.1,0.6-1.6
		c0.2-0.5,0.4-1.1,0.7-1.6c0.3-0.5,0.6-1.2,1-2l1.4-2c0.1-0.2,0.3-0.3,0.4-0.5c0.2-0.1,0.3-0.3,0.5-0.4c0.1-0.1,0.2-0.3,0.4-0.5
		c0.1-0.2,0.2-0.3,0.4-0.5c0.2-0.2,0.4-0.4,0.5-0.5c0.1-0.1,0.2-0.2,0.3-0.3c0.1-0.1,0.2-0.2,0.3-0.3c0.1-0.1,0.3-0.4,0.5-0.7
		c0.1-0.2,0.2-0.3,0.3-0.5c0.1-0.2,0.2-0.3,0.4-0.5c0.4-0.4,0.6-0.7,0.6-0.9c0-0.2-0.1-0.6-0.2-1.1c-0.1-0.3-0.2-0.7-0.2-1
		c0-0.3-0.3-0.6-0.7-0.7c-0.2-0.1-0.4-0.1-0.6-0.1c-0.2,0-0.4,0-0.6,0c-0.3-0.1-0.5-0.1-0.7-0.1c-0.2,0-0.4,0.1-0.6,0.2
		c0,0-0.2,0.1-0.4,0.2c-0.2,0.2-0.4,0.3-0.6,0.5c-0.2,0.2-0.4,0.3-0.6,0.5c-0.2,0.2-0.3,0.3-0.3,0.3c-0.3,0.3-0.5,0.6-0.7,1
		c-0.1,0.2-0.2,0.4-0.3,0.6c-0.1,0.2-0.2,0.4-0.4,0.5c-0.2,0.2-0.3,0.4-0.4,0.5c0,0.1-0.1,0.3-0.3,0.6c-0.1,0.2-0.2,0.3-0.3,0.5
		c-0.1,0.2-0.3,0.2-0.6,0.3c-0.3,0-0.5-0.1-0.6-0.3c-0.2-0.2-0.3-0.4-0.4-0.6c-0.1-0.2-0.1-0.5-0.2-0.7c0-0.3,0-0.5,0-0.6
		c0-0.4-0.1-0.7-0.1-0.9c0-0.2,0-0.4,0-0.6c0-0.2,0.1-0.3,0.2-0.5c0.1-0.2,0.2-0.4,0.5-0.8c0.2-0.3,0.5-0.6,0.7-1
		c0.3-0.4,0.5-0.7,0.8-0.9c0.3-0.2,0.6-0.4,1.1-0.7c0.5-0.2,0.9-0.4,1.2-0.4c0.6-0.1,1.1-0.1,1.6,0c0.4,0.1,1,0.2,1.6,0.4
		c0.6,0.1,1.1,0.2,1.5,0.4c0.4,0.1,0.8,0.2,1.2,0.4c0.3,0.2,0.7,0.4,0.9,0.7c0.3,0.3,0.6,0.6,0.8,1.2c0.3,0.6,0.6,1.2,0.6,1.8
		C158.9,14.2,159,14.8,159.1,15.5z"/>
</g>
</svg>
