<svg xmlns="http://www.w3.org/2000/svg" width="394.92" height="41.15" viewBox="0 0 394.92 41.15"><title>bar-cortesia</title><metadata><?xpacket begin="﻿" id="W5M0MpCehiHzreSzNTczkc9d"?>
<x:xmpmeta xmlns:x="adobe:ns:meta/" x:xmptk="Adobe XMP Core 5.6-c111 79.158366, 2015/09/25-01:12:00        ">
   <rdf:RDF xmlns:rdf="http://www.w3.org/1999/02/22-rdf-syntax-ns#">
      <rdf:Description rdf:about=""
            xmlns:dc="http://purl.org/dc/elements/1.1/">
         <dc:title>
            <rdf:Alt>
               <rdf:li xml:lang="x-default">bar-cortesia</rdf:li>
            </rdf:Alt>
         </dc:title>
      </rdf:Description>
   </rdf:RDF>
</x:xmpmeta>
                                                                                                    
                                                                                                    
                                                                                                    
                                                                                                    
                                                                                                    
                                                                                                    
                                                                                                    
                                                                                                    
                                                                                                    
                                                                                                    
                                                                                                    
                                                                                                    
                                                                                                    
                                                                                                    
                                                                                                    
                                                                                                    
                                                                                                    
                                                                                                    
                                                                                                    
                                                                                                    
                           
<?xpacket end="w"?></metadata>
<path d="M42.11,30.66l0.13,0.91a7,7,0,0,1,.06,1A6.48,6.48,0,0,1,42,33.68c-0.13.41-.24,0.81-0.32,1.2s-0.19,1-.29,1.46a7.29,7.29,0,0,1-.49,1.46,11.35,11.35,0,0,1-.62,1.07L39.64,40q-0.33.46-.65,0.88t-0.65.88a2.85,2.85,0,0,1-.42.46,2.82,2.82,0,0,0-.42.46q-0.26.26-.49,0.46l-0.49.39c-0.35.26-.65,0.48-0.91,0.65a1.29,1.29,0,0,0-.39.46,0.86,0.86,0,0,1-.39.39,2.6,2.6,0,0,1-.94.33,8.78,8.78,0,0,0-1,.2,11.23,11.23,0,0,1-1.95.39,2.78,2.78,0,0,1-.85,0l-0.55-.16a1.84,1.84,0,0,1-.42-0.36A4.77,4.77,0,0,0,28.69,45a0.49,0.49,0,0,0-.55-0.1l-0.39,1.69a2.46,2.46,0,0,1-.46,1.11,0.49,0.49,0,0,1-.55.1l-0.94-.23-0.68-.16c-0.07,0-.09,0-0.07-0.06a0.08,0.08,0,0,0,0-.1A1.56,1.56,0,0,0,24.56,47q-0.13-.26-0.29-0.16c-0.11.07-.21,0-0.29-0.16a1.51,1.51,0,0,1-.06-0.85c0-.43.11-1,0.19-1.56s0.17-.94.26-1.4l0.26-1.4q0.26-1.3.39-2.08a2,2,0,0,0,.06-0.49,2.9,2.9,0,0,1,.06-0.55,2.32,2.32,0,0,0,.16-0.84q0-.59.1-1.3t0.29-1.76q0.16-.91.29-1.82,0.13-1.1.19-1.92a3,3,0,0,1,.13-0.88,4.48,4.48,0,0,0,.2-0.72q0.13-.58.26-1.3t0.29-1.36q0.16-.65.29-1a1.54,1.54,0,0,0,.13-0.55,1.53,1.53,0,0,1,.13-0.55,5.87,5.87,0,0,1,.26-1A2.54,2.54,0,0,0,28,22.76a2.46,2.46,0,0,1,.16-0.55,2.65,2.65,0,0,0,.29-1q0-.45.1-0.85a0.38,0.38,0,0,0,.06-0.26,0.48,0.48,0,0,1,.26-0.39H29.5A1.47,1.47,0,0,1,30,20a0.93,0.93,0,0,0,.55.1l0.58,0.39a0.77,0.77,0,0,1,.52.23c0,0.07,0,.27-0.06.62s-0.1,1-.16,1.63a2.87,2.87,0,0,0,0,1,2.28,2.28,0,0,0,.52-0.36q0.45-.36.94-0.78t0.91-.84l0.55-.55a10.26,10.26,0,0,0,1-1.69,5.6,5.6,0,0,0,.13-1,4.5,4.5,0,0,1,.19-1.07,0.93,0.93,0,0,0,0-.68,0.79,0.79,0,0,0-.55-0.52q-0.42-.13-1.33-0.33a1.67,1.67,0,0,0-.78.1,12.11,12.11,0,0,0-1.37.49l-1.33.52q-0.68.26-1.33,0.58-0.85.39-1.4,0.72a1.23,1.23,0,0,0-.62.58,7.38,7.38,0,0,0-.49.58,0.89,0.89,0,0,1-.36.19,3.67,3.67,0,0,0-.88.78,1.05,1.05,0,0,0-.23.58,1.43,1.43,0,0,0,.06.46,0.6,0.6,0,0,1-.06.45,0.19,0.19,0,0,1-.06.13,0.19,0.19,0,0,0-.06.13,0.06,0.06,0,0,1-.07.06,0.83,0.83,0,0,0-.32.42,0.23,0.23,0,0,1-.33.16,0.48,0.48,0,0,1-.36-0.16,3.25,3.25,0,0,0-.16-0.36q-0.32-.59-0.75-1.46a7.16,7.16,0,0,1-.55-1.46,2.11,2.11,0,0,1-.06-0.85A7,7,0,0,1,22.54,18l0.33-.65a5.76,5.76,0,0,1,.33-0.58,8,8,0,0,1,1-1,7.88,7.88,0,0,1,1.24-.78l0.91-.46,0.46-.23a2.19,2.19,0,0,1,.46-0.16,8.34,8.34,0,0,0,.91-0.33,14.38,14.38,0,0,1,1.63-.49q0.71-.16,1.69-0.29a6,6,0,0,1,2.57.16q1.2,0.36,2.7.68a0.58,0.58,0,0,1,.39.13,0.64,0.64,0,0,0,.26.26,2,2,0,0,0,.88.49,1.46,1.46,0,0,1,.88.88q0.26,0.46.46,0.88a5.39,5.39,0,0,1,.32.94,4,4,0,0,1-.06,1.23q-0.13.65-.26,1.23A8,8,0,0,1,39,21.75a3.72,3.72,0,0,1-.36.84,6,6,0,0,1-.49.72,1.24,1.24,0,0,1-.52.49,0.9,0.9,0,0,0-.46.55,6,6,0,0,1,2,.58,3.46,3.46,0,0,0,.39.23,1.25,1.25,0,0,1,.32.23,6.18,6.18,0,0,1,1,1.1l0.36,0.62a5.66,5.66,0,0,1,.29.62,5.78,5.78,0,0,1,.39,1.3,3.39,3.39,0,0,1,.16.78C42,30.07,42.07,30.36,42.11,30.66Zm-3.44,1.76V31.73A3.55,3.55,0,0,0,38.6,31a5.5,5.5,0,0,0-.13-1l-0.13-.62a4.13,4.13,0,0,0-.2-0.62,3.88,3.88,0,0,0-.58-1.1,2.62,2.62,0,0,0-1-1,2,2,0,0,0-1.82-.06,2.78,2.78,0,0,0-.71.46l-0.81.68a4.08,4.08,0,0,1-.91.58,1.16,1.16,0,0,1-.88.1,0.64,0.64,0,0,0-.58.13,5.65,5.65,0,0,0-.58,1.43q-0.13.52-.23,1c-0.06.35-.14,0.71-0.23,1.1s-0.09.53-.13,0.81l-0.13.81q-0.07.52-.1,1t-0.1.91a10.44,10.44,0,0,0-.16,1.33q0,0.62-.1,1.14a5.48,5.48,0,0,0-.06.75V39.5A2.15,2.15,0,0,1,29,40a2.18,2.18,0,0,0-.13.68v0.42a0.28,0.28,0,0,0,.13.23,1.2,1.2,0,0,1,.26.29,2.72,2.72,0,0,0,1,.78,1.79,1.79,0,0,0,1.49,0,4.76,4.76,0,0,0,.58-0.26,2.7,2.7,0,0,1,.42-0.23,1.11,1.11,0,0,0,.36-0.23,6.22,6.22,0,0,0,.75-0.58q0.36-.32.68-0.65l0.52-.65,0.52-.65a5.79,5.79,0,0,0,.55-0.78q0.23-.39.49-0.78A7.87,7.87,0,0,1,37.23,37a1.83,1.83,0,0,0,.46-0.71,2,2,0,0,0,.23-1,3.35,3.35,0,0,1,.1-1q0.19-.52.39-0.94A3.22,3.22,0,0,0,38.66,32.42Z" transform="translate(-22.2 -9.81)" style="fill:#01ccff"/><path d="M53.68,31.18a0.39,0.39,0,0,1,.19.2,0.36,0.36,0,0,1-.13.19q-0.26.52-.46,1t-0.46,1l-0.65,1.56q-0.33.78-.65,1.5A6.76,6.76,0,0,0,51,38.3a5,5,0,0,1-.49,1.59,5,5,0,0,0-.36,1.27,2.62,2.62,0,0,1-.29.94A6,6,0,0,0,49,43.63a0.91,0.91,0,0,1-1.2.42l-0.91-.16a0.62,0.62,0,0,1-.32-0.1l-0.13-.13a0.17,0.17,0,0,0-.16,0,0.17,0.17,0,0,1-.16,0,1.1,1.1,0,0,1-.46-0.52l-1.3-1.37V38.59a0.16,0.16,0,0,1,0-.19,0.26,0.26,0,0,0,.06-0.2q0.07-1.3.19-2.34t0.13-1.66q0.06-.75.06-0.88a3.28,3.28,0,0,1,.13-0.42A3.61,3.61,0,0,0,45,32.48a1.82,1.82,0,0,0,.06-0.39V31.7q0.06-.84.13-1.75a8.87,8.87,0,0,1,.33-1.82,1,1,0,0,0,.13-0.39,2.78,2.78,0,0,0,.26-0.39l0.39-.46a0.76,0.76,0,0,1,.39-0.39l1,0.45a2.67,2.67,0,0,0,.81.65,1.87,1.87,0,0,1,.75,1.23,0.72,0.72,0,0,0-.29.58c-0.06.35-.12,0.75-0.16,1.2s-0.08.89-.1,1.3a3.92,3.92,0,0,1-.1.81,3.51,3.51,0,0,0-.13,1,5.11,5.11,0,0,1-.13,1.1,1.93,1.93,0,0,1-.1.62c-0.06.19-.12,0.38-0.16,0.55q-0.07.72-.2,1.85a8.27,8.27,0,0,0-.06,1.72V40s0-.09.19-0.26l0.39-.58a3.48,3.48,0,0,0,.42-0.85q0.29-.71.36-0.84l0.45-.78a2.51,2.51,0,0,1,.2-0.52l0.29-.58,0.36-.71q0.19-.39.42-0.81t0.42-.88q0.45-.78.84-1.5a3.08,3.08,0,0,1,.46-0.84V30.66h0.06s0.13,0,.26.06l0.13,0.13h0.13L53.61,31Zm-5.59-5.59a1.11,1.11,0,0,1-.58-0.19l-0.81-1a1.69,1.69,0,0,1-.36-0.62,1.19,1.19,0,0,1,0-.55l0.2-.88a0.54,0.54,0,0,0,.06-0.23,0.52,0.52,0,0,1,.06-0.23,1.36,1.36,0,0,1,.91-1,1.14,1.14,0,0,1,.71,0,3,3,0,0,1,1.1.81L49.68,22a0.75,0.75,0,0,1,.23.39q0.19,0.65.42,1.33a1.25,1.25,0,0,1-.42,1.33l-0.71.58a0.35,0.35,0,0,1-.33.1Z" transform="translate(-22.2 -9.81)" style="fill:#01ccff"/><path d="M67.13,30.79a0.88,0.88,0,0,0,.19.16s0,0.1-.06.23a1.51,1.51,0,0,0-.26.39,0.81,0.81,0,0,0-.2.33,0.82,0.82,0,0,1-.19.32q-0.13.33-.26,0.68a4,4,0,0,1-.33.68,3.42,3.42,0,0,1-.36.75L65.25,35a11.37,11.37,0,0,0-.46,1.2,6.5,6.5,0,0,1-.52,1.2,3.4,3.4,0,0,0-.2.46,2.85,2.85,0,0,1-.26.52,5.23,5.23,0,0,1-.33.55q-0.19.29-.39,0.62a2,2,0,0,0-.23.49,2,2,0,0,1-.23.49,3.85,3.85,0,0,0-.42.62q-0.29.49-.62,1.07T61,43.33a2.33,2.33,0,0,1-.52.65,6.25,6.25,0,0,1-.58.42l-0.58.36a2.28,2.28,0,0,1-.94.39,5,5,0,0,1-.88.13,6.42,6.42,0,0,1-.81-0.07l-1-.16q-0.52-.1-1-0.23A1.51,1.51,0,0,1,54,44.5a7.27,7.27,0,0,1-1.62-2.21q-0.59-1.23-1.1-2.54a4.23,4.23,0,0,1-.06-1V37.13q0-.88.06-1.66t0.06-1q0.13-.58.36-1.3a7.07,7.07,0,0,1,.55-1.3A5.89,5.89,0,0,0,52.67,31c0.06-.19.13-0.38,0.19-0.55a3.41,3.41,0,0,1,.36-0.65,11.06,11.06,0,0,1,1-1.17q0.52-.52.85-0.91A5.93,5.93,0,0,1,56,26.89q0.32-.26,1-0.78a3.31,3.31,0,0,1,1-.58q0.39-.13.68-0.26L59.33,25a0.25,0.25,0,0,0,.16,0,0.14,0.14,0,0,1,.1,0,0.87,0.87,0,0,0,.49-0.23,0.55,0.55,0,0,0,0-.16h0.06l0.52,0.19,0.78,0.52a6.16,6.16,0,0,0,.65.39,2.88,2.88,0,0,1,.52,1.07,3.72,3.72,0,0,0,.52,1.14,2.23,2.23,0,0,1,.32,1.3,8.44,8.44,0,0,1-.19,1.1,1.59,1.59,0,0,0-.13.58,1,1,0,0,1-.26.58,0.84,0.84,0,0,1-.32.29,1.17,1.17,0,0,0-.39.36l-2,1.46a6.45,6.45,0,0,1-2.31,1.07,7.94,7.94,0,0,0-.85.29l-0.71.29a1.17,1.17,0,0,1-.58.1,0.47,0.47,0,0,0-.46.29c0,0.13-.09.28-0.13,0.46a1.78,1.78,0,0,0-.06.39c0,0.09,0,.3-0.06.65s-0.09.72-.13,1.1-0.08.77-.1,1.14,0,0.57,0,.62a2.38,2.38,0,0,1,.23.58,2,2,0,0,0,.36.65,5.19,5.19,0,0,0,.39.62L56,42a0.4,0.4,0,0,0,.16.1l0.29,0.1a1.16,1.16,0,0,0,.94-0.2,7.16,7.16,0,0,0,1.07-.78q0.52-.45,1-0.94l0.75-.75a2.57,2.57,0,0,0,.52-0.75,2.57,2.57,0,0,1,.52-0.75q0.52-.52.81-0.85l0.49-.52A2.75,2.75,0,0,0,63,36a6.36,6.36,0,0,1,.52-0.84,2,2,0,0,1,.36-0.58A4,4,0,0,0,64.34,34a17.71,17.71,0,0,1,.91-1.82A10.23,10.23,0,0,1,65.9,31a2.16,2.16,0,0,0,.26-0.33,2.11,2.11,0,0,1,.26-0.32,0.21,0.21,0,0,1,.26-0.06,0.41,0.41,0,0,0,.2.19l0.06,0.13ZM55.82,33.06a0.39,0.39,0,0,0,0,.58,2.56,2.56,0,0,0,.55-0.36l1.07-.81,1.1-.85a7.69,7.69,0,0,0,.65-0.52c0.13-.17.26-0.36,0.39-0.55A3.18,3.18,0,0,1,60,30.07a2.54,2.54,0,0,0,.42-0.39q0.16-.2.29-0.39a1.64,1.64,0,0,0,.39-1.1,4.48,4.48,0,0,1,0-.49,1.58,1.58,0,0,0,0-.55q-0.26-.71-0.52-0.52a2.92,2.92,0,0,0-.52.52q-0.33.33-.68,0.71t-0.68.78a8.54,8.54,0,0,0-.75,1,4.15,4.15,0,0,1-.42.58l-0.39.39a2.62,2.62,0,0,0-.26.42q-0.19.36-.39,0.81t-0.39.81A2.62,2.62,0,0,1,55.82,33.06Z" transform="translate(-22.2 -9.81)" style="fill:#01ccff"/><path d="M82.93,30.92a0.69,0.69,0,0,0,0,.23,0.3,0.3,0,0,1,0,.23,2,2,0,0,0-.13.58,5.64,5.64,0,0,1-.36,1,5.48,5.48,0,0,0-.36,1,6.62,6.62,0,0,1-.36.85,3,3,0,0,0-.29.85,3.22,3.22,0,0,1-.16.49,3.13,3.13,0,0,0-.16.49,4.81,4.81,0,0,0-.2,1,4.89,4.89,0,0,1-.19,1,3.19,3.19,0,0,1-.23.71L80,40.64q-0.26.68-.52,1.3t-0.33.81a3.82,3.82,0,0,0-.29.78,2.62,2.62,0,0,1-.29.71,1.43,1.43,0,0,0-.33.78,1,1,0,0,1-.45.71,4.64,4.64,0,0,0-.52.84,1.26,1.26,0,0,1-.58.65,1.12,1.12,0,0,1-.91-0.2,3.07,3.07,0,0,0-1-.39,1.83,1.83,0,0,1-.88-0.55,4.42,4.42,0,0,1-.68-0.68,0.84,0.84,0,0,1-.1-0.55,1.11,1.11,0,0,0-.16-0.68,0.79,0.79,0,0,1-.06-0.68A1.6,1.6,0,0,0,73,42.75a2.88,2.88,0,0,1-.06-0.84V41.19A2,2,0,0,0,73,40.6a1.53,1.53,0,0,0,0-.29A0.43,0.43,0,0,1,73,40a3.61,3.61,0,0,1,.1-0.81c0.07-.28.14-0.57,0.23-0.88a2.28,2.28,0,0,1,0-.39,2.39,2.39,0,0,0,0-.39,4.28,4.28,0,0,1,.1-0.49q0.1-.42.2-0.91t0.19-.88a2.74,2.74,0,0,0,.1-0.52,1,1,0,0,0,0-.42,1,1,0,0,1,0-.42,2.23,2.23,0,0,0,.13-0.36,1.42,1.42,0,0,0,.06-0.36,0.61,0.61,0,0,0,0-.39,1.22,1.22,0,0,1-.06-0.39,0.66,0.66,0,0,0,.06-0.29,0.65,0.65,0,0,1,.06-0.29,1.33,1.33,0,0,0,.06-0.42A0.81,0.81,0,0,1,74.41,31a0.58,0.58,0,0,0,.07-0.26,0.57,0.57,0,0,1,.06-0.26,0.45,0.45,0,0,0-.13-0.46,0.3,0.3,0,0,1-.13-0.32,3.7,3.7,0,0,0-.49.29l-0.42.29a2.39,2.39,0,0,0-.45.29,4.59,4.59,0,0,1-.39.29,4.9,4.9,0,0,0-.55.65q-0.23.33-.49,0.65a2.5,2.5,0,0,1-.26.23,2.37,2.37,0,0,0-.26.23,1.92,1.92,0,0,0-.19.36,2,2,0,0,1-.2.36q-0.19.33-.42,0.65l-0.49.71a4.76,4.76,0,0,0-.49,1q-0.29.78-.55,1.43L68.37,39a1.55,1.55,0,0,0-.06.49c0,0.19,0,.49-0.06.88L68,41.51a2.77,2.77,0,0,0-.06,1c0,0.09-.1.09-0.16,0s-0.16-.09-0.29,0-0.22.09-.26,0a0.26,0.26,0,0,0-.32-0.07,1.6,1.6,0,0,1-.91,0,0.74,0.74,0,0,0-.33-0.06,0.71,0.71,0,0,1-.32-0.07,1.13,1.13,0,0,0-.46-0.23,0.49,0.49,0,0,1-.33-0.36A1.49,1.49,0,0,1,64.5,41c0-.33,0-0.6,0-0.81a13,13,0,0,1,.06-1.33q0.07-.62.2-1.92c0-.17,0-0.4,0-0.68s0.06-.6.1-0.94V34.82a8.16,8.16,0,0,1,.19-1.23V33.13a0.8,0.8,0,0,1,.1-0.26,1.17,1.17,0,0,0,.1-0.52,6.81,6.81,0,0,1,.1-1.23q0.1-.52.2-1t0.19-1q0.1-.55.16-1.4V27.28a0.5,0.5,0,0,1,.52-0.52,2.87,2.87,0,0,0,.39-0.16,2.25,2.25,0,0,1,.46-0.16l0.39,0.06h0.52a3.89,3.89,0,0,0,.58-0.06,1.27,1.27,0,0,1,.65.26,0.57,0.57,0,0,1,.33.58,0.57,0.57,0,0,0-.06.26q-0.07.45-.1,1a4.68,4.68,0,0,0,0,1l-0.13.58a1.5,1.5,0,0,1,0,.29,1.46,1.46,0,0,0,0,.29,3.3,3.3,0,0,0-.06.65,1.51,1.51,0,0,1,.26-0.39,3.88,3.88,0,0,1,.45-0.58,1.06,1.06,0,0,1,.33-0.39,1.05,1.05,0,0,0,.33-0.39L71,29.29,71.29,29a1.42,1.42,0,0,1,.45-0.49,1.68,1.68,0,0,0,.46-0.42,6.65,6.65,0,0,0,.65-0.58l0.36-.26L73.5,27a3,3,0,0,0,.94-0.72,1.06,1.06,0,0,1,1.07,0,4,4,0,0,0,.59.13q0.39,0.07.78,0.16a5.62,5.62,0,0,1,.71.23,0.61,0.61,0,0,1,.39.33,6.85,6.85,0,0,0,.33.68,1.41,1.41,0,0,1,.16.39,1,1,0,0,1,0,.36,4.42,4.42,0,0,1-.16.59l-0.2.78a0.51,0.51,0,0,0,0,.36,0.51,0.51,0,0,1,0,.36,0.52,0.52,0,0,0,0,.33,2.44,2.44,0,0,1,0,.39,2.35,2.35,0,0,0-.1.42,2.55,2.55,0,0,1-.1.42,3,3,0,0,0-.06.58,3.07,3.07,0,0,1-.06.58,6.31,6.31,0,0,0-.1.68q0,0.36-.1.75a3.44,3.44,0,0,1-.1.46,7.68,7.68,0,0,0-.16.88,8.14,8.14,0,0,1-.16.88,3.52,3.52,0,0,0-.1.46,1.44,1.44,0,0,0,0,.29,0.45,0.45,0,0,1,0,.29q-0.07.58-.19,1.2t-0.26,1.14a2.38,2.38,0,0,1,0,.39,2,2,0,0,0,0,.33,1.22,1.22,0,0,0-.06.39,1.25,1.25,0,0,1-.06.39,3,3,0,0,0-.06.58,2.16,2.16,0,0,1-.06.52l0,0.1c0-.06,0,0,0,0.1-0.17.35-.13,0.52,0.13,0.52,0.09,0,.11,0,0.06-0.1s0-.16.2-0.29A0.38,0.38,0,0,0,76.95,43a0.56,0.56,0,0,1,.19-0.39,0.58,0.58,0,0,0,.07-0.16,0.57,0.57,0,0,1,.06-0.16A0.28,0.28,0,0,0,77.34,42a0.17,0.17,0,0,1,.06-0.23l0.29-.49a3.58,3.58,0,0,0,.23-0.49c0.09-.22.17-0.41,0.26-0.58s0.17-.37.26-0.58a8,8,0,0,1,.32-0.81A8,8,0,0,0,79.09,38q0.13-.32.29-0.88t0.23-.88c0.13-.35.26-0.66,0.39-0.94a6.13,6.13,0,0,0,.32-0.88q0.13-.32.26-0.71a4.89,4.89,0,0,1,.26-0.65l0.23-.58A5.27,5.27,0,0,1,81.3,32a2.7,2.7,0,0,0,.29-0.68,1.13,1.13,0,0,1,.23-0.49A0.5,0.5,0,0,0,82,30.72a0.59,0.59,0,0,1,.26-0.06l0.52,0.2C82.88,30.85,82.93,30.88,82.93,30.92Z" transform="translate(-22.2 -9.81)" style="fill:#01ccff"/><path d="M97.42,31.11a0.13,0.13,0,0,0,0,.1,0.14,0.14,0,0,1,0,.1,0.26,0.26,0,0,1-.1.16,0.27,0.27,0,0,0-.1.16,0.41,0.41,0,0,0-.1.16,2,2,0,0,1-.1.23l-0.29.58a3.71,3.71,0,0,1-.42.65l-0.26.52a3.44,3.44,0,0,1-.33.52,2.39,2.39,0,0,1-.32.49,4.41,4.41,0,0,0-.33.42,5.92,5.92,0,0,0-.46.65,2.66,2.66,0,0,1-.39.52,1.5,1.5,0,0,1-.55.46,2.88,2.88,0,0,0-.55.32l-0.36.33a3.88,3.88,0,0,1-.75.46q-0.33.13-.65,0.29t-0.65.29q-0.46.13-1.1,0.26a2.57,2.57,0,0,1-.33.91,5.46,5.46,0,0,1-1,1.63,4.66,4.66,0,0,0-.88,1.3q-0.33.52-.52,0.91c-0.13.26-.25,0.49-0.36,0.68a0.86,0.86,0,0,1-1.14.42c-0.48-.09-0.79-0.15-0.94-0.19l-0.29-.07h0s0,0-.1-0.13a0.51,0.51,0,0,0-.2-0.07,0.48,0.48,0,0,1-.19-0.06A0.27,0.27,0,0,1,83.48,44a1.55,1.55,0,0,0-.23-0.29L82.34,41.9l-0.71-3a0.46,0.46,0,0,1,.06-0.39s0-.3-0.06-0.78-0.1-1-.16-1.62-0.12-1.2-.16-1.79-0.06-1.05-.06-1.4,0-.62-0.06-1.07-0.08-.93-0.1-1.43,0-1-.07-1.46a3.77,3.77,0,0,1,.1-1.17,2,2,0,0,1,.1-0.33,0.25,0.25,0,0,0,0-.1,0.09,0.09,0,0,1,0-.06A2.06,2.06,0,0,0,81.43,27l0.32-.45a1,1,0,0,1,.46-0.33l1,0.39a2.25,2.25,0,0,0,.85.71,2,2,0,0,1,.84,1.23,1,1,0,0,0-.23.85,15.47,15.47,0,0,0,0,1.72q0.06,0.94.13,1.82a4.07,4.07,0,0,1,0,1.07,0.68,0.68,0,0,0,0,.62,0.91,0.91,0,0,1,.06.68,4,4,0,0,0,0,.52,4.89,4.89,0,0,1,0,.58,5,5,0,0,0,.16,1.27q0.16,0.62.29,1.2a4.4,4.4,0,0,1,.1,1.07,1.1,1.1,0,0,0,.16.68,1.72,1.72,0,0,0,.62-0.72,1.88,1.88,0,0,1,.55-0.71l0.65-1s0-.06,0-0.06,0,0,0-.06a2.94,2.94,0,0,1-.1-0.36,3.25,3.25,0,0,0-.1-0.36,4.55,4.55,0,0,1-.1-1.24,10.46,10.46,0,0,1,.16-1.36,1.25,1.25,0,0,0,.06-0.39A0.72,0.72,0,0,1,87.61,34q0.06-.32.1-0.55c0-.15.05-0.33,0.1-0.55s0.16-.67.23-1,0.14-.61.23-0.91a12.43,12.43,0,0,1,.72-2,6.87,6.87,0,0,1,1-1.75,11.31,11.31,0,0,1,1.07-1.17,2.51,2.51,0,0,1,1.07-.65,1.54,1.54,0,0,1,.55-0.13h0.42a1.49,1.49,0,0,1,.78.19,0.79,0.79,0,0,0,.36.19,0.4,0.4,0,0,1,.29.26,2.12,2.12,0,0,1,.13.39,0.81,0.81,0,0,1,0,.45q-0.07.46-.23,1.27A8.36,8.36,0,0,1,94,29.62L93.85,30a1.4,1.4,0,0,1-.26.46,1.85,1.85,0,0,0-.36.78,3.54,3.54,0,0,1-.29.85,3.64,3.64,0,0,0-.42.65l-0.29.58a6.43,6.43,0,0,0-.39.78l-0.26.65a1.41,1.41,0,0,1-.26.42,2.92,2.92,0,0,0-.33.75l-0.29.58c-0.06.13-.14,0.3-0.23,0.52a0.15,0.15,0,0,1,.16,0,0.29,0.29,0,0,0,.23,0,0.89,0.89,0,0,0,.36-0.19,0.79,0.79,0,0,1,.29-0.2,7.09,7.09,0,0,0,.68-0.32A1.69,1.69,0,0,0,92.55,36a0.74,0.74,0,0,1,.39-0.23,0.87,0.87,0,0,0,.46-0.36,1.36,1.36,0,0,1,.46-0.49,1.8,1.8,0,0,0,.52-0.55l0.29-.42A3.76,3.76,0,0,0,95,33.45a2.59,2.59,0,0,1,.29-0.55,3.79,3.79,0,0,0,.29-0.49A4.12,4.12,0,0,1,95.8,32l0.26-.39A3.78,3.78,0,0,1,96.38,31a0.18,0.18,0,0,0,.06-0.1,0.18,0.18,0,0,1,.07-0.1,0.26,0.26,0,0,1,.26-0.13,0.27,0.27,0,0,1,.19.06l0.13,0.07,0.13,0.06A0.62,0.62,0,0,1,97.42,31.11Zm-7.6,2.34L90,33.13a2.71,2.71,0,0,0,.23-0.39,3.69,3.69,0,0,1,.29-0.58q0.16-.26.29-0.52A4.62,4.62,0,0,0,91.05,31a0.82,0.82,0,0,1,.2-0.39,0.85,0.85,0,0,0,.19-0.42,0.85,0.85,0,0,1,.2-0.42l0.13-.26A1,1,0,0,1,92,29.29l0.26-.52a0.91,0.91,0,0,1,.06-0.23,0.34,0.34,0,0,0,.13-0.16,0.57,0.57,0,0,0,.16-0.29,0.56,0.56,0,0,1,.16-0.29A1.48,1.48,0,0,1,93,27.21a0.73,0.73,0,0,0,.06-0.33,0.28,0.28,0,0,1,0-.13,0.29,0.29,0,0,0,0-.13c0-.09-0.05-0.13,0-0.13s0,0,0-.06,0.12,0,.1,0-0.05,0-.1,0H92.94a0.22,0.22,0,0,0-.19.1,0.49,0.49,0,0,1-.26.16,0.51,0.51,0,0,0-.36.29,2.37,2.37,0,0,1-.49.68,8.33,8.33,0,0,0-1,1.69q-0.29.72-.62,1.75a2.46,2.46,0,0,1-.13.78c-0.09.26-.17,0.54-0.26,0.84a4.83,4.83,0,0,0-.23.78c-0.06.3-.12,0.56-0.16,0.78a2.36,2.36,0,0,0-.1.46,2.47,2.47,0,0,1-.1.46,1.54,1.54,0,0,0,.19-0.39q0.13-.32.29-0.68T89.82,33.45Z" transform="translate(-22.2 -9.81)" style="fill:#01ccff"/><path d="M110.68,30.79a0.88,0.88,0,0,0,.19.16s0,0.1-.06.23a1.51,1.51,0,0,0-.26.39,0.81,0.81,0,0,0-.2.33,0.82,0.82,0,0,1-.19.32q-0.13.33-.26,0.68a4,4,0,0,1-.33.68,3.42,3.42,0,0,1-.36.75L108.8,35a11.37,11.37,0,0,0-.46,1.2,6.5,6.5,0,0,1-.52,1.2,3.4,3.4,0,0,0-.2.46,2.85,2.85,0,0,1-.26.52,5.23,5.23,0,0,1-.33.55q-0.19.29-.39,0.62a2,2,0,0,0-.23.49,2,2,0,0,1-.23.49,3.85,3.85,0,0,0-.42.62q-0.29.49-.62,1.07t-0.65,1.1A2.33,2.33,0,0,1,104,44a6.25,6.25,0,0,1-.58.42l-0.58.36a2.28,2.28,0,0,1-.94.39,5,5,0,0,1-.88.13,6.42,6.42,0,0,1-.81-0.07l-1-.16q-0.52-.1-1-0.23a1.51,1.51,0,0,1-.65-0.33,7.27,7.27,0,0,1-1.62-2.21q-0.59-1.23-1.1-2.54a4.23,4.23,0,0,1-.06-1V37.13q0-.88.06-1.66t0.06-1q0.13-.58.36-1.3a7.07,7.07,0,0,1,.55-1.3A5.89,5.89,0,0,0,96.22,31c0.06-.19.13-0.38,0.19-0.55a3.41,3.41,0,0,1,.36-0.65,11.06,11.06,0,0,1,1-1.17q0.52-.52.85-0.91a5.93,5.93,0,0,1,.91-0.85q0.32-.26,1-0.78a3.31,3.31,0,0,1,1-.58q0.39-.13.68-0.26l0.62-.26a0.25,0.25,0,0,0,.16,0,0.14,0.14,0,0,1,.1,0,0.87,0.87,0,0,0,.49-0.23,0.55,0.55,0,0,0,0-.16h0.06l0.52,0.19L105,25.26a6.16,6.16,0,0,0,.65.39,2.88,2.88,0,0,1,.52,1.07,3.72,3.72,0,0,0,.52,1.14,2.23,2.23,0,0,1,.32,1.3,8.44,8.44,0,0,1-.19,1.1,1.59,1.59,0,0,0-.13.58,1,1,0,0,1-.26.58,0.84,0.84,0,0,1-.32.29,1.17,1.17,0,0,0-.39.36l-2,1.46a6.45,6.45,0,0,1-2.31,1.07,7.94,7.94,0,0,0-.85.29l-0.71.29a1.17,1.17,0,0,1-.58.1,0.47,0.47,0,0,0-.46.29c0,0.13-.09.28-0.13,0.46a1.78,1.78,0,0,0-.06.39c0,0.09,0,.3-0.06.65s-0.09.72-.13,1.1-0.08.77-.1,1.14,0,0.57,0,.62a2.38,2.38,0,0,1,.23.58,2,2,0,0,0,.36.65,5.19,5.19,0,0,0,.39.62L99.5,42a0.4,0.4,0,0,0,.16.1l0.29,0.1a1.16,1.16,0,0,0,.94-0.2,7.16,7.16,0,0,0,1.07-.78q0.52-.45,1-0.94l0.75-.75a2.57,2.57,0,0,0,.52-0.75,2.57,2.57,0,0,1,.52-0.75q0.52-.52.81-0.85l0.49-.52a2.75,2.75,0,0,0,.52-0.71,6.36,6.36,0,0,1,.52-0.84,2,2,0,0,1,.36-0.58,4,4,0,0,0,.42-0.59,17.71,17.71,0,0,1,.91-1.82,10.23,10.23,0,0,1,.65-1.1,2.16,2.16,0,0,0,.26-0.33A2.11,2.11,0,0,1,110,30.4a0.21,0.21,0,0,1,.26-0.06,0.41,0.41,0,0,0,.2.19l0.06,0.13ZM99.37,33.06a0.39,0.39,0,0,0,0,.58,2.56,2.56,0,0,0,.55-0.36l1.07-.81,1.1-.85a7.69,7.69,0,0,0,.65-0.52c0.13-.17.26-0.36,0.39-0.55a3.18,3.18,0,0,1,.39-0.49,2.54,2.54,0,0,0,.42-0.39q0.16-.2.29-0.39a1.64,1.64,0,0,0,.39-1.1,4.48,4.48,0,0,1,0-.49,1.58,1.58,0,0,0,0-.55q-0.26-.71-0.52-0.52a2.92,2.92,0,0,0-.52.52q-0.33.33-.68,0.71t-0.68.78a8.54,8.54,0,0,0-.75,1,4.15,4.15,0,0,1-.42.58l-0.39.39a2.62,2.62,0,0,0-.26.42q-0.19.36-.39,0.81t-0.39.81A2.62,2.62,0,0,1,99.37,33.06Z" transform="translate(-22.2 -9.81)" style="fill:#01ccff"/><path d="M126.47,30.92a0.69,0.69,0,0,0,0,.23,0.3,0.3,0,0,1,0,.23,2,2,0,0,0-.13.58,5.64,5.64,0,0,1-.36,1,5.48,5.48,0,0,0-.36,1,6.62,6.62,0,0,1-.36.85,3,3,0,0,0-.29.85,3.22,3.22,0,0,1-.16.49,3.13,3.13,0,0,0-.16.49,4.81,4.81,0,0,0-.2,1,4.89,4.89,0,0,1-.19,1,3.19,3.19,0,0,1-.23.71l-0.49,1.27q-0.26.68-.52,1.3t-0.33.81a3.82,3.82,0,0,0-.29.78,2.62,2.62,0,0,1-.29.71,1.43,1.43,0,0,0-.33.78,1,1,0,0,1-.45.71,4.64,4.64,0,0,0-.52.84,1.26,1.26,0,0,1-.58.65,1.12,1.12,0,0,1-.91-0.2,3.07,3.07,0,0,0-1-.39,1.83,1.83,0,0,1-.88-0.55,4.42,4.42,0,0,1-.68-0.68,0.84,0.84,0,0,1-.1-0.55,1.11,1.11,0,0,0-.16-0.68,0.79,0.79,0,0,1-.06-0.68,1.6,1.6,0,0,0,.13-0.75,2.88,2.88,0,0,1-.06-0.84V41.19a2,2,0,0,0,.06-0.58,1.53,1.53,0,0,0,0-.29,0.43,0.43,0,0,1,0-.29,3.61,3.61,0,0,1,.1-0.81c0.07-.28.14-0.57,0.23-0.88a2.28,2.28,0,0,1,0-.39,2.39,2.39,0,0,0,0-.39,4.28,4.28,0,0,1,.1-0.49q0.1-.42.2-0.91t0.19-.88a2.74,2.74,0,0,0,.1-0.52,1,1,0,0,0,0-.42,1,1,0,0,1,0-.42,2.23,2.23,0,0,0,.13-0.36,1.42,1.42,0,0,0,.06-0.36,0.61,0.61,0,0,0,0-.39,1.22,1.22,0,0,1-.06-0.39,0.66,0.66,0,0,0,.06-0.29,0.65,0.65,0,0,1,.06-0.29,1.33,1.33,0,0,0,.06-0.42A0.81,0.81,0,0,1,118,31a0.58,0.58,0,0,0,.07-0.26,0.57,0.57,0,0,1,.06-0.26,0.45,0.45,0,0,0-.13-0.46,0.3,0.3,0,0,1-.13-0.32,3.7,3.7,0,0,0-.49.29l-0.42.29a2.39,2.39,0,0,0-.45.29,4.59,4.59,0,0,1-.39.29,4.9,4.9,0,0,0-.55.65q-0.23.33-.49,0.65a2.5,2.5,0,0,1-.26.23,2.37,2.37,0,0,0-.26.23,1.92,1.92,0,0,0-.19.36,2,2,0,0,1-.2.36q-0.19.33-.42,0.65l-0.49.71a4.76,4.76,0,0,0-.49,1q-0.29.78-.55,1.43L111.91,39a1.55,1.55,0,0,0-.06.49c0,0.19,0,.49-0.06.88l-0.19,1.17a2.77,2.77,0,0,0-.06,1c0,0.09-.1.09-0.16,0s-0.16-.09-0.29,0-0.22.09-.26,0a0.26,0.26,0,0,0-.32-0.07,1.6,1.6,0,0,1-.91,0,0.74,0.74,0,0,0-.33-0.06,0.71,0.71,0,0,1-.32-0.07,1.13,1.13,0,0,0-.46-0.23,0.49,0.49,0,0,1-.33-0.36A1.49,1.49,0,0,1,108,41c0-.33,0-0.6,0-0.81a13,13,0,0,1,.06-1.33q0.07-.62.2-1.92c0-.17,0-0.4,0-0.68s0.06-.6.1-0.94V34.82a8.16,8.16,0,0,1,.19-1.23V33.13a0.8,0.8,0,0,1,.1-0.26,1.17,1.17,0,0,0,.1-0.52,6.81,6.81,0,0,1,.1-1.23q0.1-.52.2-1t0.19-1q0.1-.55.16-1.4V27.28a0.5,0.5,0,0,1,.52-0.52,2.87,2.87,0,0,0,.39-0.16,2.25,2.25,0,0,1,.46-0.16l0.39,0.06h0.52a3.89,3.89,0,0,0,.58-0.06,1.27,1.27,0,0,1,.65.26,0.57,0.57,0,0,1,.33.58,0.57,0.57,0,0,0-.06.26q-0.07.45-.1,1a4.68,4.68,0,0,0,0,1l-0.13.58a1.5,1.5,0,0,1,0,.29,1.46,1.46,0,0,0,0,.29,3.3,3.3,0,0,0-.06.65,1.51,1.51,0,0,1,.26-0.39,3.88,3.88,0,0,1,.45-0.58,1.06,1.06,0,0,1,.33-0.39,1.05,1.05,0,0,0,.33-0.39l0.26-.26,0.26-.26a1.42,1.42,0,0,1,.45-0.49,1.68,1.68,0,0,0,.46-0.42,6.65,6.65,0,0,0,.65-0.58l0.36-.26L117,27A3,3,0,0,0,118,26.3a1.06,1.06,0,0,1,1.07,0,4,4,0,0,0,.59.13q0.39,0.07.78,0.16a5.62,5.62,0,0,1,.71.23,0.61,0.61,0,0,1,.39.33,6.85,6.85,0,0,0,.33.68,1.41,1.41,0,0,1,.16.39,1,1,0,0,1,0,.36,4.42,4.42,0,0,1-.16.59l-0.2.78a0.51,0.51,0,0,0,0,.36,0.51,0.51,0,0,1,0,.36,0.52,0.52,0,0,0,0,.33,2.44,2.44,0,0,1,0,.39,2.35,2.35,0,0,0-.1.42,2.55,2.55,0,0,1-.1.42,3,3,0,0,0-.06.58,3.07,3.07,0,0,1-.06.58,6.31,6.31,0,0,0-.1.68q0,0.36-.1.75a3.44,3.44,0,0,1-.1.46,7.68,7.68,0,0,0-.16.88,8.14,8.14,0,0,1-.16.88,3.52,3.52,0,0,0-.1.46,1.44,1.44,0,0,0,0,.29,0.45,0.45,0,0,1,0,.29q-0.07.58-.19,1.2t-0.26,1.14a2.38,2.38,0,0,1,0,.39,2,2,0,0,0,0,.33,1.22,1.22,0,0,0-.06.39,1.25,1.25,0,0,1-.06.39,3,3,0,0,0-.06.58,2.16,2.16,0,0,1-.06.52l0,0.1c0-.06,0,0,0,0.1-0.17.35-.13,0.52,0.13,0.52,0.09,0,.11,0,0.06-0.1s0-.16.2-0.29a0.38,0.38,0,0,0,.26-0.33,0.56,0.56,0,0,1,.19-0.39,0.58,0.58,0,0,0,.07-0.16,0.57,0.57,0,0,1,.06-0.16,0.28,0.28,0,0,0,.06-0.29,0.17,0.17,0,0,1,.06-0.23l0.29-.49a3.58,3.58,0,0,0,.23-0.49c0.09-.22.17-0.41,0.26-0.58s0.17-.37.26-0.58a8,8,0,0,1,.32-0.81,8,8,0,0,0,.33-0.81q0.13-.32.29-0.88t0.23-.88c0.13-.35.26-0.66,0.39-0.94a6.13,6.13,0,0,0,.32-0.88q0.13-.32.26-0.71a4.89,4.89,0,0,1,.26-0.65l0.23-.58a5.27,5.27,0,0,1,.23-0.52,2.7,2.7,0,0,0,.29-0.68,1.13,1.13,0,0,1,.23-0.49,0.5,0.5,0,0,0,.19-0.07,0.59,0.59,0,0,1,.26-0.06l0.52,0.2C126.43,30.85,126.47,30.88,126.47,30.92Z" transform="translate(-22.2 -9.81)" style="fill:#01ccff"/><path d="M133.69,31.18a0.39,0.39,0,0,1,.19.2,0.36,0.36,0,0,1-.13.19q-0.26.52-.46,1t-0.46,1l-0.65,1.56q-0.33.78-.65,1.5a6.76,6.76,0,0,0-.49,1.72,5,5,0,0,1-.49,1.59,5,5,0,0,0-.36,1.27,2.62,2.62,0,0,1-.29.94,6,6,0,0,0-.94,1.53,0.91,0.91,0,0,1-1.2.42l-0.91-.16a0.62,0.62,0,0,1-.32-0.1l-0.13-.13a0.17,0.17,0,0,0-.16,0,0.17,0.17,0,0,1-.16,0,1.1,1.1,0,0,1-.46-0.52l-1.3-1.37V38.59a0.16,0.16,0,0,1,0-.19,0.26,0.26,0,0,0,.06-0.2q0.07-1.3.19-2.34t0.13-1.66q0.06-.75.06-0.88a3.28,3.28,0,0,1,.13-0.42,3.61,3.61,0,0,0,.13-0.42,1.82,1.82,0,0,0,.06-0.39V31.7q0.06-.84.13-1.75a8.87,8.87,0,0,1,.33-1.82,1,1,0,0,0,.13-0.39,2.78,2.78,0,0,0,.26-0.39l0.39-.46a0.76,0.76,0,0,1,.39-0.39l1,0.45a2.67,2.67,0,0,0,.81.65,1.87,1.87,0,0,1,.75,1.23,0.72,0.72,0,0,0-.29.58c-0.06.35-.12,0.75-0.16,1.2s-0.08.89-.1,1.3a3.92,3.92,0,0,1-.1.81,3.51,3.51,0,0,0-.13,1,5.11,5.11,0,0,1-.13,1.1,1.93,1.93,0,0,1-.1.62c-0.06.19-.12,0.38-0.16,0.55q-0.07.72-.2,1.85a8.27,8.27,0,0,0-.06,1.72V40s0-.09.19-0.26l0.39-.58a3.48,3.48,0,0,0,.42-0.85q0.29-.71.36-0.84l0.45-.78a2.51,2.51,0,0,1,.2-0.52l0.29-.58,0.36-.71q0.19-.39.42-0.81t0.42-.88q0.45-.78.84-1.5a3.08,3.08,0,0,1,.46-0.84V30.66h0.06s0.13,0,.26.06l0.13,0.13h0.13L133.62,31Zm-5.59-5.59a1.11,1.11,0,0,1-.58-0.19l-0.81-1a1.69,1.69,0,0,1-.36-0.62,1.19,1.19,0,0,1,0-.55l0.2-.88a0.54,0.54,0,0,0,.06-0.23,0.52,0.52,0,0,1,.06-0.23,1.36,1.36,0,0,1,.91-1,1.14,1.14,0,0,1,.71,0,3,3,0,0,1,1.1.81L129.69,22a0.75,0.75,0,0,1,.23.39q0.19,0.65.42,1.33a1.25,1.25,0,0,1-.42,1.33l-0.71.58a0.35,0.35,0,0,1-.33.1Z" transform="translate(-22.2 -9.81)" style="fill:#01ccff"/><path d="M151.56,11.29a4.21,4.21,0,0,1,.55,2.15,13.62,13.62,0,0,1-.62,2.34,6.29,6.29,0,0,1-.32,1,13.7,13.7,0,0,1-1,1.95l-0.94,1.4a5,5,0,0,1-1.07,1.2,7.73,7.73,0,0,0-.94,1,4.36,4.36,0,0,1-.68.71,0.94,0.94,0,0,1-.19.16,0.94,0.94,0,0,0-.2.16,1.74,1.74,0,0,0-.42.42,1.77,1.77,0,0,1-.49.42,7.7,7.7,0,0,1,0,.85,3.58,3.58,0,0,0,0,.46,4.59,4.59,0,0,1,0,.49l-0.1.88a7.12,7.12,0,0,0-.13,1.27v0.68a1.47,1.47,0,0,1-.06.46,1.43,1.43,0,0,0-.06.46q-0.07.52-.1,0.94a4.5,4.5,0,0,1-.16.88q-0.07.59-.1,1.17t-0.1,1.23a4.67,4.67,0,0,0-.06.78,4.83,4.83,0,0,1-.06.78l-0.13,1a7.11,7.11,0,0,0-.06.94Q144,38.53,144,39.21a1.45,1.45,0,0,1-.13.81L144,40.28v0.26a1.87,1.87,0,0,1,0,.84,1.19,1.19,0,0,1,.26-0.65l0.52-.85,0.58-1.1,0.65-1,1.5-2.41,1-2,0.45-1,0.65-1.43a1.38,1.38,0,0,0,.26-0.33l0.58,0.2a0.37,0.37,0,0,1,.13.19,0.83,0.83,0,0,1-.06.52,1.13,1.13,0,0,1-.13.32,1.69,1.69,0,0,0-.06.52,0.87,0.87,0,0,1-.1.39,2.94,2.94,0,0,0-.16.39,7.57,7.57,0,0,1-.36,1.07q-0.16.36-.42,0.81-0.13.26-.26,0.58a8.07,8.07,0,0,0-.26.78q-0.33.78-.68,1.53t-0.68,1.46q-0.2.46-.42,0.88t-0.42.88c-0.17.35-.35,0.71-0.52,1.11a5.73,5.73,0,0,1-.65,1.1,3.38,3.38,0,0,1-.65.78,1,1,0,0,1-.58.2,1.86,1.86,0,0,1-.62,0,2.56,2.56,0,0,1-.88-0.29,4.56,4.56,0,0,1-1.33-.88,3.19,3.19,0,0,1-.75-1.46l-0.13-.91c0-.3-0.09-0.63-0.13-1a3.29,3.29,0,0,1-.06-0.65,3.34,3.34,0,0,0-.06-0.65,5.76,5.76,0,0,1,.06-0.88,5,5,0,0,0,.06-0.75,10.56,10.56,0,0,1,.1-1.23q0.1-.78.23-1.69c-0.26.3-.54,0.67-0.84,1.1l-0.88,1.24-0.78,1.07a6.2,6.2,0,0,0-.42.62,2.9,2.9,0,0,1-.36.58q-0.36.52-.81,1.14l-1.17,1.59a6.13,6.13,0,0,0-.68.33,1,1,0,0,1-.81.06l-0.88-.2a1.16,1.16,0,0,1-.62-0.58q-0.59-.91-1-1.59a3.68,3.68,0,0,1-.49-1.72q-0.06-.78-0.1-1.53a3.8,3.8,0,0,1,.23-1.46q0.26-.71.65-1.66T132.52,31q0.45-1,1-1.88a8.84,8.84,0,0,1,1-1.5,12.44,12.44,0,0,1,1-.91,12.24,12.24,0,0,0,1-.91,2.83,2.83,0,0,1,3.18-.58,4.51,4.51,0,0,0,.88.23,6.08,6.08,0,0,1,1.07.29,2.13,2.13,0,0,1,.13-0.52,4.2,4.2,0,0,0,.13-0.58,1,1,0,0,1,0-.26,1.07,1.07,0,0,0,0-.26,26.1,26.1,0,0,1,.65-3.9q0.45-1.82,1-3.83,0.26-.71.55-1.43t0.62-1.36l0.65-1.56a5.9,5.9,0,0,1,.85-1.43q0.52-.45.75-0.68a1.51,1.51,0,0,1,1.14-.1q0.71,0.19,1.43.36a9.31,9.31,0,0,1,1.36.42,0.65,0.65,0,0,1,.36.23C151.42,10.93,151.48,11.07,151.56,11.29ZM141.1,30.07c0-.09,0-0.39.13-0.91s0.17-1.08.26-1.69l-0.75.16-1.07.23a1.07,1.07,0,0,0-.91.78,3.36,3.36,0,0,1-.42.52l-0.49.52q-0.19.26-.85,1.4t-1.3,2.5q-0.65,1.36-1.14,2.6a4.07,4.07,0,0,0-.42,1.63,11.5,11.5,0,0,0,2.76-2.63q1.07-1.46,2.37-3.09a7.45,7.45,0,0,1,.55-0.62l0.62-.62,0.58-.39a0.45,0.45,0,0,1,0-.19A0.45,0.45,0,0,0,141.1,30.07Zm8.38-16.9a0.8,0.8,0,0,1,.2-0.58c0.13-.13.15-0.22,0.06-0.26a0.19,0.19,0,0,0-.13-0.06,0.49,0.49,0,0,1-.2-0.06l-0.06.06a0.37,0.37,0,0,1-.19.13,4.8,4.8,0,0,0-.36.55,2.68,2.68,0,0,0-.29.55,3.3,3.3,0,0,0-.36.62l-0.36.81a14.86,14.86,0,0,0-.52,1.43c-0.09.26-.17,0.51-0.26,0.75s-0.17.47-.26,0.68a4.42,4.42,0,0,0-.19.58,2.58,2.58,0,0,1-.19.52q-0.13.39-.33,1t-0.33,1a2.36,2.36,0,0,0-.16.65,2.57,2.57,0,0,1-.1.52l0.65-1.17a6.06,6.06,0,0,1,.55-0.49,1.31,1.31,0,0,0,.42-0.55q0.13-.26.46-0.84t0.46-.85a6.29,6.29,0,0,0,.45-1.36A6.84,6.84,0,0,0,148.7,16a0.51,0.51,0,0,0,.06-0.19,0.19,0.19,0,0,1,.06-0.13q0.13-.65.2-0.91a4,4,0,0,0,.13-0.65,1.42,1.42,0,0,1,.19-0.52A0.7,0.7,0,0,0,149.48,13.17Z" transform="translate(-22.2 -9.81)" style="fill:#01ccff"/><path d="M165.6,31a0.51,0.51,0,0,1-.06.19l-0.13.26-0.13.26a4.88,4.88,0,0,0-.23.78,3.1,3.1,0,0,1-.42,1,5.56,5.56,0,0,1-.36.72q-0.23.39-.42,0.78l-0.52.78-0.52.78-0.33.55a4.76,4.76,0,0,1-.32.49q-0.2.26-.39,0.49a1.91,1.91,0,0,1-.39.36,2.17,2.17,0,0,1-.91.58,1.82,1.82,0,0,0-.58.29,2.23,2.23,0,0,1-.52.29c-0.09.09-.26,0.29-0.52,0.62a9.34,9.34,0,0,1-.91,1q-0.52.49-1,.91a1.53,1.53,0,0,1-.78.42,6.56,6.56,0,0,0-1,.23,1.88,1.88,0,0,1-.65.1h-0.65a3.8,3.8,0,0,1-.91-0.13l-0.81-.16c-0.33-.06-0.64-0.14-0.94-0.23a3,3,0,0,1-.81-0.36,1.67,1.67,0,0,1-.55-0.55,5.51,5.51,0,0,1-.42-1,4.44,4.44,0,0,0-.55-1.11,3,3,0,0,1-.16-0.52,3.41,3.41,0,0,1-.1-0.46,5.16,5.16,0,0,1-.06-0.94v-1.3q0-.68,0-1.27a7.06,7.06,0,0,1,.1-0.91q0.07-.32.1-0.58a4.58,4.58,0,0,0,0-.58,0.31,0.31,0,0,1,.1-0.23,0.26,0.26,0,0,0,.1-0.16c0-.09,0-0.13,0-0.13s0,0,0-.13q0.2-.65.29-1a3.55,3.55,0,0,1,.49-0.94,2.54,2.54,0,0,1,.29-0.42,3.65,3.65,0,0,0,.29-0.36,1,1,0,0,1,.26-0.46,5.62,5.62,0,0,1,.72-0.71l0.65-.26a2.59,2.59,0,0,0,.65-0.39,1,1,0,0,1,.39-0.13l0.65,0.06q0.71,0.07,1.07.07a4.53,4.53,0,0,1,1.07.19l0.42,0.1,0.23,0.1L156.57,28a0.5,0.5,0,0,0,.36,0l0.29-.13a1.93,1.93,0,0,1,1-.19,2.08,2.08,0,0,1,.78.26,3.81,3.81,0,0,1,.58.58,1.56,1.56,0,0,1,.26.39,0.41,0.41,0,0,0,.19.19,2.88,2.88,0,0,1,.71,1.1,3.52,3.52,0,0,1,.2.72,5,5,0,0,0,.19.78q0.06,0.33.1,0.65c0,0.22,0,.43,0,0.65s0,0.29,0,.62-0.06.68-.1,1.07-0.13.91-.26,1.56c-0.13.22-.22,0.37-0.26,0.45s-0.11.24-.19,0.46a1.13,1.13,0,0,0,.42-0.36q0.16-.23.49-0.62a4.34,4.34,0,0,1,.39-0.46,6.52,6.52,0,0,0,.46-0.52,4.34,4.34,0,0,1,.29-0.39,2.41,2.41,0,0,0,.29-0.46q0.13-.32.26-0.58t0.26-.58a3.62,3.62,0,0,1,.29-0.49l0.29-.42a1.62,1.62,0,0,0,.16-0.49,0.61,0.61,0,0,1,.16-0.36,2.37,2.37,0,0,1,.13-0.33l0.13-.26a0.3,0.3,0,0,0,.1-0.2h0.23a0.49,0.49,0,0,1,.29,0,0.46,0.46,0,0,0,.29.16Zm-9.29,8a0.49,0.49,0,0,0,.23-0.26,1.1,1.1,0,0,1,.16-0.32,2.07,2.07,0,0,1-.55-1q-0.23-.78-0.49-1.5a4.34,4.34,0,0,1-.33-1.69,12.17,12.17,0,0,1,.06-1.43V32.67q0.06-.65.1-1.75a4.24,4.24,0,0,1,.55-2,0.49,0.49,0,0,0-.19.16c0,0.06-.09.08-0.13,0a1.91,1.91,0,0,0-1.3.39,3,3,0,0,0-.91.91,0.68,0.68,0,0,0-.36.36,1.45,1.45,0,0,0,0,.29,0.81,0.81,0,0,1-.06.29,1.22,1.22,0,0,1-.46.42,2.5,2.5,0,0,1-.13.55,3.43,3.43,0,0,0-.13,1q-0.07.59-.2,1.33a8.46,8.46,0,0,0-.13,1.46v1.66a3.4,3.4,0,0,0,.13,1.14,0.53,0.53,0,0,1,.2.33,0.57,0.57,0,0,0,.06.26,0.91,0.91,0,0,0,.16.13,1.45,1.45,0,0,1,.29.46c0.13,0.22.25,0.3,0.36,0.26a2.63,2.63,0,0,1,.75-0.06l0.84-.13,0.78-.58a2.11,2.11,0,0,0,.32-0.26A3.81,3.81,0,0,1,156.31,39Zm2.79-6.7a1.25,1.25,0,0,0,.06-0.39l-0.26-1.56a0.37,0.37,0,0,0-.13-0.2c-0.09,0-.14,0-0.16-0.23a2.53,2.53,0,0,0-.1-0.49,2,2,0,0,0-.71.19,4.47,4.47,0,0,0-.39,1.17,7.79,7.79,0,0,0-.19,1.75v0.13a5.25,5.25,0,0,0,.52,2.15,8,8,0,0,1,.19.85,3.35,3.35,0,0,0,.19.71,0.19,0.19,0,0,0,.06-0.13c0-.13.12-0.34,0.23-0.62s0.21-.57.29-0.88,0.16-.6.23-0.88a3.23,3.23,0,0,0,.1-0.55Z" transform="translate(-22.2 -9.81)" style="fill:#01ccff"/><path d="M188.22,31.11v0.13l-0.26.52a7.69,7.69,0,0,0-.52,1.89c-0.09.35-.16,0.66-0.23,0.94a5.11,5.11,0,0,1-.23.75,10.54,10.54,0,0,0-.33,1q-0.19.72-.52,1.63-0.13.59-.32,1.23t-0.33,1.23L185,41.84a3.8,3.8,0,0,1-.32.78,2.18,2.18,0,0,1-.29.39l-0.52.58c-0.2.22-.39,0.42-0.58,0.62a2.13,2.13,0,0,1-.42.36,1.34,1.34,0,0,1-.88,0,7.63,7.63,0,0,1-1-.29,8.54,8.54,0,0,1-.85-0.2,1.39,1.39,0,0,1-.52-0.58l-0.52-.75a5.15,5.15,0,0,1-.32-0.55,1.9,1.9,0,0,1-.23-1.07,10.47,10.47,0,0,1,.16-1.33,1.84,1.84,0,0,0,0-.68,3.74,3.74,0,0,1-.06-0.68,1.94,1.94,0,0,1,.1-0.62,1.94,1.94,0,0,0,.1-0.62c0-.35.09-0.67,0.13-1s0.09-.59.13-0.85a4.61,4.61,0,0,1,0-.58,4.27,4.27,0,0,1,.1-0.52,2.33,2.33,0,0,0-.49.52l-0.65.88q-0.36.49-.65,0.94a3.48,3.48,0,0,0-.36.65q-0.72,1-1.1,1.66t-1.1,1.66a4.51,4.51,0,0,0-.65.33,1,1,0,0,1-.78.06l-0.88-.19a1.41,1.41,0,0,1-.68-0.58q-0.65-.91-1.1-1.62a4.14,4.14,0,0,1-.58-1.69q-0.13-.78-0.19-1.53a4.16,4.16,0,0,1,.13-1.46q0.39-1.43.78-2.67a6.51,6.51,0,0,1,1.37-2.34,6.66,6.66,0,0,1,.91-1q0.45-.39,1-0.91a3.48,3.48,0,0,1,1.37-.78,4.28,4.28,0,0,1,1.82.19q0.59,0.2,1.72.49a3.13,3.13,0,0,1,1.59.81,3.4,3.4,0,0,1,.46.78q0.19,0.46-.46.39a2.8,2.8,0,0,0-1.53-.26q-0.49.13-1.72,0.39a4.54,4.54,0,0,0-.55.26,0.89,0.89,0,0,0-.36.52,1.25,1.25,0,0,1-.33.52q-0.33.39-.46,0.52a8.73,8.73,0,0,0-.62,1.1q-0.42.85-.81,1.85t-0.68,1.92a2.34,2.34,0,0,0-.16,1.3q0.78-.59,1.36-1.1a8.26,8.26,0,0,0,1-1.1q0.45-.59.91-1.23t1-1.43a7.54,7.54,0,0,1,.55-0.62l0.62-.62a0.81,0.81,0,0,1,.78-0.39,6,6,0,0,0,1.1.33,4,4,0,0,1,.78.23,0.82,0.82,0,0,1,.29.23,3.85,3.85,0,0,1,.23.36,1.61,1.61,0,0,0,.52.49,1.06,1.06,0,0,1,.49.81q0,0.49.1,0.94a0.61,0.61,0,0,0-.1.49,1.84,1.84,0,0,1-.1.75,4.94,4.94,0,0,0-.16,1.11,7.49,7.49,0,0,1-.16,1.23,10.6,10.6,0,0,0-.19,1.17,8.49,8.49,0,0,1-.2,1.11,8.1,8.1,0,0,0-.06,1,2.2,2.2,0,0,1-.13.81,2.61,2.61,0,0,0,.55-0.68,10,10,0,0,0,.75-1.46q0.13-.33.26-0.71l0.26-.78,0.39-.78a6.07,6.07,0,0,0,.33-0.78,3.32,3.32,0,0,1,.36-0.75,3.42,3.42,0,0,0,.36-0.75q0.13-.32.29-0.68t0.29-.68a3.88,3.88,0,0,0,.36-0.78,1.1,1.1,0,0,1,.23-0.46,7.45,7.45,0,0,0,.29-0.78c0.06-.22.14-0.43,0.23-0.65,0,0,0-.07,0-0.07s0,0,0-.06h0.13a0.21,0.21,0,0,1,.2.13l0.06-.07,0.13,0.07a1,1,0,0,1,.39.13h0.06L188.22,31v0.06Z" transform="translate(-22.2 -9.81)" style="fill:#01ccff"/><path d="M197.65,11.94q0.26,0.72.46,1.17a3.62,3.62,0,0,1,.26.91,3,3,0,0,1,0,1,10.29,10.29,0,0,1-.36,1.3c0,0.17-.09.32-0.13,0.46s-0.11.3-.19,0.52a13.65,13.65,0,0,1-1,1.95q-0.39.59-1,1.4a5.53,5.53,0,0,1-1.1,1.2q-0.52.52-.91,1a5.48,5.48,0,0,1-.72.71l-0.32.33a3.62,3.62,0,0,1-.65.46,5.88,5.88,0,0,0-.71.45q0,0.2-.13,1.24t-0.29,2.21q-0.16,1.17-.29,2.18c-0.09.67-.13,1.07-0.13,1.2a5.41,5.41,0,0,1-.07,1,9.32,9.32,0,0,1-.19,1.82c0,0.35-.08.73-0.1,1.14s-0.05.81-.1,1.2-0.08.52-.1,0.78,0,0.52,0,.78q-0.13,1.82-.16,3.12a2.65,2.65,0,0,1-.23,1.43,0.59,0.59,0,0,1,.06.26v0.26a2.15,2.15,0,0,1,.06.88,1,1,0,0,1,.26-0.62l0.52-.91,0.59-1,0.65-1,1.3-2.41,0.85-2.08,0.71-1.56,0.46-1.11,1.1-2.53,0.26-.26a0.27,0.27,0,0,1,.2.06,0.26,0.26,0,0,0,.19.07,1.84,1.84,0,0,1,.52.19,0.63,0.63,0,0,1-.06.71c-0.09.22-.17,0.46-0.26,0.72s-0.17.5-.26,0.71-0.09.34-.13,0.49-0.11.34-.2,0.55l-0.29.71q-0.16.39-.36,0.78a1.59,1.59,0,0,0-.16.52,1.62,1.62,0,0,1-.16.52q-0.33.72-.65,1.33a5.14,5.14,0,0,0-.45,1.14q-0.33.72-.62,1.5T193,42.16l-0.39.91-0.39.91c-0.17.35-.35,0.7-0.52,1.07a9.08,9.08,0,0,1-.65,1.14,3.77,3.77,0,0,1-.65.71,1.44,1.44,0,0,1-.58.26,4.92,4.92,0,0,1-1.62-.46,3.26,3.26,0,0,1-1.3-.75,3.42,3.42,0,0,1-.65-1.46,4.52,4.52,0,0,1-.16-0.91c0-.3-0.05-0.61-0.1-0.91a3.54,3.54,0,0,1-.06-0.68,3.47,3.47,0,0,0-.06-0.68,5.26,5.26,0,0,1,.06-0.85,4.29,4.29,0,0,0,.06-0.71,10.54,10.54,0,0,1,.1-1.23q0.1-.78.19-1.62t0.23-1.66a8.78,8.78,0,0,0,.13-1.33,2,2,0,0,0,.07-0.49,2.86,2.86,0,0,1,.06-0.55c0-.09,0-0.42.13-1s0.18-1.22.29-1.92,0.19-1.33.26-1.92,0.1-.92.1-1h-0.06a0.13,0.13,0,0,0-.1,0,0.13,0.13,0,0,1-.1,0,0.1,0.1,0,0,0-.1.06,0.11,0.11,0,0,1-.1.06,0.36,0.36,0,0,1-.26,0,0.37,0.37,0,0,0-.26,0,0.88,0.88,0,0,0-.23.16,0.27,0.27,0,0,1-.16.1,0.37,0.37,0,0,1-.26-0.13,0.19,0.19,0,0,1-.13-0.06c-0.09-.13,0-0.24.13-0.32V27l0.2-.13a0.54,0.54,0,0,1,.13-0.1,0.49,0.49,0,0,0,.13-0.1,0.51,0.51,0,0,1,.19-0.06,0.19,0.19,0,0,0,.13-0.06,0.17,0.17,0,0,0,.16-0.06A0.35,0.35,0,0,1,187,26.3a1.13,1.13,0,0,1,.33-0.13l0.13-.13a0.5,0.5,0,0,0,.29-0.26c0-.09.05-0.24,0.1-0.46a0.58,0.58,0,0,0,.06-0.26V24.81a28.8,28.8,0,0,1,.75-3.9q0.49-1.82,1.07-3.9,0.26-.71.55-1.43t0.62-1.36q0.32-.71.65-1.53a5.72,5.72,0,0,1,.84-1.46,5.14,5.14,0,0,0,.75-0.65,1.37,1.37,0,0,1,1.14-.13q0.71,0.19,1.43.36a9.29,9.29,0,0,1,1.37.42,0.56,0.56,0,0,1,.36.26A2.08,2.08,0,0,0,197.65,11.94Zm-1.89,1.69a1.34,1.34,0,0,1,.07-0.52,0.13,0.13,0,0,0-.07-0.19,0.52,0.52,0,0,0-.32-0.07h-0.06l-0.2.2a1.44,1.44,0,0,0-.36.49,2.71,2.71,0,0,0-.29.55l-0.71,1.43q-0.33.85-.52,1.5-0.13.33-.26,0.68c-0.09.24-.17,0.47-0.26,0.68l-0.39,1.17c-0.09.22-.19,0.54-0.32,1s-0.24.76-.33,1a5.34,5.34,0,0,0-.19,1.17l1-1.24a2.64,2.64,0,0,1,.49-0.49,1.31,1.31,0,0,0,.42-0.55q0.13-.26.46-0.84t0.46-.85a2.7,2.7,0,0,0,.26-0.55q0.13-.36.26-0.81c0-.13.09-0.27,0.13-0.42s0.09-.29.13-0.42a0.44,0.44,0,0,1,0-.19,0.29,0.29,0,0,0,0-.13,1.63,1.63,0,0,0,.16-0.49,2.35,2.35,0,0,1,.1-0.42,1.16,1.16,0,0,0,.06-0.36,0.65,0.65,0,0,1,.06-0.29q0.06-.32.1-0.55A3,3,0,0,0,195.76,13.63Z" transform="translate(-22.2 -9.81)" style="fill:#01ccff"/><path d="M220.46,30.66l0.13,0.91a7,7,0,0,1,.06,1,6.48,6.48,0,0,1-.26,1.14c-0.13.41-.24,0.81-0.32,1.2s-0.19,1-.29,1.46a7.29,7.29,0,0,1-.49,1.46,11.35,11.35,0,0,1-.62,1.07L218,40q-0.33.46-.65,0.88t-0.65.88a2.85,2.85,0,0,1-.42.46,2.82,2.82,0,0,0-.42.46q-0.26.26-.49,0.46l-0.49.39c-0.35.26-.65,0.48-0.91,0.65a1.29,1.29,0,0,0-.39.46,0.86,0.86,0,0,1-.39.39,2.6,2.6,0,0,1-.94.33,8.78,8.78,0,0,0-1,.2,11.23,11.23,0,0,1-1.95.39,2.78,2.78,0,0,1-.85,0l-0.55-.16a1.84,1.84,0,0,1-.42-0.36A4.77,4.77,0,0,0,207,45a0.49,0.49,0,0,0-.55-0.1l-0.39,1.69a2.46,2.46,0,0,1-.46,1.11,0.49,0.49,0,0,1-.55.1l-0.94-.23-0.68-.16c-0.07,0-.09,0-0.07-0.06a0.08,0.08,0,0,0,0-.1,1.56,1.56,0,0,0-.49-0.26q-0.13-.26-0.29-0.16c-0.11.07-.21,0-0.29-0.16a1.51,1.51,0,0,1-.06-0.85c0-.43.11-1,0.19-1.56s0.17-.94.26-1.4l0.26-1.4q0.26-1.3.39-2.08a2,2,0,0,0,.06-0.49,2.9,2.9,0,0,1,.06-0.55,2.32,2.32,0,0,0,.16-0.84q0-.59.1-1.3T204,34.43q0.16-.91.29-1.82,0.13-1.1.19-1.92a3,3,0,0,1,.13-0.88,4.48,4.48,0,0,0,.2-0.72q0.13-.58.26-1.3t0.29-1.36q0.16-.65.29-1a1.54,1.54,0,0,0,.13-0.55,1.53,1.53,0,0,1,.13-0.55,5.87,5.87,0,0,1,.26-1,2.54,2.54,0,0,0,.16-0.55,2.46,2.46,0,0,1,.16-0.55,2.65,2.65,0,0,0,.29-1q0-.45.1-0.85a0.38,0.38,0,0,0,.06-0.26,0.48,0.48,0,0,1,.26-0.39h0.58a1.47,1.47,0,0,1,.49.23,0.93,0.93,0,0,0,.55.1l0.58,0.39a0.77,0.77,0,0,1,.52.23c0,0.07,0,.27-0.06.62s-0.1,1-.16,1.63a2.87,2.87,0,0,0,0,1,2.28,2.28,0,0,0,.52-0.36q0.45-.36.94-0.78t0.91-.84l0.55-.55a10.26,10.26,0,0,0,1-1.69,5.6,5.6,0,0,0,.13-1,4.5,4.5,0,0,1,.19-1.07,0.93,0.93,0,0,0,0-.68,0.79,0.79,0,0,0-.55-0.52Q213,16.23,212.07,16a1.67,1.67,0,0,0-.78.1,12.11,12.11,0,0,0-1.37.49l-1.33.52q-0.68.26-1.33,0.58-0.85.39-1.4,0.72a1.23,1.23,0,0,0-.62.58,7.38,7.38,0,0,0-.49.58,0.89,0.89,0,0,1-.36.19,3.67,3.67,0,0,0-.88.78,1.05,1.05,0,0,0-.23.58,1.43,1.43,0,0,0,.06.46,0.6,0.6,0,0,1-.06.45,0.19,0.19,0,0,1-.06.13,0.19,0.19,0,0,0-.06.13,0.06,0.06,0,0,1-.07.06,0.83,0.83,0,0,0-.32.42,0.23,0.23,0,0,1-.33.16,0.48,0.48,0,0,1-.36-0.16,3.25,3.25,0,0,0-.16-0.36q-0.32-.59-0.75-1.46a7.16,7.16,0,0,1-.55-1.46,2.11,2.11,0,0,1-.06-0.85,7,7,0,0,1,.32-0.71l0.33-.65a5.76,5.76,0,0,1,.33-0.58,8,8,0,0,1,1-1,7.88,7.88,0,0,1,1.24-.78l0.91-.46,0.46-.23a2.19,2.19,0,0,1,.46-0.16,8.34,8.34,0,0,0,.91-0.33,14.38,14.38,0,0,1,1.63-.49q0.71-.16,1.69-0.29a6,6,0,0,1,2.57.16q1.2,0.36,2.7.68a0.58,0.58,0,0,1,.39.13,0.64,0.64,0,0,0,.26.26,2,2,0,0,0,.88.49,1.46,1.46,0,0,1,.88.88q0.26,0.46.46,0.88a5.39,5.39,0,0,1,.32.94,4,4,0,0,1-.06,1.23q-0.13.65-.26,1.23a8,8,0,0,1-.58,1.89,3.72,3.72,0,0,1-.36.84,6,6,0,0,1-.49.72,1.24,1.24,0,0,1-.52.49,0.9,0.9,0,0,0-.46.55,6,6,0,0,1,2,.58,3.46,3.46,0,0,0,.39.23,1.25,1.25,0,0,1,.32.23,6.18,6.18,0,0,1,1,1.1l0.36,0.62a5.66,5.66,0,0,1,.29.62,5.78,5.78,0,0,1,.39,1.3,3.39,3.39,0,0,1,.16.78C220.38,30.07,220.42,30.36,220.46,30.66ZM217,32.42V31.73a3.55,3.55,0,0,0-.06-0.68,5.5,5.5,0,0,0-.13-1l-0.13-.62a4.13,4.13,0,0,0-.2-0.62,3.88,3.88,0,0,0-.58-1.1,2.62,2.62,0,0,0-1-1,2,2,0,0,0-1.82-.06,2.78,2.78,0,0,0-.71.46l-0.81.68a4.08,4.08,0,0,1-.91.58,1.16,1.16,0,0,1-.88.1,0.64,0.64,0,0,0-.58.13,5.65,5.65,0,0,0-.58,1.43q-0.13.52-.23,1c-0.06.35-.14,0.71-0.23,1.1s-0.09.53-.13,0.81l-0.13.81q-0.07.52-.1,1t-0.1.91a10.44,10.44,0,0,0-.16,1.33q0,0.62-.1,1.14a5.48,5.48,0,0,0-.06.75V39.5a2.15,2.15,0,0,1-.06.52,2.18,2.18,0,0,0-.13.68v0.42a0.28,0.28,0,0,0,.13.23,1.2,1.2,0,0,1,.26.29,2.72,2.72,0,0,0,1,.78,1.79,1.79,0,0,0,1.49,0,4.76,4.76,0,0,0,.58-0.26,2.7,2.7,0,0,1,.42-0.23,1.11,1.11,0,0,0,.36-0.23,6.22,6.22,0,0,0,.75-0.58q0.36-.32.68-0.65l0.52-.65,0.52-.65a5.79,5.79,0,0,0,.55-0.78q0.23-.39.49-0.78a7.87,7.87,0,0,1,.58-0.65,1.83,1.83,0,0,0,.46-0.71,2,2,0,0,0,.23-1,3.35,3.35,0,0,1,.1-1q0.19-.52.39-0.94A3.22,3.22,0,0,0,217,32.42Z" transform="translate(-22.2 -9.81)" style="fill:#01ccff"/><path d="M240.35,31.11v0.13l-0.26.52a7.71,7.71,0,0,0-.52,1.89q-0.13.52-.23,0.94a5.11,5.11,0,0,1-.23.75,10.6,10.6,0,0,0-.32,1q-0.2.72-.52,1.63c-0.09.39-.19,0.8-0.33,1.23s-0.24.84-.32,1.23l-0.46,1.37a3.85,3.85,0,0,1-.33.78,2.22,2.22,0,0,1-.29.39l-0.52.58c-0.2.22-.39,0.42-0.58,0.62a2.12,2.12,0,0,1-.42.36,1.34,1.34,0,0,1-.88,0,7.59,7.59,0,0,1-1-.29,8.48,8.48,0,0,1-.84-0.2,1.38,1.38,0,0,1-.52-0.58l-0.52-.75a5.22,5.22,0,0,1-.32-0.55,1.9,1.9,0,0,1-.23-1.07,10.38,10.38,0,0,1,.16-1.33,1.86,1.86,0,0,0,0-.68,3.66,3.66,0,0,1-.07-0.68,2,2,0,0,1,.1-0.62,1.93,1.93,0,0,0,.1-0.62q0.06-.52.13-1c0-.3.09-0.59,0.13-0.85a4.6,4.6,0,0,1,0-.58,4.27,4.27,0,0,1,.1-0.52,2.32,2.32,0,0,0-.49.52l-0.65.88q-0.36.49-.65,0.94a3.45,3.45,0,0,0-.36.65q-0.72,1-1.11,1.66T227,40.54a4.59,4.59,0,0,0-.65.33,1,1,0,0,1-.78.06l-0.88-.19a1.41,1.41,0,0,1-.68-0.58q-0.65-.91-1.1-1.62a4.15,4.15,0,0,1-.58-1.69q-0.13-.78-0.2-1.53a4.14,4.14,0,0,1,.13-1.46q0.39-1.43.78-2.67a6.49,6.49,0,0,1,1.37-2.34,6.64,6.64,0,0,1,.91-1q0.45-.39,1-0.91a3.48,3.48,0,0,1,1.37-.78,4.28,4.28,0,0,1,1.82.19q0.58,0.2,1.72.49a3.13,3.13,0,0,1,1.59.81,3.4,3.4,0,0,1,.46.78q0.19,0.46-.46.39a2.8,2.8,0,0,0-1.53-.26q-0.49.13-1.72,0.39a4.66,4.66,0,0,0-.55.26,0.89,0.89,0,0,0-.36.52,1.25,1.25,0,0,1-.32.52q-0.33.39-.46,0.52a8.65,8.65,0,0,0-.62,1.1q-0.42.85-.81,1.85t-0.68,1.92a2.34,2.34,0,0,0-.16,1.3q0.78-.59,1.37-1.1a8.22,8.22,0,0,0,1-1.1c0.3-.39.61-0.8,0.91-1.23s0.65-.91,1-1.43a7.44,7.44,0,0,1,.55-0.62l0.62-.62a0.81,0.81,0,0,1,.78-0.39,6,6,0,0,0,1.11.33,4,4,0,0,1,.78.23,0.81,0.81,0,0,1,.29.23,3.85,3.85,0,0,1,.23.36,1.62,1.62,0,0,0,.52.49,1.06,1.06,0,0,1,.49.81c0,0.33.05,0.64,0.1,0.94a0.61,0.61,0,0,0-.1.49,1.84,1.84,0,0,1-.1.75,5,5,0,0,0-.16,1.11,7.44,7.44,0,0,1-.16,1.23,10.6,10.6,0,0,0-.2,1.17,8.25,8.25,0,0,1-.2,1.11,8.19,8.19,0,0,0-.06,1,2.19,2.19,0,0,1-.13.81,2.62,2.62,0,0,0,.55-0.68,10,10,0,0,0,.75-1.46q0.13-.33.26-0.71l0.26-.78,0.39-.78a6,6,0,0,0,.33-0.78,3.32,3.32,0,0,1,.36-0.75,3.4,3.4,0,0,0,.36-0.75c0.09-.22.18-0.44,0.29-0.68s0.21-.46.29-0.68a3.85,3.85,0,0,0,.36-0.78,1.1,1.1,0,0,1,.23-0.46,7.32,7.32,0,0,0,.29-0.78c0.07-.22.14-0.43,0.23-0.65,0,0,0-.07,0-0.07s0,0,0-.06h0.13a0.21,0.21,0,0,1,.2.13l0.07-.07,0.13,0.07a1,1,0,0,1,.39.13h0.06L240.35,31v0.06Z" transform="translate(-22.2 -9.81)" style="fill:#01ccff"/><path d="M252.83,30.72a0.82,0.82,0,0,1,0,.46,0.58,0.58,0,0,0-.06.26,0.58,0.58,0,0,1-.07.26,8.17,8.17,0,0,1-.52,1.37,8.21,8.21,0,0,0-.52,1.36l-0.26.75a4.09,4.09,0,0,0-.2.75,1.81,1.81,0,0,1-.23.52,1.79,1.79,0,0,0-.23.52l-0.13.78a5.3,5.3,0,0,1-.19.78,3.18,3.18,0,0,1-.23.71c-0.15.39-.3,0.81-0.46,1.27s-0.3.89-.46,1.3-0.25.68-.29,0.81a2,2,0,0,0-.13.75,1.17,1.17,0,0,1-.26.75,2.64,2.64,0,0,0-.13.46,4.82,4.82,0,0,1,0,.58,1.11,1.11,0,0,1-.36.58q-0.33.26-.81,0.71a3,3,0,0,1-.81.58,1,1,0,0,1-.81-0.13,2.93,2.93,0,0,0-.88-0.33,1.46,1.46,0,0,1-.36-0.06,1,1,0,0,1-.42-0.26,3.63,3.63,0,0,1-.68-0.58,2.7,2.7,0,0,1-.36-0.46,0.84,0.84,0,0,1-.1-0.55,1.48,1.48,0,0,0-.1-0.68,0.64,0.64,0,0,1-.1-0.68,1.32,1.32,0,0,0,.16-0.75,2,2,0,0,1-.13-0.84,3,3,0,0,1,.07-0.71,2,2,0,0,1,.06-0.58,1.55,1.55,0,0,0,0-.29,1.5,1.5,0,0,1,0-.29c0-.26.1-0.53,0.16-0.81s0.12-.57.16-0.88a1.24,1.24,0,0,0,.07-0.39,1.18,1.18,0,0,1,.07-0.39,1.84,1.84,0,0,1,0-.36,3.09,3.09,0,0,1,.1-0.36s0-.28.07-0.71,0.09-.91.13-1.43,0.09-1,.13-1.43,0.06-.69.06-0.78a6.62,6.62,0,0,0,.1-0.71,6.19,6.19,0,0,1,.1-0.71A2.34,2.34,0,0,0,244,30.2a0.65,0.65,0,0,0,.06-0.29,0.64,0.64,0,0,1,.07-0.29,2.22,2.22,0,0,0,.1-0.75,2.54,2.54,0,0,1,0-.36,0.06,0.06,0,0,0,.06-0.06l-0.32-.32a1.55,1.55,0,0,0-.71-0.33,1.12,1.12,0,0,1-.33-0.16,1.81,1.81,0,0,0-.26-0.16,0.71,0.71,0,0,1-.2-0.13q-0.06.19-.42,1L241.23,30l-0.78,1.66a6.39,6.39,0,0,1-.42.81,1.09,1.09,0,0,0-.36.58,0.35,0.35,0,0,1-.23.32,0.25,0.25,0,0,1-.29-0.13,1.33,1.33,0,0,0-.68-0.32,7.49,7.49,0,0,1,.46-1.33q0.33-.75.52-1.33c0.09-.22.17-0.46,0.26-0.72s0.17-.5.26-0.71a4.36,4.36,0,0,0,.39-1.3q0.13-.59.23-0.88a1.37,1.37,0,0,0,.06-0.58,1.33,1.33,0,0,0-.23-0.58l-0.59-.88a2.24,2.24,0,0,1-.32-2.54,1.66,1.66,0,0,1,.88-0.81,2.68,2.68,0,0,1,1.27.16c0.26,0.09.52,0.16,0.78,0.23a1.38,1.38,0,0,1,.72.49l0.55,0.68a1,1,0,0,1,.16.75,3.74,3.74,0,0,1,0,.65,1.43,1.43,0,0,1-.36.46,1.15,1.15,0,0,1-.52.36c-0.13,0,0,.12.26,0.29a0.8,0.8,0,0,1,.19.13,0.72,0.72,0,0,0,.19.13l0.88,0.52a4.69,4.69,0,0,0,.94.46,4.47,4.47,0,0,1,.46.26,2.82,2.82,0,0,0,.52.26l0.33,0.16a3.84,3.84,0,0,1,.39.23,0.41,0.41,0,0,1,.26.2,0.85,0.85,0,0,0,.26.46l0.06,0.26c0,0.09,0,.13,0,0.13s0,0,0,.13l0.13,0.26-0.07.19a0.53,0.53,0,0,0-.06.23,0.54,0.54,0,0,1-.06.23l0.13,0.26c0,0.35-.08.67-0.1,1s0,0.56,0,.78l-0.07-.06a0.13,0.13,0,0,1,0,.1,0.13,0.13,0,0,0,0,.1c0,0.13,0,.44-0.1.94s-0.13,1-.19,1.59-0.13,1.08-.2,1.56a9,9,0,0,0-.1.91v0.59a0.43,0.43,0,0,0,0,.29,1.84,1.84,0,0,1,0,.36c-0.09.35-.17,0.73-0.26,1.14s-0.15.79-.19,1.14a1.18,1.18,0,0,0-.07.39,0.72,0.72,0,0,1-.07.32,2.39,2.39,0,0,1,0,.39,2.28,2.28,0,0,0,0,.39c0,0.22-.08.41-0.1,0.58a4.6,4.6,0,0,1-.1.52c0,0.13,0,.16,0,0.1l0,0.1v0.26c0,0.13,0,.17.06,0.13a0.19,0.19,0,0,1,.1-0.07,0.18,0.18,0,0,0,.1-0.06,0.52,0.52,0,0,0,.26-0.36,0.79,0.79,0,0,1,.2-0.42,0.19,0.19,0,0,0,.06-0.13,0.18,0.18,0,0,1,.07-0.13,3.54,3.54,0,0,1,.19-0.36,1.46,1.46,0,0,1,.19-0.23,3.64,3.64,0,0,1,.23-0.49,3.6,3.6,0,0,0,.23-0.49,9.43,9.43,0,0,0,.52-1.23,2.35,2.35,0,0,1,.42-0.75,2.34,2.34,0,0,0,.42-0.75l0.39-1.37a3.3,3.3,0,0,1,.39-0.94,3.33,3.33,0,0,0,.39-0.94q0.13-.26.39-0.88c0.17-.41.3-0.7,0.39-0.88l0.23-.59a5.38,5.38,0,0,1,.23-0.52,6.07,6.07,0,0,0,.23-0.68,1.13,1.13,0,0,1,.23-0.49,0.13,0.13,0,0,0,.1,0,0.25,0.25,0,0,1,.16,0l0.46,0.06C252.79,30.66,252.83,30.68,252.83,30.72Z" transform="translate(-22.2 -9.81)" style="fill:#01ccff"/><path d="M277.79,11.29a4.21,4.21,0,0,1,.55,2.15,13.61,13.61,0,0,1-.62,2.34,6.31,6.31,0,0,1-.33,1,13.66,13.66,0,0,1-1,1.95l-0.94,1.4a5,5,0,0,1-1.07,1.2,7.76,7.76,0,0,0-.94,1,4.36,4.36,0,0,1-.68.71,0.94,0.94,0,0,1-.19.16,0.9,0.9,0,0,0-.2.16,1.74,1.74,0,0,0-.42.42,1.76,1.76,0,0,1-.49.42,7.66,7.66,0,0,1,0,.85,3.76,3.76,0,0,0,0,.46,4.59,4.59,0,0,1,0,.49l-0.1.88a7.08,7.08,0,0,0-.13,1.27v0.68a1.45,1.45,0,0,1-.07.46,1.45,1.45,0,0,0-.06.46q-0.07.52-.1,0.94a4.53,4.53,0,0,1-.16.88q-0.07.59-.1,1.17t-0.1,1.23a4.67,4.67,0,0,0-.06.78,4.89,4.89,0,0,1-.07.78l-0.13,1a7,7,0,0,0-.07.94q-0.07,1.11-.07,1.79a1.46,1.46,0,0,1-.13.81l0.13,0.26v0.26a1.87,1.87,0,0,1,0,.84,1.19,1.19,0,0,1,.26-0.65l0.52-.85,0.58-1.1,0.65-1,1.5-2.41,1-2,0.46-1,0.65-1.43a1.42,1.42,0,0,0,.26-0.33l0.58,0.2a0.37,0.37,0,0,1,.13.19,0.83,0.83,0,0,1-.07.52,1.15,1.15,0,0,1-.13.32,1.71,1.71,0,0,0-.06.52,0.87,0.87,0,0,1-.1.39,2.88,2.88,0,0,0-.16.39,7.51,7.51,0,0,1-.36,1.07q-0.16.36-.42,0.81-0.13.26-.26,0.58a8.08,8.08,0,0,0-.26.78q-0.33.78-.68,1.53t-0.68,1.46c-0.13.3-.27,0.6-0.42,0.88s-0.29.57-.42,0.88-0.35.71-.52,1.11a5.73,5.73,0,0,1-.65,1.1,3.4,3.4,0,0,1-.65.78,1,1,0,0,1-.59.2,1.86,1.86,0,0,1-.62,0,2.56,2.56,0,0,1-.88-0.29,4.57,4.57,0,0,1-1.33-.88,3.18,3.18,0,0,1-.75-1.46l-0.13-.91c0-.3-0.09-0.63-0.13-1a3.26,3.26,0,0,1-.07-0.65,3.34,3.34,0,0,0-.06-0.65,5.82,5.82,0,0,1,.06-0.88,5,5,0,0,0,.07-0.75,10.45,10.45,0,0,1,.1-1.23c0.07-.52.14-1.08,0.23-1.69-0.26.3-.54,0.67-0.84,1.1l-0.88,1.24-0.78,1.07a6.06,6.06,0,0,0-.42.62,2.9,2.9,0,0,1-.36.58q-0.36.52-.81,1.14l-1.17,1.59a6.16,6.16,0,0,0-.68.33,1,1,0,0,1-.81.06l-0.88-.2a1.16,1.16,0,0,1-.62-0.58l-1-1.59a3.68,3.68,0,0,1-.49-1.72q-0.06-.78-0.1-1.53a3.78,3.78,0,0,1,.23-1.46q0.26-.71.65-1.66T258.74,31q0.45-1,1-1.88a8.87,8.87,0,0,1,1-1.5,12.27,12.27,0,0,1,1-.91,12.24,12.24,0,0,0,1-.91,2.83,2.83,0,0,1,3.18-.58,4.52,4.52,0,0,0,.88.23,6.06,6.06,0,0,1,1.07.29,2.13,2.13,0,0,1,.13-0.52,4.28,4.28,0,0,0,.13-0.58,1.08,1.08,0,0,1,0-.26,1.07,1.07,0,0,0,0-.26,26,26,0,0,1,.65-3.9q0.45-1.82,1-3.83,0.26-.71.55-1.43t0.62-1.36l0.65-1.56a5.91,5.91,0,0,1,.85-1.43q0.52-.45.75-0.68a1.51,1.51,0,0,1,1.14-.1q0.71,0.19,1.43.36a9.29,9.29,0,0,1,1.37.42,0.66,0.66,0,0,1,.36.23C277.65,10.93,277.7,11.07,277.79,11.29ZM267.32,30.07q0-.13.13-0.91t0.26-1.69l-0.75.16-1.07.23a1.07,1.07,0,0,0-.91.78,3.39,3.39,0,0,1-.42.52l-0.49.52q-0.19.26-.85,1.4t-1.3,2.5q-0.65,1.36-1.14,2.6a4.08,4.08,0,0,0-.42,1.63,11.5,11.5,0,0,0,2.76-2.63q1.07-1.46,2.37-3.09a7.46,7.46,0,0,1,.55-0.62l0.62-.62,0.59-.39a0.46,0.46,0,0,1,0-.19A0.45,0.45,0,0,0,267.32,30.07Zm8.38-16.9a0.8,0.8,0,0,1,.2-0.58q0.19-.19.06-0.26a0.19,0.19,0,0,0-.13-0.06,0.48,0.48,0,0,1-.2-0.06l-0.07.06a0.37,0.37,0,0,1-.19.13,4.59,4.59,0,0,0-.36.55,2.7,2.7,0,0,0-.29.55,3.24,3.24,0,0,0-.36.62l-0.36.81a14.62,14.62,0,0,0-.52,1.43c-0.09.26-.17,0.51-0.26,0.75s-0.17.47-.26,0.68a4.41,4.41,0,0,0-.19.58,2.61,2.61,0,0,1-.19.52c-0.09.26-.2,0.61-0.33,1s-0.24.76-.32,1a2.31,2.31,0,0,0-.16.65,2.68,2.68,0,0,1-.1.52l0.65-1.17a6.06,6.06,0,0,1,.55-0.49,1.32,1.32,0,0,0,.42-0.55q0.13-.26.46-0.84t0.46-.85a6.32,6.32,0,0,0,.45-1.36,6.83,6.83,0,0,0,.26-0.85,0.52,0.52,0,0,0,.06-0.19,0.19,0.19,0,0,1,.06-0.13q0.13-.65.2-0.91a4,4,0,0,0,.13-0.65,1.42,1.42,0,0,1,.19-0.52A0.7,0.7,0,0,0,275.71,13.17Z" transform="translate(-22.2 -9.81)" style="fill:#01ccff"/><path d="M290.2,30.79a0.86,0.86,0,0,0,.2.16s0,0.1-.07.23a1.54,1.54,0,0,0-.26.39,0.81,0.81,0,0,0-.2.33,0.83,0.83,0,0,1-.19.32c-0.09.22-.17,0.44-0.26,0.68a4,4,0,0,1-.33.68,3.35,3.35,0,0,1-.36.75l-0.42.68a11.37,11.37,0,0,0-.46,1.2,6.53,6.53,0,0,1-.52,1.2,3.34,3.34,0,0,0-.2.46,3,3,0,0,1-.26.52,5.25,5.25,0,0,1-.33.55c-0.13.2-.26,0.4-0.39,0.62a2,2,0,0,0-.23.49,2,2,0,0,1-.23.49,3.77,3.77,0,0,0-.42.62q-0.29.49-.62,1.07T284,43.33a2.32,2.32,0,0,1-.52.65,6.25,6.25,0,0,1-.58.42l-0.59.36a2.27,2.27,0,0,1-.94.39,5,5,0,0,1-.88.13,6.44,6.44,0,0,1-.81-0.07l-1-.16q-0.52-.1-1-0.23a1.51,1.51,0,0,1-.65-0.33,7.25,7.25,0,0,1-1.62-2.21q-0.58-1.23-1.1-2.54a4.22,4.22,0,0,1-.07-1V37.13q0-.88.07-1.66t0.06-1c0.09-.39.21-0.82,0.36-1.3a7.07,7.07,0,0,1,.55-1.3,5.78,5.78,0,0,0,.42-0.88l0.2-.55a3.35,3.35,0,0,1,.36-0.65,11.1,11.1,0,0,1,1-1.17q0.52-.52.85-0.91a5.91,5.91,0,0,1,.91-0.85q0.32-.26,1-0.78a3.3,3.3,0,0,1,1-.58,7.29,7.29,0,0,0,.68-0.26L282.4,25a0.25,0.25,0,0,0,.16,0,0.13,0.13,0,0,1,.1,0,0.86,0.86,0,0,0,.49-0.23,0.54,0.54,0,0,0,0-.16h0.06l0.52,0.19,0.78,0.52a6.16,6.16,0,0,0,.65.39,2.87,2.87,0,0,1,.52,1.07,3.71,3.71,0,0,0,.52,1.14,2.23,2.23,0,0,1,.32,1.3,8.28,8.28,0,0,1-.19,1.1,1.6,1.6,0,0,0-.13.58,1,1,0,0,1-.26.58,0.85,0.85,0,0,1-.33.29,1.17,1.17,0,0,0-.39.36l-2,1.46A6.46,6.46,0,0,1,281,34.62a8,8,0,0,0-.84.29l-0.71.29a1.17,1.17,0,0,1-.58.1,0.47,0.47,0,0,0-.46.29c0,0.13-.09.28-0.13,0.46a1.76,1.76,0,0,0-.07.39q0,0.13-.06.65T278,38.2q-0.07.58-.1,1.14c0,0.37,0,.57,0,0.62a2.34,2.34,0,0,1,.23.58,2,2,0,0,0,.36.65,5.24,5.24,0,0,0,.39.62L279,42a0.4,0.4,0,0,0,.16.1l0.29,0.1a1.16,1.16,0,0,0,.94-0.2,7.13,7.13,0,0,0,1.07-.78q0.52-.45,1-0.94l0.75-.75a2.55,2.55,0,0,0,.52-0.75,2.58,2.58,0,0,1,.52-0.75q0.52-.52.81-0.85l0.49-.52a2.73,2.73,0,0,0,.52-0.71,6.31,6.31,0,0,1,.52-0.84,2,2,0,0,1,.36-0.58,4.05,4.05,0,0,0,.42-0.59,17.71,17.71,0,0,1,.91-1.82A10.08,10.08,0,0,1,289,31a2.23,2.23,0,0,0,.26-0.33,2.05,2.05,0,0,1,.26-0.32,0.21,0.21,0,0,1,.26-0.06,0.41,0.41,0,0,0,.2.19L290,30.66Zm-11.31,2.27a0.39,0.39,0,0,0,0,.58,2.53,2.53,0,0,0,.55-0.36l1.07-.81,1.11-.85a7.9,7.9,0,0,0,.65-0.52c0.13-.17.26-0.36,0.39-0.55a3.24,3.24,0,0,1,.39-0.49,2.52,2.52,0,0,0,.42-0.39,4.68,4.68,0,0,0,.29-0.39,1.64,1.64,0,0,0,.39-1.1,4.36,4.36,0,0,1,0-.49,1.57,1.57,0,0,0,0-.55q-0.26-.71-0.52-0.52a2.92,2.92,0,0,0-.52.52c-0.22.22-.44,0.46-0.68,0.71s-0.47.52-.68,0.78a8.54,8.54,0,0,0-.75,1,4.11,4.11,0,0,1-.42.58l-0.39.39a2.56,2.56,0,0,0-.26.42c-0.13.24-.26,0.51-0.39,0.81s-0.26.58-.39,0.81A2.57,2.57,0,0,1,278.89,33.06Z" transform="translate(-22.2 -9.81)" style="fill:#01ccff"/><path d="M313,30.46a1.43,1.43,0,0,1,.19.39,1.13,1.13,0,0,1-.13.32q-0.26.46-.75,1.46c-0.32.67-.71,1.44-1.14,2.31q-0.2.46-.42,0.88a7.63,7.63,0,0,0-.42.94q-1,2.08-2.11,4a17.87,17.87,0,0,1-1.85,2.86q-0.33.39-.65,0.81a2.41,2.41,0,0,1-.84.68,5.15,5.15,0,0,0-1.43.94,3.05,3.05,0,0,1-.75.62,1.25,1.25,0,0,1-.94,0,14.37,14.37,0,0,1-1.95-.81l-0.62-.26a0.36,0.36,0,0,1-.19-0.13l-0.1-.16a3.11,3.11,0,0,0-.33-0.36,13.56,13.56,0,0,1-1.1-1.11,7.3,7.3,0,0,1-.71-1Q296.24,42,295.69,41c-0.37-.69-0.69-1.34-1-2a3.79,3.79,0,0,1-.42-1.23V34.56a17.14,17.14,0,0,1,.2-2.41q0.13-.91.29-1.85t0.29-1.85a19.48,19.48,0,0,1,1-3.64q0.65-1.56.91-2.41t0.52-1.53a10.68,10.68,0,0,1,.75-1.53A27.19,27.19,0,0,1,299.88,17l0.52-.81a4.31,4.31,0,0,1,.71-0.75,3.19,3.19,0,0,0,.68-0.58c0.24-.26.46-0.5,0.68-0.71a1.89,1.89,0,0,1,.46-0.36,3.51,3.51,0,0,0,.39-0.23,1.1,1.1,0,0,0,.23-0.52,0.38,0.38,0,0,1,.36-0.33,3.13,3.13,0,0,1,1.27,0q0.68,0.13,1.14.26l0.88,0.26,1.3,0.39a9.67,9.67,0,0,1,1.2.42l0.65,0.29a0.48,0.48,0,0,1,.23.46,0.37,0.37,0,0,0,.29.39,1.15,1.15,0,0,0,.52.1c0.09,0,.17.14,0.26,0.49s0.26,0.64.39,1,0.26,0.71.39,1a2.93,2.93,0,0,0-.49.39q-0.36.33-.81,0.78a13.62,13.62,0,0,0-.94,1,4.46,4.46,0,0,1-.68.71,3.34,3.34,0,0,1-.75.49,6.74,6.74,0,0,0-.68.36,1.31,1.31,0,0,0-.52.36,1.79,1.79,0,0,1-1.62.55,0.34,0.34,0,0,1,0-.42l0.42-.75a3.47,3.47,0,0,0,.2-0.78,2,2,0,0,1,.26-0.78l0.39-.78a6.15,6.15,0,0,0,.33-0.78,5.83,5.83,0,0,0,.39-1.3l-1.11-.33a2.7,2.7,0,0,0-1.5.72q-0.39.26-.94,0.58a7,7,0,0,0-1,.71A11.59,11.59,0,0,0,302,20.36a13.63,13.63,0,0,0-.78,1.46A15,15,0,0,0,300,25.52q-0.13.46-.23,0.91t-0.23.91c-0.09.35-.16,0.68-0.23,1s-0.14.66-.23,1a10.36,10.36,0,0,0-.19,1.2,11.22,11.22,0,0,1-.2,1.2q-0.13.72-.29,1.4t-0.29,1.4a7.74,7.74,0,0,0-.06.94,6.24,6.24,0,0,1-.06.88,11.77,11.77,0,0,0,.13,1.88,6.41,6.41,0,0,0,.52,1.62,4.21,4.21,0,0,0,1,1.69,2.7,2.7,0,0,0,1.14.71,2.07,2.07,0,0,0,1.56-.33,2.68,2.68,0,0,1,1-.32,1.85,1.85,0,0,0,1.11-.58q0.58-.71,1.3-1.46T307,38.2a8,8,0,0,1,.65-0.91l0.65-.78a3.65,3.65,0,0,0,.52-0.81,6,6,0,0,1,.46-0.81,1.8,1.8,0,0,0,.46-0.75,4.37,4.37,0,0,1,.39-0.88A12.82,12.82,0,0,1,311,32a8.39,8.39,0,0,0,.91-1.62L312,30.2h0.2a1,1,0,0,0,.29.07,0.52,0.52,0,0,1,.23.06A0.38,0.38,0,0,1,313,30.46Z" transform="translate(-22.2 -9.81)" style="fill:#01ccff"/><path d="M327.83,31a0.52,0.52,0,0,1-.06.19l-0.13.26-0.13.26a4.93,4.93,0,0,0-.23.78,3.09,3.09,0,0,1-.42,1,5.76,5.76,0,0,1-.36.72q-0.23.39-.42,0.78l-0.52.78-0.52.78-0.33.55a4.54,4.54,0,0,1-.33.49q-0.19.26-.39,0.49a1.92,1.92,0,0,1-.39.36,2.17,2.17,0,0,1-.91.58,1.82,1.82,0,0,0-.58.29,2.21,2.21,0,0,1-.52.29c-0.09.09-.26,0.29-0.52,0.62a9.34,9.34,0,0,1-.91,1q-0.52.49-1,.91a1.53,1.53,0,0,1-.78.42,6.56,6.56,0,0,0-1,.23,1.89,1.89,0,0,1-.65.1h-0.65a3.8,3.8,0,0,1-.91-0.13l-0.81-.16c-0.33-.06-0.64-0.14-0.94-0.23a3,3,0,0,1-.81-0.36,1.67,1.67,0,0,1-.55-0.55,5.45,5.45,0,0,1-.42-1,4.46,4.46,0,0,0-.55-1.11,3,3,0,0,1-.16-0.52,3.28,3.28,0,0,1-.1-0.46,5.16,5.16,0,0,1-.07-0.94v-1.3q0-.68,0-1.27a7.06,7.06,0,0,1,.1-0.91c0-.22.08-0.41,0.1-0.58a4.77,4.77,0,0,0,0-.58,0.31,0.31,0,0,1,.1-0.23,0.26,0.26,0,0,0,.1-0.16c0-.09,0-0.13,0-0.13s0,0,0-.13q0.19-.65.29-1a3.58,3.58,0,0,1,.49-0.94,2.5,2.5,0,0,1,.29-0.42,3.74,3.74,0,0,0,.29-0.36,1,1,0,0,1,.26-0.46,5.59,5.59,0,0,1,.72-0.71l0.65-.26a2.59,2.59,0,0,0,.65-0.39,1,1,0,0,1,.39-0.13l0.65,0.06q0.71,0.07,1.07.07a4.53,4.53,0,0,1,1.07.19l0.42,0.1,0.23,0.1L318.8,28a0.5,0.5,0,0,0,.36,0l0.29-.13a1.93,1.93,0,0,1,1-.19,2.09,2.09,0,0,1,.78.26,3.82,3.82,0,0,1,.58.58,1.54,1.54,0,0,1,.26.39,0.41,0.41,0,0,0,.19.19,2.88,2.88,0,0,1,.71,1.1,3.43,3.43,0,0,1,.2.72,5,5,0,0,0,.2.78q0.06,0.33.1,0.65c0,0.22,0,.43,0,0.65s0,0.29,0,.62-0.05.68-.1,1.07-0.13.91-.26,1.56q-0.2.33-.26,0.45t-0.2.46a1.13,1.13,0,0,0,.42-0.36q0.16-.23.49-0.62a4.28,4.28,0,0,1,.39-0.46,6.52,6.52,0,0,0,.46-0.52,4.53,4.53,0,0,1,.29-0.39,2.43,2.43,0,0,0,.29-0.46q0.13-.32.26-0.58t0.26-.58a3.62,3.62,0,0,1,.29-0.49l0.29-.42a1.64,1.64,0,0,0,.16-0.49,0.61,0.61,0,0,1,.16-0.36,2.31,2.31,0,0,1,.13-0.33l0.13-.26a0.29,0.29,0,0,0,.1-0.2h0.23a0.49,0.49,0,0,1,.29,0,0.46,0.46,0,0,0,.29.16Zm-9.29,8a0.49,0.49,0,0,0,.23-0.26,1.09,1.09,0,0,1,.16-0.32,2.06,2.06,0,0,1-.55-1q-0.23-.78-0.49-1.5a4.34,4.34,0,0,1-.32-1.69,12.3,12.3,0,0,1,.06-1.43V32.67q0.06-.65.1-1.75a4.24,4.24,0,0,1,.55-2,0.49,0.49,0,0,0-.2.16c0,0.06-.09.08-0.13,0a1.91,1.91,0,0,0-1.3.39,3,3,0,0,0-.91.91,0.69,0.69,0,0,0-.36.36,1.46,1.46,0,0,0,0,.29,0.8,0.8,0,0,1-.06.29,1.23,1.23,0,0,1-.46.42,2.47,2.47,0,0,1-.13.55,3.44,3.44,0,0,0-.13,1q-0.07.59-.2,1.33a8.41,8.41,0,0,0-.13,1.46v1.66a3.39,3.39,0,0,0,.13,1.14,0.53,0.53,0,0,1,.2.33,0.58,0.58,0,0,0,.06.26,0.93,0.93,0,0,0,.16.13,1.44,1.44,0,0,1,.29.46c0.13,0.22.25,0.3,0.36,0.26a2.64,2.64,0,0,1,.75-0.06l0.84-.13,0.78-.58a2.08,2.08,0,0,0,.32-0.26A3.89,3.89,0,0,1,318.54,39Zm2.79-6.7a1.23,1.23,0,0,0,.06-0.39l-0.26-1.56a0.37,0.37,0,0,0-.13-0.2c-0.09,0-.14,0-0.16-0.23a2.57,2.57,0,0,0-.1-0.49,2,2,0,0,0-.71.19,4.45,4.45,0,0,0-.39,1.17,7.73,7.73,0,0,0-.2,1.75v0.13a5.28,5.28,0,0,0,.1.88,5.37,5.37,0,0,0,.42,1.27,8,8,0,0,1,.2.85,3.35,3.35,0,0,0,.2.71,0.19,0.19,0,0,0,.06-0.13c0-.13.12-0.34,0.23-0.62s0.21-.57.29-0.88,0.16-.6.23-0.88a3.28,3.28,0,0,0,.1-0.55Z" transform="translate(-22.2 -9.81)" style="fill:#01ccff"/><path d="M340.25,30.72a0.83,0.83,0,0,1,0,.46,0.57,0.57,0,0,0-.07.26,0.58,0.58,0,0,1-.06.26,8.26,8.26,0,0,1-.52,1.37,8.32,8.32,0,0,0-.52,1.36c-0.09.26-.17,0.51-0.26,0.75a4.09,4.09,0,0,0-.19.75,1.84,1.84,0,0,1-.23.52,1.76,1.76,0,0,0-.23.52l-0.13.78a5.3,5.3,0,0,1-.2.78,3.21,3.21,0,0,1-.23.71q-0.23.58-.46,1.27t-0.46,1.3c-0.15.41-.25,0.68-0.29,0.81a2,2,0,0,0-.13.75,1.16,1.16,0,0,1-.26.75,2.69,2.69,0,0,0-.13.46,4.81,4.81,0,0,1,0,.58,1.1,1.1,0,0,1-.36.58q-0.33.26-.81,0.71a2.93,2.93,0,0,1-.81.58,1,1,0,0,1-.81-0.13,2.92,2.92,0,0,0-.88-0.33,1.44,1.44,0,0,1-.36-0.06,1,1,0,0,1-.42-0.26,3.62,3.62,0,0,1-.68-0.58,2.65,2.65,0,0,1-.36-0.46,0.84,0.84,0,0,1-.1-0.55,1.47,1.47,0,0,0-.1-0.68,0.64,0.64,0,0,1-.1-0.68,1.32,1.32,0,0,0,.16-0.75,2,2,0,0,1-.13-0.84,3.06,3.06,0,0,1,.06-0.71,2,2,0,0,1,.06-0.58,1.54,1.54,0,0,0,0-.29,1.43,1.43,0,0,1,0-.29c0-.26.1-0.53,0.16-0.81s0.12-.57.16-0.88a1.26,1.26,0,0,0,.07-0.39,1.21,1.21,0,0,1,.06-0.39,1.77,1.77,0,0,1,0-.36,2.91,2.91,0,0,1,.1-0.36s0-.28.07-0.71,0.09-.91.13-1.43,0.09-1,.13-1.43,0.06-.69.06-0.78a6.38,6.38,0,0,0,.1-0.71,6.41,6.41,0,0,1,.1-0.71,2.3,2.3,0,0,0,.06-0.65,0.65,0.65,0,0,0,.07-0.29,0.64,0.64,0,0,1,.07-0.29,2.24,2.24,0,0,0,.1-0.75,2.43,2.43,0,0,1,0-.36,0.06,0.06,0,0,0,.07-0.06l-0.33-.32a1.54,1.54,0,0,0-.71-0.33,1.12,1.12,0,0,1-.33-0.16,1.81,1.81,0,0,0-.26-0.16,0.71,0.71,0,0,1-.2-0.13q-0.07.19-.42,1L328.65,30l-0.78,1.66a6.47,6.47,0,0,1-.42.81,1.09,1.09,0,0,0-.36.58,0.35,0.35,0,0,1-.23.32,0.25,0.25,0,0,1-.29-0.13,1.33,1.33,0,0,0-.68-0.32,7.41,7.41,0,0,1,.46-1.33q0.32-.75.52-1.33c0.09-.22.17-0.46,0.26-0.72s0.17-.5.26-0.71a4.37,4.37,0,0,0,.39-1.3q0.13-.59.23-0.88a1.37,1.37,0,0,0,.07-0.58,1.33,1.33,0,0,0-.23-0.58l-0.58-.88a2.25,2.25,0,0,1-.33-2.54,1.66,1.66,0,0,1,.88-0.81,2.68,2.68,0,0,1,1.27.16c0.26,0.09.52,0.16,0.78,0.23a1.38,1.38,0,0,1,.72.49l0.55,0.68a1,1,0,0,1,.16.75,3.7,3.7,0,0,1,0,.65,1.4,1.4,0,0,1-.36.46,1.15,1.15,0,0,1-.52.36q-0.2,0,.26.29a0.81,0.81,0,0,1,.2.13,0.7,0.7,0,0,0,.19.13c0.13,0.09.42,0.26,0.88,0.52a4.71,4.71,0,0,0,.94.46,4.47,4.47,0,0,1,.46.26,2.79,2.79,0,0,0,.52.26l0.32,0.16a3.85,3.85,0,0,1,.39.23,0.41,0.41,0,0,1,.26.2,0.85,0.85,0,0,0,.26.46l0.06,0.26c0,0.09,0,.13,0,0.13s0,0,0,.13l0.13,0.26-0.07.19a0.52,0.52,0,0,0-.07.23,0.53,0.53,0,0,1-.06.23l0.13,0.26q-0.07.52-.1,1c0,0.3,0,.56,0,0.78L335,31.5a0.13,0.13,0,0,1,0,.1,0.13,0.13,0,0,0,0,.1c0,0.13,0,.44-0.1.94s-0.13,1-.19,1.59-0.13,1.08-.2,1.56a9.14,9.14,0,0,0-.1.91v0.59a0.44,0.44,0,0,0,0,.29,1.84,1.84,0,0,1,0,.36q-0.13.52-.26,1.14t-0.2,1.14a1.21,1.21,0,0,0-.06.39,0.74,0.74,0,0,1-.07.32,2.39,2.39,0,0,1,0,.39,2.19,2.19,0,0,0,0,.39c0,0.22-.08.41-0.1,0.58a4.39,4.39,0,0,1-.1.52c0,0.13,0,.16,0,0.1l0,0.1v0.26c0,0.13,0,.17.07,0.13a0.18,0.18,0,0,1,.1-0.07,0.19,0.19,0,0,0,.1-0.06,0.52,0.52,0,0,0,.26-0.36,0.8,0.8,0,0,1,.19-0.42,0.19,0.19,0,0,0,.07-0.13,0.19,0.19,0,0,1,.07-0.13,3.49,3.49,0,0,1,.2-0.36,1.46,1.46,0,0,1,.19-0.23,3.79,3.79,0,0,1,.23-0.49,3.58,3.58,0,0,0,.23-0.49,9.71,9.71,0,0,0,.52-1.23,2.33,2.33,0,0,1,.42-0.75,2.35,2.35,0,0,0,.42-0.75l0.39-1.37a3.3,3.3,0,0,1,.39-0.94,3.36,3.36,0,0,0,.39-0.94c0.09-.17.22-0.47,0.39-0.88s0.3-.7.39-0.88l0.23-.59a5.39,5.39,0,0,1,.23-0.52,6.27,6.27,0,0,0,.23-0.68,1.13,1.13,0,0,1,.23-0.49,0.13,0.13,0,0,0,.1,0,0.25,0.25,0,0,1,.16,0l0.46,0.06C340.2,30.66,340.25,30.68,340.25,30.72Z" transform="translate(-22.2 -9.81)" style="fill:#01ccff"/><path d="M349.28,31.24l-0.06.07c-0.09.17-.16,0.34-0.23,0.49l-0.23.55L348.5,33l-0.26.65q-0.13.33-.29,0.65t-0.29.65l-0.39.94q-0.26.62-.52,1.33a4.4,4.4,0,0,0-.26.68c-0.09.28-.17,0.57-0.26,0.88l-0.26.88-0.2.62-0.23.55-0.16.36c-0.17.35-.32,0.64-0.46,0.88s-0.26.49-.39,0.75-0.17.34-.26,0.49-0.17.29-.26,0.42a6,6,0,0,0-.94,1.53,0.91,0.91,0,0,1-1.2.42L341,45.51l-0.32,0-0.13-.13a0.19,0.19,0,0,0-.13-0.06,0.5,0.5,0,0,1-.2-0.07A0.64,0.64,0,0,1,340,45a2.36,2.36,0,0,0-.23-0.26L339,44.31l-0.59-1V40.28a0.69,0.69,0,0,1,0-.23,0.73,0.73,0,0,0,0-.23,3,3,0,0,1,.07-0.58,6.32,6.32,0,0,1,0-.65c0-.22.05-0.48,0.1-0.78q0.06-.71.1-1.53t0.1-1.59c0-.3.08-0.65,0.1-1s0-.76.07-1.1,0-.76,0-1.23a1.17,1.17,0,0,1,.06-0.42l0.13-.36a1.93,1.93,0,0,1,.1-0.33,0.24,0.24,0,0,0,0-.1V29.69c0-.13,0-0.37,0-0.72s0.05-.76.1-1.23a6.24,6.24,0,0,0,.06-0.88,7.56,7.56,0,0,1,.07-0.94,2.39,2.39,0,0,1,.07-0.59q0.06-.26.13-0.58c0-.22.08-0.42,0.1-0.62s0.05-.4.1-0.62H339.6a1.43,1.43,0,0,0-.52,0,4.15,4.15,0,0,1-.52,0,3.38,3.38,0,0,0-.91-0.1l-0.33,0-0.13-.13-0.06-.2-0.07-.32a0.36,0.36,0,0,1,.07-0.33,0.24,0.24,0,0,0,.13-0.19,0.55,0.55,0,0,0,.42,0,0.55,0.55,0,0,1,.42,0,1,1,0,0,0,.58,0,1.06,1.06,0,0,1,.59,0,3.35,3.35,0,0,0,.49,0,4,4,0,0,1,.55,0V20.62a7.78,7.78,0,0,1,.07-1.2,7.58,7.58,0,0,0,.16-1,2.76,2.76,0,0,1,.1-0.62c0.17-.35.22-0.51,0.13-0.49s-0.09-.14,0-0.49l0.39-.65a0.3,0.3,0,0,1,.33-0.07,1,1,0,0,0,.33.07h0.91a0.52,0.52,0,0,0,.55.19,0.77,0.77,0,0,1,.62.13,0.59,0.59,0,0,0,.42.2,0.54,0.54,0,0,1,.36.52,2.7,2.7,0,0,0-.39,1.43q-0.07.46-.13,1.46a11.12,11.12,0,0,1-.2,1.59v0.13h1.3q0.78,0,1.43-.06a2.62,2.62,0,0,0,.49,0q0.16,0,0,.29v0.33l-0.07.33-0.26.19-0.13.26-0.07.26-0.23.13a0.21,0.21,0,0,1-.23,0l-0.65-.06h-1.69a0.51,0.51,0,0,0-.07.33l-0.2,2.15q-0.06.85-.06,1.56a6.92,6.92,0,0,1-.13,1.37,9.73,9.73,0,0,1-.26,1.88,6.73,6.73,0,0,0-.13,1.53,15.27,15.27,0,0,1-.07,1.59,6.69,6.69,0,0,1-.1.72q-0.1.58-.23,1.2c-0.09.41-.16,0.81-0.23,1.2a6.56,6.56,0,0,0-.1.71,0.4,0.4,0,0,0,.06.23,0.4,0.4,0,0,1,.06.23,1.39,1.39,0,0,1-.1.55,1.33,1.33,0,0,0,0,.68,6.37,6.37,0,0,1,0,1.43,1.66,1.66,0,0,0,.1,1,1.63,1.63,0,0,0,.68-0.71,1.7,1.7,0,0,1,.62-0.71l0.78-1.5a1.8,1.8,0,0,0,.49-0.68l0.36-.75q0.39-1.1.65-1.79t0.55-1.4q0.29-.71.49-1.1c0.13-.26.27-0.57,0.42-0.94a8.85,8.85,0,0,1,.49-1l0.2-.58h0.39l0.2,0.2L349.09,31Z" transform="translate(-22.2 -9.81)" style="fill:#01ccff"/><path d="M362.41,30.79a0.9,0.9,0,0,0,.2.16s0,0.1-.06.23a1.49,1.49,0,0,0-.26.39,0.8,0.8,0,0,0-.2.33,0.83,0.83,0,0,1-.2.32c-0.09.22-.17,0.44-0.26,0.68a4,4,0,0,1-.33.68,3.4,3.4,0,0,1-.36.75l-0.42.68a11.58,11.58,0,0,0-.46,1.2,6.4,6.4,0,0,1-.52,1.2,3.34,3.34,0,0,0-.2.46,2.82,2.82,0,0,1-.26.52,5.4,5.4,0,0,1-.33.55q-0.19.29-.39,0.62a2,2,0,0,0-.23.49,2.08,2.08,0,0,1-.23.49,3.79,3.79,0,0,0-.42.62c-0.2.33-.4,0.68-0.62,1.07s-0.43.76-.65,1.1a2.34,2.34,0,0,1-.52.65,6.38,6.38,0,0,1-.58.42l-0.58.36a2.28,2.28,0,0,1-.94.39,5,5,0,0,1-.88.13,6.41,6.41,0,0,1-.81-0.07l-1-.16q-0.52-.1-1-0.23a1.5,1.5,0,0,1-.65-0.33,7.25,7.25,0,0,1-1.62-2.21q-0.59-1.23-1.11-2.54a4.24,4.24,0,0,1-.06-1V37.13q0-.88.06-1.66t0.06-1q0.13-.58.36-1.3a7.14,7.14,0,0,1,.55-1.3A5.91,5.91,0,0,0,348,31l0.19-.55a3.46,3.46,0,0,1,.36-0.65,11.14,11.14,0,0,1,1-1.17q0.52-.52.84-0.91a6,6,0,0,1,.91-0.85q0.33-.26,1-0.78a3.31,3.31,0,0,1,1-.58c0.26-.09.49-0.17,0.68-0.26l0.62-.26a0.25,0.25,0,0,0,.16,0,0.13,0.13,0,0,1,.1,0,0.87,0.87,0,0,0,.49-0.23,0.57,0.57,0,0,0,0-.16h0.06L356,24.74l0.78,0.52a6.16,6.16,0,0,0,.65.39,2.89,2.89,0,0,1,.52,1.07,3.71,3.71,0,0,0,.52,1.14,2.23,2.23,0,0,1,.33,1.3,8.6,8.6,0,0,1-.19,1.1,1.58,1.58,0,0,0-.13.58,1,1,0,0,1-.26.58,0.85,0.85,0,0,1-.32.29,1.17,1.17,0,0,0-.39.36l-2,1.46a6.45,6.45,0,0,1-2.31,1.07,7.89,7.89,0,0,0-.84.29l-0.71.29a1.17,1.17,0,0,1-.59.1,0.47,0.47,0,0,0-.46.29c0,0.13-.09.28-0.13,0.46a1.76,1.76,0,0,0-.07.39c0,0.09,0,.3-0.07.65s-0.09.72-.13,1.1-0.08.77-.1,1.14,0,0.57,0,.62a2.36,2.36,0,0,1,.23.58,2,2,0,0,0,.36.65,5.27,5.27,0,0,0,.39.62l0.2,0.23a0.4,0.4,0,0,0,.16.1l0.29,0.1a1.16,1.16,0,0,0,.94-0.2,7.18,7.18,0,0,0,1.07-.78q0.52-.45,1-0.94l0.75-.75a2.57,2.57,0,0,0,.52-0.75,2.56,2.56,0,0,1,.52-0.75q0.52-.52.81-0.85l0.49-.52a2.77,2.77,0,0,0,.52-0.71,6.21,6.21,0,0,1,.52-0.84,2,2,0,0,1,.36-0.58,3.91,3.91,0,0,0,.42-0.59,17.71,17.71,0,0,1,.91-1.82,10.4,10.4,0,0,1,.65-1.1,2.23,2.23,0,0,0,.26-0.33,2.11,2.11,0,0,1,.26-0.32,0.21,0.21,0,0,1,.26-0.06,0.42,0.42,0,0,0,.2.19l0.07,0.13ZM351.1,33.06a0.39,0.39,0,0,0,0,.58,2.56,2.56,0,0,0,.55-0.36l1.07-.81,1.1-.85a7.56,7.56,0,0,0,.65-0.52c0.13-.17.26-0.36,0.39-0.55a3.12,3.12,0,0,1,.39-0.49,2.56,2.56,0,0,0,.42-0.39q0.16-.2.29-0.39a1.63,1.63,0,0,0,.39-1.1,4.39,4.39,0,0,1,0-.49,1.57,1.57,0,0,0,0-.55q-0.26-.71-0.52-0.52a2.88,2.88,0,0,0-.52.52q-0.33.33-.68,0.71t-0.68.78a8.56,8.56,0,0,0-.75,1,4.21,4.21,0,0,1-.42.58l-0.39.39a2.71,2.71,0,0,0-.26.42q-0.19.36-.39,0.81c-0.13.3-.26,0.58-0.39,0.81A2.65,2.65,0,0,1,351.1,33.06Z" transform="translate(-22.2 -9.81)" style="fill:#01ccff"/><path d="M373.72,31.11q0.19,0.13.13,0.2a1.56,1.56,0,0,0-.19.32,0.64,0.64,0,0,0-.07.29,0.66,0.66,0,0,1-.13.36,0.48,0.48,0,0,0-.13.36,0.48,0.48,0,0,1-.13.36l-0.26.65a2.8,2.8,0,0,1-.26.52,1.92,1.92,0,0,1-.58.78,3,3,0,0,0-.52.46,6.7,6.7,0,0,1-.65.58,1.48,1.48,0,0,0-.59.65,0.82,0.82,0,0,1-.2.39,1.47,1.47,0,0,0-.58.33,2.58,2.58,0,0,1-.39.32,0.19,0.19,0,0,0-.06.13,5.69,5.69,0,0,1,.39.75,5.48,5.48,0,0,1,.33.75,3.12,3.12,0,0,1,.26,1.11,4.4,4.4,0,0,1-.23,1.4,1,1,0,0,0-.1.81,5,5,0,0,1-1.62,2.5q-1,.68-1.43.94a5.43,5.43,0,0,1-.81.29,1.73,1.73,0,0,1-.81.1,1.26,1.26,0,0,0-.49.13,2.85,2.85,0,0,1-.71.2,4,4,0,0,1-1,0,5.12,5.12,0,0,1-1.37-.39,5.14,5.14,0,0,1-.71-0.65L360.07,45a7.74,7.74,0,0,1-.42-0.85,1.78,1.78,0,0,1-.1-0.91,6.1,6.1,0,0,1,.84-2A8.27,8.27,0,0,1,362.28,39a9,9,0,0,1,2.27-1.43q-0.19-.32-0.58-0.84a10.16,10.16,0,0,1-.78-1.24,2.83,2.83,0,0,1-.32-0.55,6,6,0,0,0-.33-0.62q-0.33-.52-0.58-1a8.83,8.83,0,0,1-.46-0.91Q361.18,32,361,31.57a3.2,3.2,0,0,1-.26-0.65c0-.22,0-0.47,0-0.75s0.05-.6.1-0.94a1.45,1.45,0,0,1,0-.29,1.51,1.51,0,0,0,0-.29,0.73,0.73,0,0,0,.07-0.33,1.24,1.24,0,0,1,.06-0.39,3.33,3.33,0,0,1,.33-0.62,3.44,3.44,0,0,0,.33-0.62,3.23,3.23,0,0,1,.71-1.1,2.86,2.86,0,0,1,1.11-.71,5.44,5.44,0,0,1,1.56-.2,11.5,11.5,0,0,1,1.79.16,11.62,11.62,0,0,1,1.79.42,2.31,2.31,0,0,1,.75.58,3.54,3.54,0,0,1,.55.72,1.07,1.07,0,0,0,.16.39,0.6,0.6,0,0,1,0,.46,3.2,3.2,0,0,1-.26,1.17,2,2,0,0,0-.13.46,2.08,2.08,0,0,1-.26.65L369.2,30l-0.29.29a1.58,1.58,0,0,1-1.17.45,0.65,0.65,0,0,0-.46,0,0.26,0.26,0,0,1-.33,0,0.59,0.59,0,0,1-.39-0.45,0.15,0.15,0,0,0-.1-0.16c-0.06,0,0-.16.16-0.42l0.36-.33a1.3,1.3,0,0,0,.36-0.52,3.37,3.37,0,0,0,.16-0.78,2.05,2.05,0,0,0,0-.65,0.87,0.87,0,0,0-.39-0.58,1.91,1.91,0,0,0-.55-0.49,0.56,0.56,0,0,0-.55,0,0.31,0.31,0,0,1-.29.1,0.45,0.45,0,0,0-.29,0,1.11,1.11,0,0,0-.59.45,2.26,2.26,0,0,0-.45.88,7.46,7.46,0,0,0-.2,1,2.53,2.53,0,0,0,.1,1.1,5.55,5.55,0,0,0,.42.91,2.42,2.42,0,0,0,.36.52,2.61,2.61,0,0,1,.36.52L366,32.64a5.62,5.62,0,0,0,.58.68,5.71,5.71,0,0,1,.78,1.1q0.33,0.52.65,1a0.38,0.38,0,0,1,.13.19l0.13,0.13,0.07,0.13,0.07-.13h0.06a0.76,0.76,0,0,0,.2-0.13,0.77,0.77,0,0,1,.2-0.13A6.83,6.83,0,0,1,369.5,35a3.47,3.47,0,0,0,.71-0.55,3.35,3.35,0,0,1,.42-0.36,1.41,1.41,0,0,0,.36-0.36l0.46-.58a6.68,6.68,0,0,0,.39-0.58,1.05,1.05,0,0,0,.16-0.36,0.56,0.56,0,0,1,.16-0.29l0.39-.78a0.37,0.37,0,0,1,.13-0.26c0.13-.26.28-0.35,0.46-0.26l0.13,0.2L373.46,31l0.2,0.06Zm-7.87,10.46c0-.09,0-0.25,0-0.49a3,3,0,0,0,0-.75,3.69,3.69,0,0,0-.07-0.71c0-.22-0.11-0.3-0.19-0.26a0.85,0.85,0,0,0-.42.26l-0.62.55a7.16,7.16,0,0,0-.58.58,2.41,2.41,0,0,0-.33.42l-0.26.29A4.19,4.19,0,0,0,363,42a3.92,3.92,0,0,0-.65,1.17,0.9,0.9,0,0,0,0,.71,1,1,0,0,0,.75.46,0.49,0.49,0,0,0,.46-0.06,3.2,3.2,0,0,1,.58-0.39,2,2,0,0,0,.55-0.33l0.49-.39a1,1,0,0,0,.36-0.49,4.12,4.12,0,0,1,.23-0.55A2.42,2.42,0,0,0,365.86,41.58Z" transform="translate(-22.2 -9.81)" style="fill:#01ccff"/><path d="M381.26,31.37a0.36,0.36,0,0,1-.13.19q-0.26.52-.46,1t-0.46,1l-0.65,1.56q-0.33.78-.65,1.5a6.8,6.8,0,0,0-.49,1.72,4.94,4.94,0,0,1-.49,1.59,5,5,0,0,0-.36,1.27,2.65,2.65,0,0,1-.29.94,6,6,0,0,0-.94,1.53,0.91,0.91,0,0,1-1.2.42l-0.91-.16a0.61,0.61,0,0,1-.33-0.1l-0.13-.13a0.17,0.17,0,0,0-.16,0,0.17,0.17,0,0,1-.16,0,1.1,1.1,0,0,1-.46-0.52l-1.3-1.37V38.59a0.16,0.16,0,0,1,0-.19,0.27,0.27,0,0,0,.06-0.2q0.07-1.3.2-2.34t0.13-1.66c0-.5.07-0.79,0.07-0.88a3.29,3.29,0,0,1,.13-0.42,3.71,3.71,0,0,0,.13-0.42,1.78,1.78,0,0,0,.06-0.39V31.7q0.06-.84.13-1.75a8.87,8.87,0,0,1,.32-1.82,1,1,0,0,0,.13-0.39,2.89,2.89,0,0,0,.26-0.39l0.39-.46a0.76,0.76,0,0,1,.39-0.39l1,0.45a2.66,2.66,0,0,0,.81.65,1.87,1.87,0,0,1,.75,1.23,0.72,0.72,0,0,0-.29.58c-0.07.35-.12,0.75-0.16,1.2s-0.08.89-.1,1.3a4,4,0,0,1-.1.81,3.49,3.49,0,0,0-.13,1,5.08,5.08,0,0,1-.13,1.1,1.93,1.93,0,0,1-.1.62c-0.07.19-.12,0.38-0.16,0.55q-0.07.72-.2,1.85a8.35,8.35,0,0,0-.07,1.72V40s0-.09.2-0.26l0.39-.58a3.52,3.52,0,0,0,.42-0.85q0.29-.71.36-0.84l0.46-.78a2.48,2.48,0,0,1,.2-0.52l0.29-.58,0.36-.71q0.19-.39.42-0.81t0.42-.88c0.3-.52.58-1,0.84-1.5a3.08,3.08,0,0,1,.46-0.84V30.66h0.06a0.23,0.23,0,0,1,.26.06l0.13,0.13h0.13L381,31l0.06,0.13A0.38,0.38,0,0,1,381.26,31.37Zm-5.39-5.66s0.13,0,.26-0.26a0.83,0.83,0,0,0,.26-0.23,0.36,0.36,0,0,1,.2-0.16,4.58,4.58,0,0,1,.13-0.55,10.27,10.27,0,0,1,.36-1.07q0.23-.59.49-1.1a1.25,1.25,0,0,1,.58-0.65,0.44,0.44,0,0,1,.13-0.33,1.85,1.85,0,0,0,.39-0.32,0.73,0.73,0,0,0,.26-0.39c0-.22.15-0.26,0.32-0.13a0.28,0.28,0,0,0,.46-0.13,0.7,0.7,0,0,0-.19-0.71,0.7,0.7,0,0,0-.19-0.39,1.74,1.74,0,0,1-.39-0.13l-1.3-.46-0.71-.19a0.62,0.62,0,0,0-.52.39,3.44,3.44,0,0,0-.39.55,1.43,1.43,0,0,0-.26.62l-0.26.65q-0.13.33-.26,0.71a2.64,2.64,0,0,1-.13.33,2.43,2.43,0,0,0-.13.32,1.13,1.13,0,0,0-.07.36,0.66,0.66,0,0,1-.13.36l-0.13.52-0.19.58v0.39l-0.13.39a0.2,0.2,0,0,1,.13.06l0.13,0.13s0.08,0.05.1,0,0.05,0,.1.1a0.72,0.72,0,0,0,.33.26,1.6,1.6,0,0,0,.39.2h0.13a0.36,0.36,0,0,0,.13.19l0.07,0.06h0.07Z" transform="translate(-22.2 -9.81)" style="fill:#01ccff"/><path d="M396.73,31.11v0.13l-0.26.52a7.71,7.71,0,0,0-.52,1.89c-0.09.35-.16,0.66-0.23,0.94a5.24,5.24,0,0,1-.23.75,10.28,10.28,0,0,0-.33,1q-0.19.72-.52,1.63-0.13.59-.32,1.23c-0.13.43-.24,0.84-0.33,1.23l-0.46,1.37a3.79,3.79,0,0,1-.33.78,2.12,2.12,0,0,1-.29.39l-0.52.58c-0.2.22-.39,0.42-0.58,0.62a2.11,2.11,0,0,1-.42.36,1.34,1.34,0,0,1-.88,0,7.66,7.66,0,0,1-1-.29,8.48,8.48,0,0,1-.84-0.2,1.4,1.4,0,0,1-.52-0.58l-0.52-.75a5.06,5.06,0,0,1-.32-0.55,1.91,1.91,0,0,1-.23-1.07,10.56,10.56,0,0,1,.16-1.33,1.86,1.86,0,0,0,0-.68,3.75,3.75,0,0,1-.07-0.68,2,2,0,0,1,.1-0.62,2,2,0,0,0,.1-0.62q0.06-.52.13-1c0-.3.09-0.59,0.13-0.85a4.43,4.43,0,0,1,0-.58,4.09,4.09,0,0,1,.1-0.52,2.32,2.32,0,0,0-.49.52l-0.65.88q-0.36.49-.65,0.94a3.45,3.45,0,0,0-.36.65q-0.72,1-1.1,1.66t-1.11,1.66a4.54,4.54,0,0,0-.65.33,1,1,0,0,1-.78.06l-0.88-.19a1.41,1.41,0,0,1-.68-0.58q-0.65-.91-1.11-1.62a4.13,4.13,0,0,1-.58-1.69q-0.13-.78-0.2-1.53a4.16,4.16,0,0,1,.13-1.46q0.39-1.43.78-2.67a6.49,6.49,0,0,1,1.37-2.34,6.63,6.63,0,0,1,.91-1q0.45-.39,1-0.91a3.48,3.48,0,0,1,1.37-.78,4.27,4.27,0,0,1,1.82.19q0.58,0.2,1.72.49a3.14,3.14,0,0,1,1.59.81,3.47,3.47,0,0,1,.46.78q0.19,0.46-.46.39a2.8,2.8,0,0,0-1.53-.26q-0.49.13-1.72,0.39a4.52,4.52,0,0,0-.55.26,0.89,0.89,0,0,0-.36.52,1.25,1.25,0,0,1-.33.52c-0.22.26-.37,0.43-0.46,0.52a8.78,8.78,0,0,0-.62,1.1q-0.42.85-.81,1.85t-0.68,1.92A2.34,2.34,0,0,0,382,37q0.78-.59,1.36-1.1a8.3,8.3,0,0,0,1-1.1q0.45-.59.91-1.23t1-1.43a7.62,7.62,0,0,1,.55-0.62l0.62-.62a0.81,0.81,0,0,1,.78-0.39,6,6,0,0,0,1.11.33,4.06,4.06,0,0,1,.78.23,0.83,0.83,0,0,1,.29.23,3.88,3.88,0,0,1,.23.36,1.62,1.62,0,0,0,.52.49,1.06,1.06,0,0,1,.49.81c0,0.33.05,0.64,0.1,0.94a0.61,0.61,0,0,0-.1.49,1.84,1.84,0,0,1-.1.75,5,5,0,0,0-.16,1.11,7.55,7.55,0,0,1-.16,1.23,10.6,10.6,0,0,0-.2,1.17,8.58,8.58,0,0,1-.2,1.11,8.19,8.19,0,0,0-.06,1,2.19,2.19,0,0,1-.13.81,2.58,2.58,0,0,0,.55-0.68,9.93,9.93,0,0,0,.75-1.46c0.09-.22.17-0.46,0.26-0.71l0.26-.78,0.39-.78a6.14,6.14,0,0,0,.32-0.78,3.32,3.32,0,0,1,.36-0.75,3.35,3.35,0,0,0,.36-0.75c0.09-.22.18-0.44,0.29-0.68s0.21-.46.29-0.68a4,4,0,0,0,.36-0.78,1.1,1.1,0,0,1,.23-0.46,7.15,7.15,0,0,0,.29-0.78q0.1-.32.23-0.65s0-.07,0-0.07,0,0,0-.06h0.13a0.21,0.21,0,0,1,.2.13l0.07-.07,0.13,0.07a1,1,0,0,1,.39.13h0.06L396.73,31v0.06Z" transform="translate(-22.2 -9.81)" style="fill:#01ccff"/><path d="M416.56,46.59a7.15,7.15,0,0,1-3.84,3.82,7.12,7.12,0,0,1-2.81.56,7,7,0,0,1-2.79-.56,7.21,7.21,0,0,1-2.28-1.54,7.46,7.46,0,0,1-1.56-2.28,6.83,6.83,0,0,1-.57-2.79,7,7,0,0,1,.57-2.81,7.18,7.18,0,0,1,1.56-2.28,7.35,7.35,0,0,1,2.28-1.52,7,7,0,0,1,2.79-.56,7.13,7.13,0,0,1,2.81.56,7.31,7.31,0,0,1,2.3,1.52A7,7,0,0,1,416.56,41a7.12,7.12,0,0,1,.56,2.81A7,7,0,0,1,416.56,46.59ZM416,41.26a6.79,6.79,0,0,0-3.5-3.5,6.39,6.39,0,0,0-5.07,0,6.62,6.62,0,0,0-2.06,1.42,7,7,0,0,0-1.4,2.08,6.19,6.19,0,0,0-.52,2.54,6.31,6.31,0,0,0,.52,2.55,6.63,6.63,0,0,0,3.47,3.48,6.19,6.19,0,0,0,2.54.52,6.52,6.52,0,0,0,3-.69,6.6,6.6,0,0,0,2.28-1.88h-2.47a1.59,1.59,0,0,1-.14-0.2,0.9,0.9,0,0,0-.08-0.14l-0.15-.22-0.27-.42-0.69-1a9.49,9.49,0,0,0-.83-1,3,3,0,0,0-.47-0.44,1.62,1.62,0,0,0-.51-0.27,0.71,0.71,0,0,0-.3-0.05L409,44v2q0,0.37,0,.66a1,1,0,0,0,.12.46,0.77,0.77,0,0,0,.37.29,1.89,1.89,0,0,0,.74.12v0.34h-4V47.45a2.14,2.14,0,0,0,.58-0.08,1.06,1.06,0,0,0,.47-0.25,1.14,1.14,0,0,0,.19-0.56,5.81,5.81,0,0,0,.05-0.76V41.53c0-.25,0-0.51,0-0.78a0.92,0.92,0,0,0-.2-0.57,1.9,1.9,0,0,0-1-.37V39.54l0.56,0,0.93,0,1,0,0.81,0a13.07,13.07,0,0,1,1.42.07,3.56,3.56,0,0,1,1.12.3,1.94,1.94,0,0,1,1.18,1.93,1.71,1.71,0,0,1-.59,1.34,3,3,0,0,1-1.37.69v0a8.42,8.42,0,0,1,.74.78q0.34,0.41.69,0.9c0.24,0.33.44,0.63,0.63,0.9a3.4,3.4,0,0,0,.91.78,2.76,2.76,0,0,0,1,.3,6.39,6.39,0,0,0,1.08-3.69A6.19,6.19,0,0,0,416,41.26ZM410.79,40a1.42,1.42,0,0,0-.54-0.15l-0.61,0a3,3,0,0,0-.57,0,1.25,1.25,0,0,0-.05.29c0,0.12,0,.31,0,0.56V43.6l0.83,0a3.35,3.35,0,0,0,.73-0.12,1.86,1.86,0,0,0,1-.73,2,2,0,0,0,.27-1A1.72,1.72,0,0,0,410.79,40Z" transform="translate(-22.2 -9.81)" style="fill:#01ccff"/></svg>