<?xml version="1.0" encoding="utf-8"?>
<!-- Generator: Adobe Illustrator 19.1.0, SVG Export Plug-In . SVG Version: 6.00 Build 0)  -->
<!DOCTYPE svg PUBLIC "-//W3C//DTD SVG 1.1//EN" "http://www.w3.org/Graphics/SVG/1.1/DTD/svg11.dtd">
<svg version="1.1" id="Layer_1" xmlns="http://www.w3.org/2000/svg" xmlns:xlink="http://www.w3.org/1999/xlink" x="0px" y="0px"
	 viewBox="0 0 316 70" style="enable-background:new 0 0 316 70;" xml:space="preserve">
<metadata><?xpacket begin="﻿" id="W5M0MpCehiHzreSzNTczkc9d"?>
<x:xmpmeta xmlns:x="adobe:ns:meta/" x:xmptk="Adobe XMP Core 5.6-c067 79.157747, 2015/03/30-23:40:42        ">
   <rdf:RDF xmlns:rdf="http://www.w3.org/1999/02/22-rdf-syntax-ns#">
      <rdf:Description rdf:about=""/>
   </rdf:RDF>
</x:xmpmeta>
                                                                                                    
                                                                                                    
                                                                                                    
                                                                                                    
                                                                                                    
                                                                                                    
                                                                                                    
                                                                                                    
                                                                                                    
                                                                                                    
                                                                                                    
                                                                                                    
                                                                                                    
                                                                                                    
                                                                                                    
                                                                                                    
                                                                                                    
                                                                                                    
                                                                                                    
                                                                                                    
                           
<?xpacket end="w"?></metadata>
<style type="text/css">
	.st0{fill:#00CCFF;}
</style>
<g>
	<g>
		<path class="st0" d="M34.6,61.8c-8.2,0-10.8-2.7-10.8-11.4V33.9h-5.4v-8.3h5.4V15.1l10.8-2.9v13.4h7.7v8.3h-7.6v14
			c0,3.6,0.9,4.9,3.6,4.9c1.3,0,2.9-0.3,4-0.6v8.6C39.9,61.4,37.2,61.8,34.6,61.8z"/>
		<path class="st0" d="M144.5,61.8c-8.2,0-10.8-2.7-10.8-11.4V33.9h-5.4v-8.3h5.4V15.1l10.8-2.9v13.4h7.7v8.3h-7.6v14
			c0,3.6,0.9,4.9,3.6,4.9c1.3,0,2.9-0.3,4-0.6v8.6C149.8,61.4,147.1,61.8,144.5,61.8z"/>
		<path class="st0" d="M297.2,45.9h-21.1c0.1,4.7,2.9,7.4,8.8,7.4c3.5,0,7.1-0.7,10.4-2.2l1,8.2c-4,1.6-8.8,2.4-13.1,2.4
			c-11.6,0-18-5.6-18-18.1c0-10.9,6.1-19,17-19c10.7,0,15.4,7.2,15.4,16.5C297.6,42.7,297.5,44.2,297.2,45.9z M281.9,32.6
			c-3.1,0-5.4,2.5-5.7,6.1h10.7C287,34.7,285,32.6,281.9,32.6z"/>
		<path class="st0" d="M65.6,24c-10.4,0-18.8,8.4-18.8,18.8s8.4,18.8,18.8,18.8s18.8-8.4,18.8-18.8S76,24,65.6,24z M65.3,52.2
			c-5.1,0-9.3-4.3-9.3-9.3c0-5.2,4.3-9.4,9.3-9.4c5.2,0,9.4,4.3,9.4,9.4C74.7,48,70.4,52.2,65.3,52.2z"/>
		<path class="st0" d="M112.7,42.6c0,2.8-2.4,5.2-5.3,5.2c-2.8,0-5.2-2.4-5.2-5.2c0-2.9,2.4-5.3,5.2-5.3
			C110.3,37.3,112.7,39.7,112.7,42.6z"/>
		<path class="st0" d="M203.2,55.4c0,2.7-2.3,5-5,5c-2.7,0-5-2.3-5-5c0-2.7,2.3-5,5-5C201,50.4,203.2,52.7,203.2,55.4z"/>
		<path class="st0" d="M126.5,42.8c0-10.4-8.5-18.9-18.9-18.9s-18.9,8.5-18.9,18.9c0,7.8,4.8,14.5,11.6,17.4l7.4,5.8l7.5-6
			C121.8,57.1,126.5,50.5,126.5,42.8z M107.6,32.4c5.7,0,10.3,4.6,10.3,10.3s-4.6,10.3-10.3,10.3c-5.7,0-10.3-4.6-10.3-10.3
			S101.9,32.4,107.6,32.4z"/>
		<path class="st0" d="M250.2,24.8c-5.4,0-9.4,2.9-11.3,6.4c-1.1-3.8-4.3-6.5-9.7-6.5c-5,0-9.2,2.3-11.4,6.3h-0.1
			c0.3-2,0.4-4.3,0.4-5.6c-3.3-0.1-7.3,0-10.3,0.2v8.2c0,0,0,0,0,0v19.3c0,0,0,0,0,0V61h11v-7.9v-4.3V44c0-5.6,3.4-10.1,6.9-10.1
			c2.6,0,3.1,2,3.1,4.9V61h11v-7.9v-4.3V44c0-5.8,3.6-10.1,6.9-10.1c2.5,0,3.1,1.9,3.1,4.9V61h11v-7.9V36.7
			C261,28.7,257.2,24.8,250.2,24.8z"/>
		<g>
			<path class="st0" d="M178.3,24.6c-5.2,0-9.2,2.4-11.2,5.4H167c0.5-2,0-4.8,0-6.9V12.6l-10,2.8V61l10.3,0l-0.3-7.9v-9.2
				c0-5.3,3.5-10,7.4-10c2.5,0,3.6,1.7,3.6,4.6V61h11v-7.9V36C189,29.8,186.3,24.6,178.3,24.6z"/>
		</g>
	</g>
	<g>
		<path class="st0" d="M99.5,20.6c-0.9,0-1.8-0.5-2.2-1.4c-0.6-1.2-0.1-2.7,1.1-3.4c2.9-1.4,5.9-2.1,9.1-2.1c3.2,0,6.2,0.7,9,2.1
			c1.2,0.6,1.8,2.1,1.2,3.4c-0.6,1.2-2.1,1.8-3.4,1.2c-2.1-1-4.4-1.6-6.8-1.6c-2.4,0-4.8,0.5-6.9,1.6
			C100.3,20.5,99.9,20.6,99.5,20.6z"/>
	</g>
	<g>
		<path class="st0" d="M120.7,12.4c-0.4,0-0.8-0.1-1.2-0.3c-3.7-2-7.8-3-12-3c-3.9,0-7.7,0.9-11.1,2.6c-1.2,0.6-2.7,0.1-3.4-1.1
			c-0.6-1.2-0.1-2.7,1.1-3.4C98.3,5,102.8,4,107.5,4c5,0,10,1.3,14.4,3.6c1.2,0.7,1.7,2.2,1,3.4C122.5,11.9,121.6,12.4,120.7,12.4z"
			/>
	</g>
</g>
</svg>
